<?xml version="1.0" encoding="UTF-8"?>
<svg xmlns="http://www.w3.org/2000/svg" xmlns:xlink="http://www.w3.org/1999/xlink" version="1.2" >
<font id="Futura PT Demi Oblique">
<font-face  font-family="Futura PT Demi Italic" units-per-em="1000" ascent="763" descent="-237" font-style="normal" font-weight="400" font-stretch="normal" slope="-7" cap-height="667" x-height="433" underline-position="-75" underline-thickness="50" />
<missing-glyph  horiz-adv-x="233" d="" />
<glyph glyph-name="NULL" d="" />
<glyph glyph-name="CR" unicode="&#xd;" horiz-adv-x="250" d="" />
<glyph glyph-name="space" unicode="&#x20;" horiz-adv-x="233" d="" />
<glyph glyph-name="exclam" unicode="&#x21;" horiz-adv-x="253" d="M214 203 L271 667 L147 667 L90 203 L214 203 Z M56 54 C56 38 61 21 75 7 C90 -8 107 -13 127 -13 C150 -13 171 -7 189 11 C205 26 214 47 214 73 C214 87 211 107 195 123 C184 134 167 143 145 143 C120 143 98 133 82 117 C66 101 56 77 56 54 L56 54 Z " />
<glyph glyph-name="quotedbl" unicode="&#x22;" horiz-adv-x="388" d="M254 667 L124 667 L114 399 L198 399 L254 667 Z M428 667 L298 667 L288 399 L372 399 L428 667 Z " />
<glyph glyph-name="numbersign" unicode="&#x23;" horiz-adv-x="586" d="M403 0 L456 186 L558 186 L588 290 L486 290 L514 391 L616 391 L646 495 L544 495 L593 667 L471 667 L422 495 L328 495 L377 667 L255 667 L206 495 L104 495 L74 391 L176 391 L148 290 L46 290 L16 186 L118 186 L65 0 L187 0 L240 186 L334 186 L281 0 L403 0 Z M364 290 L270 290 L298 391 L392 391 L364 290 Z " />
<glyph glyph-name="dollar" unicode="&#x24;" horiz-adv-x="568" d="M338 765 L326 665 C277 658 237 636 211 610 C186 585 155 539 155 463 C155 424 164 392 194 361 C219 335 249 320 274 308 L308 292 C348 273 363 264 372 256 C389 241 397 222 397 202 C397 167 380 143 364 131 C343 114 313 108 285 108 C252 108 223 120 202 135 C181 150 160 176 147 196 L63 119 C78 93 102 64 139 39 C177 14 214 4 244 0 L229 -110 L311 -110 L326 2 C394 4 439 35 464 58 C504 95 530 148 530 221 C530 253 525 296 491 333 C468 358 428 379 402 391 L366 407 C352 413 320 428 307 438 C291 449 282 463 282 485 C282 508 293 527 308 540 C317 547 337 560 373 560 C396 560 415 553 433 542 C448 533 464 519 476 506 L552 590 C535 608 512 626 489 639 C469 650 442 661 408 665 L420 765 L338 765 Z " />
<glyph glyph-name="percent" unicode="&#x25;" horiz-adv-x="777" d="M269 675 C209 675 168 654 140 625 C110 594 93 549 93 506 C93 464 108 428 134 402 C169 367 213 359 256 359 C296 359 348 365 389 409 C417 440 432 482 432 523 C432 575 412 610 388 632 C361 658 322 675 269 675 L269 675 Z M256 431 C232 431 213 439 200 452 C182 470 178 493 178 510 C178 544 191 565 205 579 C224 598 244 603 268 603 C282 603 308 601 327 582 C337 572 348 554 348 525 C348 497 338 472 322 456 C309 443 287 431 256 431 L256 431 Z M164 3 L214 -28 L695 659 L646 689 L164 3 Z M602 306 C542 306 501 285 473 256 C443 225 426 180 426 137 C426 95 441 59 467 33 C502 -2 546 -10 589 -10 C630 -10 681 -4 722 40 C750 70 765 111 765 154 C765 202 745 239 721 263 C700 284 662 306 602 306 L602 306 Z M589 62 C565 62 546 70 533 83 C515 101 511 124 511 141 C511 175 524 196 538 210 C557 229 577 234 601 234 C615 234 641 232 660 213 C670 203 681 185 681 156 C681 128 671 103 655 87 C642 74 620 62 589 62 L589 62 Z " />
<glyph glyph-name="ampersand" unicode="&#x26;" horiz-adv-x="712" d="M610 313 C570 270 547 249 525 232 L434 354 L470 373 C493 385 519 401 539 424 C565 454 574 488 574 527 C574 567 563 604 531 635 C491 673 439 682 399 682 C347 682 299 669 261 632 C236 608 208 565 208 501 C208 469 217 424 259 376 L242 369 C202 352 165 336 133 305 C105 278 74 231 74 160 C74 103 95 63 122 36 C165 -8 219 -15 264 -15 C281 -15 342 -13 397 12 C429 27 463 52 487 75 L543 0 L704 0 L588 153 C609 169 636 192 677 238 L610 313 Z M424 157 C409 143 388 127 366 117 C347 108 319 99 294 99 C264 99 241 108 227 122 C215 134 206 152 206 174 C206 195 213 223 239 249 C259 269 291 288 319 298 L424 157 Z M353 463 C343 478 332 496 332 521 C332 543 341 558 350 567 C361 578 378 588 406 588 C422 588 440 583 451 572 C457 566 466 554 466 533 C466 515 461 499 449 483 C438 469 423 456 410 448 L377 427 L353 463 Z " />
<glyph glyph-name="quotesingle" unicode="&#x27;" horiz-adv-x="214" d="M254 667 L124 667 L114 399 L198 399 L254 667 Z " />
<glyph glyph-name="parenleft" unicode="&#x28;" horiz-adv-x="339" d="M258 -127 C246 -93 234 -50 227 -11 C222 14 215 65 215 140 C215 207 222 331 281 492 C303 552 336 623 371 687 L280 740 C233 663 203 597 186 559 C147 468 94 315 94 131 C94 103 96 37 111 -38 C121 -86 135 -132 155 -180 L258 -127 Z " />
<glyph glyph-name="parenright" unicode="&#x29;" horiz-adv-x="339" d="M150 687 C165 647 175 611 182 571 C191 524 195 479 195 422 C195 361 189 246 137 85 C113 11 82 -61 46 -127 L136 -180 C177 -115 218 -34 247 43 C295 172 315 311 315 417 C315 433 314 517 296 603 C292 623 279 676 253 740 L150 687 Z " />
<glyph glyph-name="asterisk" unicode="&#x2a;" horiz-adv-x="573" d="M228 657 L189 573 L299 546 L214 459 L277 406 L351 503 L401 406 L477 459 L414 547 L530 575 L512 657 L400 613 L423 729 L335 729 L328 612 L228 657 Z " />
<glyph glyph-name="plus" unicode="&#x2b;" horiz-adv-x="500" d="M74 283 L230 283 L230 127 L352 127 L352 283 L508 283 L508 395 L352 395 L352 551 L230 551 L230 395 L74 395 L74 283 Z " />
<glyph glyph-name="comma" unicode="&#x2c;" horiz-adv-x="328" d="M-12 -131 L64 -140 L237 125 L127 138 L-12 -131 Z " />
<glyph glyph-name="hyphen" unicode="&#x2d;" horiz-adv-x="360" d="M71 174 L331 174 L345 286 L85 286 L71 174 Z " />
<glyph glyph-name="period" unicode="&#x2e;" horiz-adv-x="254" d="M56 54 C56 38 61 21 75 7 C90 -8 107 -13 127 -13 C150 -13 171 -7 189 11 C205 26 214 47 214 73 C214 87 211 107 195 123 C184 134 167 143 145 143 C120 143 98 133 82 117 C66 101 56 77 56 54 L56 54 Z " />
<glyph glyph-name="slash" unicode="&#x2f;" horiz-adv-x="653" d="M-30 -170 L58 -210 L693 719 L606 759 L-30 -170 Z " />
<glyph glyph-name="zero" unicode="0" horiz-adv-x="568" d="M287 -15 C358 -15 407 -1 462 55 C549 144 583 283 583 405 C583 462 574 558 508 623 C472 659 420 682 360 682 C301 682 237 659 184 609 C104 533 57 401 57 269 C57 209 65 110 135 41 C179 -3 225 -15 287 -15 L287 -15 Z M355 570 C374 570 392 568 410 550 C442 519 451 447 451 393 C451 301 419 180 372 131 C351 110 326 97 295 97 C268 97 247 107 232 122 C197 156 189 224 189 269 C189 356 216 478 271 534 C293 556 318 570 355 570 L355 570 Z " />
<glyph glyph-name="one" unicode="1" horiz-adv-x="568" d="M228 0 L358 0 L440 667 L214 667 L200 555 L296 555 L228 0 Z " />
<glyph glyph-name="two" unicode="2" horiz-adv-x="568" d="M18 0 L500 0 L514 112 L273 112 L403 237 C470 301 496 334 511 355 C540 397 555 440 555 493 C555 542 540 585 504 622 C456 671 394 682 338 682 C272 682 203 667 149 607 C120 575 92 524 86 459 L220 459 C223 488 237 523 256 542 C271 557 296 570 329 570 C356 570 381 561 396 548 C412 534 424 512 424 481 C424 430 394 390 370 362 C346 333 270 254 239 223 L18 0 Z " />
<glyph glyph-name="three" unicode="3" horiz-adv-x="568" d="M234 493 C237 516 247 541 261 555 C272 567 292 580 327 580 C346 580 369 576 387 559 C399 548 412 529 412 499 C412 472 402 444 384 426 C361 404 331 401 309 401 L291 401 L280 307 L291 307 C311 307 341 305 364 287 C383 273 396 250 396 216 C396 178 383 148 365 129 C339 102 308 97 280 97 C262 97 232 100 209 120 C190 137 178 165 176 192 L46 192 C49 131 75 76 111 41 C161 -7 224 -15 277 -15 C340 -15 410 -6 466 56 C501 94 526 152 526 222 C526 256 519 282 501 308 C482 335 460 349 442 356 C459 363 486 378 508 409 C525 433 538 465 538 505 C538 554 520 597 491 626 C466 652 416 682 332 682 C279 682 219 669 173 621 C139 586 119 535 112 493 L234 493 Z " />
<glyph glyph-name="four" unicode="4" horiz-adv-x="568" d="M551 667 L434 667 L44 184 L36 126 L362 126 L347 0 L469 0 L484 126 L562 126 L575 230 L497 230 L551 667 Z M203 230 L406 488 L375 230 L203 230 Z " />
<glyph glyph-name="five" unicode="5" horiz-adv-x="568" d="M554 667 L246 667 L124 317 C178 351 222 360 262 360 C300 360 340 349 363 329 C387 308 401 272 401 234 C401 195 385 159 362 136 C347 121 313 97 253 97 C219 97 190 104 158 123 C132 138 110 158 91 182 L35 70 C45 61 79 32 124 12 C170 -8 216 -15 261 -15 C327 -15 407 -2 468 66 C506 108 532 170 532 247 C532 321 505 369 478 397 C446 430 394 454 328 454 C310 454 294 452 281 450 L318 555 L540 555 L554 667 Z " />
<glyph glyph-name="six" unicode="6" horiz-adv-x="568" d="M388 685 L174 441 C144 406 112 372 91 336 C64 291 54 247 54 196 C54 135 73 90 113 50 C169 -6 232 -15 295 -15 C343 -15 424 -10 486 45 C533 86 566 160 566 234 C566 293 541 339 513 369 C462 422 391 433 341 433 C331 433 321 433 313 432 L489 628 L388 685 Z M302 89 C266 89 239 98 217 119 C196 140 185 165 185 199 C185 241 201 276 222 298 C237 314 267 335 318 335 C343 335 374 330 400 305 C426 280 433 250 433 221 C433 184 423 155 400 130 C374 102 344 89 302 89 L302 89 Z " />
<glyph glyph-name="seven" unicode="7" horiz-adv-x="568" d="M56 29 L159 -20 L645 667 L131 667 L117 555 L427 555 L56 29 Z " />
<glyph glyph-name="eight" unicode="8" horiz-adv-x="568" d="M438 348 C475 360 503 382 521 406 C540 431 554 465 554 510 C554 562 536 605 497 637 C452 675 397 682 355 682 C269 682 218 652 188 623 C158 594 132 547 132 481 C132 454 137 426 155 400 C169 379 191 360 212 348 C180 341 148 325 124 302 C93 272 71 222 71 167 C71 112 93 73 119 46 C170 -6 237 -15 294 -15 C349 -15 424 -5 478 50 C513 85 537 140 537 206 C537 241 529 271 507 300 C485 329 458 342 438 348 L438 348 Z M334 402 C311 402 291 407 273 424 C256 440 249 461 249 484 C249 522 265 547 279 561 C299 581 321 588 348 588 C364 588 389 585 408 569 C419 560 436 541 436 505 C436 478 426 445 406 426 C389 411 363 402 334 402 L334 402 Z M296 87 C273 87 248 91 227 113 C215 125 202 146 202 180 C202 214 214 243 232 262 C249 281 276 295 310 295 C335 295 359 286 376 273 C398 256 408 231 408 202 C408 168 395 135 375 115 C349 89 316 87 296 87 L296 87 Z " />
<glyph glyph-name="nine" unicode="9" horiz-adv-x="568" d="M254 -18 L460 213 C495 253 529 292 555 337 C577 376 593 418 593 471 C593 538 566 585 536 615 C503 648 446 682 351 682 C281 682 210 664 155 609 C107 562 83 496 83 433 C83 361 114 315 142 288 C181 250 237 228 291 228 C302 228 313 229 324 231 L154 38 L254 -18 Z M342 578 C374 578 408 567 432 545 C458 520 463 491 463 465 C463 417 444 387 426 369 C402 346 369 332 333 332 C295 332 265 345 246 363 C229 380 215 405 215 441 C215 471 222 509 255 542 C279 566 308 578 342 578 L342 578 Z " />
<glyph glyph-name="colon" unicode="&#x3a;" horiz-adv-x="253" d="M56 53 C56 37 61 20 75 6 C90 -9 107 -14 127 -14 C150 -14 171 -8 189 10 C205 25 214 46 214 72 C214 86 211 106 195 122 C184 133 167 142 145 142 C120 142 98 132 82 116 C66 100 56 76 56 53 L56 53 Z M92 358 C92 342 97 325 111 311 C126 296 143 291 163 291 C186 291 207 297 225 315 C241 330 250 351 250 377 C250 391 247 411 231 427 C220 438 203 447 181 447 C156 447 134 437 118 421 C102 405 92 381 92 358 L92 358 Z " />
<glyph glyph-name="semicolon" unicode="&#x3b;" horiz-adv-x="328" d="M-12 -131 L64 -140 L237 125 L127 138 L-12 -131 Z M127 358 C127 342 132 325 146 311 C161 296 178 291 198 291 C221 291 242 297 260 315 C276 330 285 351 285 377 C285 391 282 411 266 427 C255 438 238 447 216 447 C191 447 169 437 153 421 C137 405 127 381 127 358 L127 358 Z " />
<glyph glyph-name="less" unicode="&#x3c;" horiz-adv-x="500" d="M216 334 L522 484 L522 604 L88 386 L88 282 L522 64 L522 184 L216 334 Z " />
<glyph glyph-name="equal" unicode="&#x3d;" horiz-adv-x="500" d="M75 372 L509 372 L509 478 L75 478 L75 372 Z M75 200 L509 200 L509 306 L75 306 L75 200 Z " />
<glyph glyph-name="greater" unicode="&#x3e;" horiz-adv-x="500" d="M367 334 L61 184 L61 64 L495 282 L495 386 L61 604 L61 484 L367 334 Z " />
<glyph glyph-name="question" unicode="&#x3f;" horiz-adv-x="491" d="M308 203 L321 308 C385 311 431 340 458 368 C488 399 510 445 510 509 C510 547 500 594 461 632 C435 657 390 682 315 682 C238 682 189 655 160 624 C130 592 108 538 102 491 L232 491 C234 512 242 538 253 551 C263 563 282 574 309 574 C331 574 348 567 358 558 C369 548 380 530 380 505 C380 472 366 443 345 425 C316 399 279 395 248 395 C232 395 222 396 208 399 L184 203 L308 203 Z M150 52 C150 36 155 19 169 5 C184 -10 201 -15 221 -15 C244 -15 265 -9 283 9 C299 24 308 45 308 71 C308 85 305 105 289 121 C278 132 261 141 239 141 C214 141 192 131 176 115 C160 99 150 75 150 52 L150 52 Z " />
<glyph glyph-name="at" unicode="&#x40;" horiz-adv-x="739" d="M525 450 C503 492 461 503 429 503 C380 503 340 484 305 447 C260 401 235 339 235 278 C235 236 248 205 273 181 C297 157 327 145 366 145 C393 145 414 150 437 163 C464 179 481 201 487 209 C489 194 497 181 505 173 C521 157 543 153 562 153 C617 153 656 177 679 199 C732 250 753 336 753 406 C753 487 727 550 673 601 C616 655 544 678 463 678 C338 678 248 625 190 567 C123 500 73 399 73 280 C73 182 109 117 149 76 C220 3 313 -12 394 -12 C453 -12 520 -5 597 20 L588 96 C542 79 481 63 405 63 C338 63 270 74 218 126 C181 164 154 225 154 293 C154 376 195 462 246 514 C308 578 387 603 462 603 C525 603 573 583 611 551 C639 527 679 480 679 403 C679 356 662 283 626 245 C611 230 595 221 577 221 C564 221 558 225 554 229 C548 235 548 242 548 248 C548 257 550 268 557 289 L622 492 L538 492 L525 450 Z M388 230 C373 230 360 232 348 243 C338 252 329 268 329 293 C329 324 345 363 370 388 C391 408 413 415 432 415 C452 415 466 408 475 399 C482 392 491 378 491 355 C491 322 474 281 454 259 C435 239 415 230 388 230 L388 230 Z " />
<glyph glyph-name="A" unicode="A" horiz-adv-x="672" d="M533 0 L670 0 L473 667 L375 667 L2 0 L146 0 L222 140 L491 140 L533 0 Z M276 246 L402 486 L466 246 L276 246 Z " />
<glyph glyph-name="B" unicode="B" horiz-adv-x="571" d="M158 667 L76 0 L296 0 C398 0 455 21 496 64 C522 91 550 137 550 208 C550 245 541 277 514 307 C493 330 463 347 435 356 C460 365 482 380 500 407 C521 437 528 466 528 504 C528 544 520 584 485 618 C440 662 379 667 323 667 L158 667 Z M275 561 L307 561 C325 561 353 560 375 544 C391 532 404 513 404 483 C404 458 393 435 379 420 C354 394 320 390 282 390 L254 390 L275 561 Z M242 290 L290 290 C323 290 371 285 396 261 C409 248 418 227 418 202 C418 173 407 148 392 134 C366 109 322 106 275 106 L219 106 L242 290 Z " />
<glyph glyph-name="C" unicode="C" horiz-adv-x="607" d="M585 176 C568 153 521 102 420 102 C363 102 314 120 276 160 C248 190 220 237 220 310 C220 377 243 448 287 495 C319 529 370 564 454 564 C496 564 568 556 624 491 L642 641 C570 678 509 682 466 682 C387 682 279 667 192 580 C131 518 85 417 85 291 C85 211 108 130 174 67 C209 33 280 -15 401 -15 C486 -15 539 10 566 24 L585 176 Z " />
<glyph glyph-name="D" unicode="D" horiz-adv-x="673" d="M158 667 L76 0 L204 0 L256 0 C396 0 497 27 572 101 C603 131 670 208 670 364 C670 463 634 537 587 582 C504 662 383 667 332 667 L158 667 Z M274 555 L314 555 C349 555 424 551 478 503 C528 458 536 398 536 361 C536 299 517 230 475 184 C425 129 352 112 264 112 L220 112 L274 555 Z " />
<glyph glyph-name="E" unicode="E" horiz-adv-x="496" d="M528 667 L158 667 L76 0 L206 0 L446 0 L460 112 L220 112 L242 294 L472 294 L486 406 L256 406 L274 555 L514 555 L528 667 Z " />
<glyph glyph-name="F" unicode="F" horiz-adv-x="466" d="M512 667 L158 667 L76 0 L206 0 L242 294 L452 294 L466 406 L256 406 L274 555 L498 555 L512 667 Z " />
<glyph glyph-name="G" unicode="G" horiz-adv-x="766" d="M446 245 L618 245 C607 212 586 174 556 148 C511 109 458 103 420 103 C377 103 322 113 277 158 C253 182 219 229 219 308 C219 380 246 453 292 499 C325 532 378 564 455 564 C495 564 531 555 563 535 C588 520 612 497 630 464 L747 531 C720 577 684 612 647 635 C586 673 523 682 470 682 C338 682 252 631 198 579 C135 518 85 421 85 301 C85 189 129 117 176 72 C247 3 333 -15 410 -15 C490 -15 579 3 653 77 C735 159 759 281 766 357 L460 357 L446 245 Z " />
<glyph glyph-name="H" unicode="H" horiz-adv-x="694" d="M288 667 L158 667 L76 0 L206 0 L242 297 L524 297 L488 0 L618 0 L700 667 L570 667 L538 409 L256 409 L288 667 Z " />
<glyph glyph-name="I" unicode="I" horiz-adv-x="282" d="M158 667 L76 0 L206 0 L288 667 L158 667 Z " />
<glyph glyph-name="J" unicode="J" horiz-adv-x="390" d="M266 667 L213 237 C207 192 203 148 180 125 C166 111 149 106 132 106 C115 106 88 110 70 142 L-20 47 C-3 30 19 14 37 5 C73 -13 115 -15 136 -15 C177 -15 228 -9 272 32 C322 78 331 142 341 220 L396 667 L266 667 Z " />
<glyph glyph-name="K" unicode="K" horiz-adv-x="617" d="M288 667 L158 667 L76 0 L206 0 L239 265 L264 289 L456 0 L612 0 L359 356 L678 667 L527 667 L254 401 L288 667 Z " />
<glyph glyph-name="L" unicode="L" horiz-adv-x="426" d="M158 667 L76 0 L207 0 L412 0 L426 112 L220 112 L288 667 L158 667 Z " />
<glyph glyph-name="M" unicode="M" horiz-adv-x="870" d="M42 0 L176 0 L294 411 L416 0 L456 0 L688 411 L698 0 L828 0 L799 667 L705 667 L467 243 L343 667 L249 667 L42 0 Z " />
<glyph glyph-name="N" unicode="N" horiz-adv-x="778" d="M206 0 L261 447 L610 0 L702 0 L784 667 L654 667 L599 222 L250 667 L158 667 L76 0 L206 0 Z " />
<glyph glyph-name="O" unicode="O" horiz-adv-x="806" d="M484 682 C374 682 270 643 200 577 C131 512 85 409 85 299 C85 215 118 134 173 78 C212 38 287 -15 418 -15 C553 -15 643 39 696 94 C763 163 803 268 803 374 C803 473 765 548 715 596 C662 647 579 682 484 682 L484 682 Z M425 103 C363 103 309 126 273 164 C247 191 220 238 220 309 C220 381 246 451 297 499 C335 535 391 563 463 563 C536 563 586 535 615 505 C646 473 668 424 668 364 C668 289 637 216 589 169 C549 130 492 103 425 103 L425 103 Z " />
<glyph glyph-name="P" unicode="P" horiz-adv-x="535" d="M158 667 L76 0 L206 0 L236 247 L325 247 C380 247 455 255 508 305 C546 341 571 399 571 471 C571 542 546 586 517 613 C462 664 374 667 338 667 L158 667 Z M274 555 L320 555 C345 555 380 550 401 537 C433 517 437 486 437 466 C437 442 432 411 405 387 C375 361 336 359 305 359 L250 359 L274 555 Z " />
<glyph glyph-name="Q" unicode="Q" horiz-adv-x="806" d="M651 -26 L777 -13 L683 96 C715 121 745 156 768 204 C789 248 803 306 803 365 C803 464 767 541 718 591 C679 630 604 682 472 682 C390 682 282 666 194 577 C124 507 85 402 85 298 C85 184 135 113 175 73 C239 9 318 -15 410 -15 C506 -15 564 9 603 33 L651 -26 Z M537 268 L406 257 L525 127 C498 113 466 103 426 103 C363 103 308 129 273 167 C241 202 220 253 220 314 C220 381 246 448 293 495 C336 539 396 564 462 564 C522 564 572 542 605 512 C643 477 668 422 668 356 C668 305 654 241 604 189 L537 268 Z " />
<glyph glyph-name="R" unicode="R" horiz-adv-x="576" d="M158 667 L76 0 L206 0 L239 268 L255 268 L400 0 L556 0 L386 279 C430 286 479 308 509 337 C541 368 564 418 564 481 C564 545 540 585 517 609 C468 660 402 667 351 667 L158 667 Z M275 561 L316 561 C359 561 386 550 402 536 C425 516 429 490 429 471 C429 431 412 407 400 395 C375 370 331 360 296 360 L250 360 L275 561 Z " />
<glyph glyph-name="S" unicode="S" horiz-adv-x="534" d="M546 604 C483 675 409 682 366 682 C307 682 239 672 185 618 C143 576 128 526 128 474 C128 439 134 398 169 364 C184 349 208 333 250 315 L288 299 C314 288 334 284 356 266 C378 248 386 229 386 205 C386 173 375 151 361 136 C335 107 300 103 274 103 C244 103 216 109 190 131 C172 146 153 173 143 192 L48 111 C69 79 99 45 133 23 C176 -5 219 -15 270 -15 C325 -15 397 -5 452 48 C495 89 523 157 523 230 C523 274 512 305 482 337 C456 365 425 382 399 393 L354 412 C321 426 304 433 291 442 C272 455 263 471 263 493 C263 516 273 535 289 549 C302 561 324 572 360 572 C415 572 449 542 467 515 L546 604 Z " />
<glyph glyph-name="T" unicode="T" horiz-adv-x="442" d="M504 555 L518 667 L88 667 L74 555 L224 555 L156 0 L286 0 L354 555 L504 555 Z " />
<glyph glyph-name="U" unicode="U" horiz-adv-x="686" d="M156 667 L114 319 C111 297 105 233 105 206 C105 152 116 97 160 52 C216 -5 296 -15 358 -15 C415 -15 502 -9 565 55 C624 115 634 198 644 276 L692 667 L562 667 L515 290 C507 225 501 167 453 131 C430 114 397 103 359 103 C327 103 291 113 268 134 C249 152 234 185 234 224 C234 237 239 278 241 298 L286 667 L156 667 Z " />
<glyph glyph-name="V" unicode="V" horiz-adv-x="644" d="M84 667 L284 0 L358 0 L724 667 L580 667 L347 219 L224 667 L84 667 Z " />
<glyph glyph-name="W" unicode="W" horiz-adv-x="978" d="M537 423 L631 0 L723 0 L1058 667 L918 667 L702 213 L605 667 L533 667 L313 213 L220 667 L84 667 L236 0 L328 0 L537 423 Z " />
<glyph glyph-name="X" unicode="X" horiz-adv-x="634" d="M8 0 L164 0 L348 244 L464 0 L614 0 L429 352 L673 667 L517 667 L368 460 L277 667 L127 667 L287 352 L8 0 Z " />
<glyph glyph-name="Y" unicode="Y" horiz-adv-x="590" d="M227 0 L357 0 L394 305 L674 667 L514 667 L342 435 L228 667 L80 667 L264 305 L227 0 Z " />
<glyph glyph-name="Z" unicode="Z" horiz-adv-x="584" d="M644 667 L155 667 L141 555 L414 555 L22 0 L546 0 L560 112 L252 112 L644 667 Z " />
<glyph glyph-name="bracketleft" unicode="&#x5b;" horiz-adv-x="350" d="M378 625 L391 729 L181 729 L70 -180 L280 -180 L293 -76 L199 -76 L284 625 L378 625 Z " />
<glyph glyph-name="backslash" unicode="&#x5c;" horiz-adv-x="673" d="M655 -170 L253 759 L166 719 L568 -210 L655 -170 Z " />
<glyph glyph-name="bracketright" unicode="&#x5d;" horiz-adv-x="350" d="M43 -76 L30 -180 L240 -180 L352 729 L142 729 L129 625 L223 625 L137 -76 L43 -76 Z " />
<glyph glyph-name="asciicircum" unicode="&#x5e;" horiz-adv-x="500" d="M292 577 L407 336 L534 336 L372 667 L212 667 L50 336 L177 336 L292 577 Z " />
<glyph glyph-name="underscore" unicode="&#x5f;" horiz-adv-x="500" d="M0 -158 L500 -158 L500 -54 L0 -54 L0 -158 Z " />
<glyph glyph-name="grave" unicode="&#x60;" horiz-adv-x="500" d="M307 510 L368 550 L268 700 L173 644 L307 510 Z " />
<glyph glyph-name="a" unicode="a" horiz-adv-x="572" d="M438 377 C426 397 411 413 387 426 C359 441 332 447 301 447 C221 447 165 415 130 379 C89 336 63 272 63 194 C63 136 79 83 121 41 C162 0 211 -14 263 -14 C293 -14 318 -8 344 7 C352 12 377 27 399 56 L392 0 L514 0 L567 433 L445 433 L438 377 Z M318 339 C362 339 388 321 402 306 C420 287 432 260 432 229 C432 192 418 151 389 125 C360 99 327 94 303 94 C267 94 241 105 223 122 C204 140 190 170 190 208 C190 244 205 282 233 308 C258 330 287 339 318 339 L318 339 Z " />
<glyph glyph-name="b" unicode="b" horiz-adv-x="572" d="M270 729 L148 729 L58 0 L180 0 L187 56 C199 31 217 16 231 7 C260 -11 293 -14 323 -14 C384 -14 439 -1 488 48 C536 96 563 168 563 247 C563 290 555 351 504 399 C462 439 415 447 371 447 C337 447 310 442 280 425 C256 412 239 396 226 377 L270 729 Z M326 339 C356 339 383 331 406 309 C426 290 436 265 436 235 C436 198 424 155 397 129 C374 106 338 94 307 94 C272 94 242 107 224 125 C206 143 194 169 194 207 C194 245 206 276 231 302 C255 327 284 339 326 339 L326 339 Z " />
<glyph glyph-name="c" unicode="c" horiz-adv-x="420" d="M438 421 C394 442 356 447 318 447 C245 447 184 428 132 375 C89 331 62 269 62 193 C62 126 85 79 116 47 C154 8 212 -14 274 -14 C303 -14 348 -10 388 13 L402 132 C369 102 328 94 302 94 C269 94 239 107 220 127 C201 146 190 175 190 206 C190 239 203 279 230 305 C258 333 292 339 320 339 C373 339 405 318 423 301 L438 421 Z " />
<glyph glyph-name="d" unicode="d" horiz-adv-x="570" d="M438 377 C417 407 392 421 380 427 C357 438 321 447 290 447 C230 447 168 420 131 382 C92 343 63 278 63 199 C63 118 93 68 123 38 C160 1 204 -14 257 -14 C288 -14 321 -7 345 6 C375 23 398 54 399 56 L392 0 L514 0 L604 729 L482 729 L438 377 Z M316 339 C346 339 376 331 401 308 C421 289 433 263 433 229 C433 191 415 151 393 129 C372 108 340 94 303 94 C266 94 240 107 224 122 C204 140 190 171 190 210 C190 246 203 281 229 306 C252 329 281 339 316 339 L316 339 Z " />
<glyph glyph-name="e" unicode="e" horiz-adv-x="526" d="M393 141 C384 125 369 107 351 96 C328 83 300 82 285 82 C263 82 236 86 214 109 C196 127 184 156 189 196 L513 196 C515 209 515 222 515 240 C515 293 506 352 459 397 C417 437 363 447 311 447 C258 447 193 438 138 383 C90 336 63 261 63 186 C63 115 91 71 115 46 C161 -3 218 -14 276 -14 C315 -14 363 -9 406 15 C441 35 476 71 498 116 L393 141 Z M203 274 C210 298 224 319 239 333 C256 348 280 361 313 361 C338 361 364 353 381 337 C396 323 407 299 408 274 L203 274 Z " />
<glyph glyph-name="f" unicode="f" horiz-adv-x="290" d="M334 329 L347 433 L235 433 L245 513 C253 573 263 603 279 618 C289 627 303 633 320 633 C342 633 360 622 370 615 L384 726 C357 736 323 741 298 741 C241 741 204 716 184 695 C141 651 133 587 127 540 L113 433 L67 433 L54 329 L100 329 L60 0 L182 0 L222 329 L334 329 Z " />
<glyph glyph-name="g" unicode="g" horiz-adv-x="564" d="M430 377 C415 402 395 417 380 426 C358 439 328 447 289 447 C215 447 165 416 135 387 C89 344 57 276 57 194 C57 122 82 71 114 39 C154 -1 203 -14 256 -14 C285 -14 312 -8 337 7 C367 25 386 51 391 58 L383 -3 C379 -32 371 -71 344 -97 C326 -114 298 -126 260 -126 C226 -126 205 -115 194 -104 C180 -91 171 -69 169 -51 L41 -51 C46 -98 66 -143 94 -172 C140 -221 204 -230 256 -230 C351 -230 410 -200 442 -167 C494 -114 502 -31 508 20 L559 433 L437 433 L430 377 Z M312 339 C347 339 375 327 393 311 C408 297 426 271 426 231 C426 192 410 151 384 126 C369 112 340 94 291 94 C266 94 238 101 215 124 C201 138 183 164 183 204 C183 241 196 282 225 308 C241 323 269 339 312 339 L312 339 Z " />
<glyph glyph-name="h" unicode="h" horiz-adv-x="536" d="M58 0 L180 0 L207 221 C211 253 221 294 244 317 C252 325 274 343 313 343 C335 343 353 336 365 325 C374 317 385 300 385 270 C385 254 380 210 379 201 L354 0 L476 0 L505 238 C509 268 513 288 513 312 C513 342 507 378 479 407 C457 429 421 447 363 447 C329 447 304 441 279 427 C255 413 238 396 226 377 L270 729 L148 729 L58 0 Z " />
<glyph glyph-name="i" unicode="i" horiz-adv-x="238" d="M111 433 L58 0 L180 0 L233 433 L111 433 Z M121 607 C121 587 128 573 140 561 C152 550 167 543 186 543 C205 543 226 550 244 568 C263 587 268 609 268 624 C268 642 261 659 249 671 C238 682 222 689 203 689 C187 689 165 685 145 664 C128 647 121 626 121 607 L121 607 Z " />
<glyph glyph-name="j" unicode="j" horiz-adv-x="238" d="M111 433 L30 -229 L152 -229 L233 433 L111 433 Z M121 607 C121 587 128 573 140 561 C152 550 167 543 186 543 C205 543 226 550 244 568 C263 587 268 609 268 624 C268 642 261 659 249 671 C238 682 222 689 203 689 C187 689 165 685 145 664 C128 647 121 626 121 607 L121 607 Z " />
<glyph glyph-name="k" unicode="k" horiz-adv-x="503" d="M148 729 L58 0 L180 0 L199 156 L227 178 L354 0 L500 0 L313 241 L544 433 L395 433 L215 283 L270 729 L148 729 Z " />
<glyph glyph-name="l" unicode="l" horiz-adv-x="236" d="M148 729 L58 0 L180 0 L270 729 L148 729 Z " />
<glyph glyph-name="m" unicode="m" horiz-adv-x="787" d="M58 0 L180 0 L205 206 C210 251 222 295 243 318 C254 330 273 343 302 343 C322 343 338 336 348 326 C363 310 365 286 365 269 C365 252 360 213 359 201 L334 0 L456 0 L481 211 C488 269 502 301 522 321 C538 337 557 343 576 343 C592 343 611 337 622 327 C634 316 641 296 641 269 C641 266 641 252 635 206 L610 0 L732 0 L761 239 C764 265 766 274 766 310 C766 343 763 381 731 411 C705 435 663 447 621 447 C585 447 560 439 535 423 C513 409 496 391 484 368 C476 388 462 408 438 424 C420 436 393 447 357 447 C330 447 304 441 279 427 C261 417 243 403 227 384 L233 433 L111 433 L58 0 Z " />
<glyph glyph-name="n" unicode="n" horiz-adv-x="536" d="M58 0 L180 0 L207 221 C211 252 221 293 244 317 C256 329 277 343 312 343 C339 343 356 334 365 325 C374 317 385 300 385 270 C385 254 380 210 379 201 L354 0 L476 0 L505 238 C509 268 513 288 513 312 C513 342 507 378 479 407 C457 429 421 447 363 447 C329 447 304 441 279 427 C255 413 238 396 226 377 L233 433 L111 433 L58 0 Z " />
<glyph glyph-name="o" unicode="o" horiz-adv-x="572" d="M336 447 C235 447 173 408 138 374 C94 331 63 264 63 193 C63 125 88 77 120 46 C167 -1 225 -14 287 -14 C364 -14 429 5 486 59 C546 117 563 186 563 241 C563 309 535 356 507 385 C474 418 421 447 336 447 L336 447 Z M299 94 C271 94 239 105 219 125 C200 144 189 175 189 201 C189 235 202 276 232 304 C256 326 290 339 324 339 C353 339 383 328 403 309 C424 289 435 256 435 229 C435 195 419 157 394 132 C368 106 332 94 299 94 L299 94 Z " />
<glyph glyph-name="p" unicode="p" horiz-adv-x="572" d="M187 56 C198 39 213 22 231 11 C267 -12 314 -14 332 -14 C387 -14 441 0 489 48 C524 83 563 145 563 246 C563 294 553 354 506 399 C465 438 414 447 370 447 C340 447 318 442 290 428 C266 416 245 400 226 377 L233 433 L111 433 L30 -229 L152 -229 L187 56 Z M326 339 C355 339 386 328 404 311 C422 294 436 267 436 232 C436 194 422 155 396 129 C371 104 342 94 307 94 C280 94 246 99 221 128 C205 146 194 174 194 206 C194 240 207 276 235 303 C262 330 294 339 326 339 L326 339 Z " />
<glyph glyph-name="q" unicode="q" horiz-adv-x="573" d="M439 377 C425 401 406 417 387 427 C354 445 316 447 296 447 C221 447 170 417 138 385 C93 340 63 267 63 193 C63 120 89 71 118 41 C155 2 202 -14 258 -14 C282 -14 314 -11 344 4 C361 12 382 27 400 53 L365 -229 L487 -229 L568 433 L446 433 L439 377 Z M325 339 C350 339 378 333 401 311 C415 297 433 273 433 232 C433 187 415 151 389 127 C363 103 333 94 301 94 C260 94 235 111 220 126 C204 143 191 169 191 201 C191 241 208 279 231 303 C258 330 290 339 325 339 L325 339 Z " />
<glyph glyph-name="r" unicode="r" horiz-adv-x="360" d="M58 0 L180 0 L203 184 C208 228 226 282 253 309 C271 327 297 339 329 339 C347 339 362 335 376 328 L412 437 C393 444 377 447 355 447 C329 447 305 444 279 428 C256 414 237 392 225 371 L233 433 L111 433 L58 0 Z " />
<glyph glyph-name="s" unicode="s" horiz-adv-x="400" d="M399 403 C385 413 364 426 345 433 C320 443 288 447 260 447 C202 447 162 429 137 405 C112 381 94 345 94 302 C94 269 103 248 123 228 C141 210 162 200 180 193 L210 181 C229 174 244 168 253 160 C262 151 264 141 264 133 C264 117 257 103 247 95 C236 86 216 82 200 82 C183 82 165 88 150 96 C134 105 120 118 110 132 L37 58 C55 39 81 18 103 7 C128 -5 161 -14 205 -14 C245 -14 302 -8 347 37 C372 62 392 98 392 148 C392 171 387 204 362 230 C346 246 319 261 295 269 L258 281 C239 287 230 291 223 297 C216 303 214 310 214 319 C214 332 219 340 223 345 C235 358 259 359 264 359 C281 359 292 356 305 350 C318 344 327 337 336 328 L399 403 Z " />
<glyph glyph-name="t" unicode="t" horiz-adv-x="270" d="M304 329 L317 433 L233 433 L251 581 L129 581 L111 433 L63 433 L50 329 L98 329 L58 0 L180 0 L220 329 L304 329 Z " />
<glyph glyph-name="u" unicode="u" horiz-adv-x="537" d="M112 433 L85 210 C81 179 79 159 79 142 C79 76 114 40 137 23 C172 -2 226 -14 280 -14 C321 -14 370 -7 409 15 C474 52 493 114 503 194 L532 433 L410 433 L382 205 C377 166 372 136 349 114 C335 101 313 90 282 90 C257 90 234 98 221 112 C212 121 203 137 203 165 C203 171 204 182 208 217 L234 433 L112 433 Z " />
<glyph glyph-name="v" unicode="v" horiz-adv-x="504" d="M55 433 L223 0 L281 0 L555 433 L415 433 L271 189 L187 433 L55 433 Z " />
<glyph glyph-name="w" unicode="w" horiz-adv-x="792" d="M427 253 L511 0 L571 0 L843 433 L704 433 L559 183 L474 433 L417 433 L271 183 L188 433 L55 433 L221 0 L281 0 L427 253 Z " />
<glyph glyph-name="x" unicode="x" horiz-adv-x="558" d="M2 0 L163 0 L302 151 L407 0 L556 0 L380 236 L573 433 L414 433 L310 321 L233 433 L86 433 L231 236 L2 0 Z " />
<glyph glyph-name="y" unicode="y" horiz-adv-x="538" d="M21 -229 L159 -229 L589 433 L447 433 L297 187 L193 433 L55 433 L216 65 L21 -229 Z " />
<glyph glyph-name="z" unicode="z" horiz-adv-x="484" d="M525 433 L103 433 L90 329 L298 329 L12 0 L455 0 L468 104 L239 104 L525 433 Z " />
<glyph glyph-name="braceleft" unicode="&#x7b;" horiz-adv-x="502" d="M359 556 C361 576 364 596 377 608 C394 623 426 623 455 623 L473 623 L486 727 C471 728 444 729 422 729 C382 729 323 726 287 690 C258 661 252 621 248 593 L224 404 C222 385 210 354 200 344 C192 336 175 329 160 326 L147 222 C167 219 180 208 186 198 C192 189 194 177 194 162 C194 154 193 144 192 134 L172 -21 C169 -44 166 -63 166 -80 C166 -104 171 -128 191 -147 C222 -178 274 -180 309 -180 C330 -180 358 -179 373 -178 L386 -74 L368 -74 C339 -74 318 -73 304 -65 C292 -58 287 -48 287 -33 C287 -27 288 -22 291 2 L308 139 C310 151 312 167 312 183 C312 198 310 215 303 231 C297 246 285 263 264 274 C280 283 302 300 314 317 C328 337 336 365 340 399 L359 556 Z " />
<glyph glyph-name="bar" unicode="&#x7c;" horiz-adv-x="377" d="M158 -250 L280 -250 L280 750 L158 750 L158 -250 Z " />
<glyph glyph-name="braceright" unicode="&#x7d;" horiz-adv-x="502" d="M202 -13 C201 -25 199 -49 183 -62 C168 -74 139 -74 122 -74 L89 -74 L76 -178 C91 -179 118 -180 141 -180 C181 -180 238 -178 275 -140 C306 -109 311 -67 315 -37 L336 135 C338 155 342 185 361 203 C370 212 386 219 401 222 L414 326 C402 327 390 333 382 340 C370 352 366 369 366 389 C366 436 392 581 392 624 C392 647 387 676 366 697 C335 728 274 729 244 729 C226 729 200 728 185 727 L172 623 L210 623 C227 623 250 622 261 611 C269 604 271 592 271 581 C271 555 249 427 249 364 C249 339 253 320 264 304 C275 287 292 276 296 274 C270 260 252 241 241 221 C227 195 223 164 220 140 L202 -13 Z " />
<glyph glyph-name="asciitilde" unicode="&#x7e;" horiz-adv-x="500" d="M467 370 C458 355 444 338 433 330 C421 321 405 316 386 316 C369 316 350 322 314 336 L281 349 C248 362 225 368 197 368 C151 368 123 351 96 323 C74 300 49 263 32 228 L97 188 C104 202 117 222 130 233 C145 246 160 251 179 251 C196 251 214 246 245 233 L276 220 C297 211 325 199 365 199 C411 199 442 214 475 249 C494 269 517 300 533 330 L467 370 Z " />
<glyph glyph-name="uni00A0" unicode="&#xa0;" horiz-adv-x="233" d="" />
<glyph glyph-name="exclamdown" unicode="&#xa1;" horiz-adv-x="252" d="M101 234 L44 -230 L168 -230 L225 234 L101 234 Z M101 361 C101 345 106 328 120 314 C135 299 152 294 172 294 C195 294 216 300 234 318 C250 333 259 354 259 380 C259 394 256 414 240 430 C229 441 212 450 190 450 C165 450 143 440 127 424 C111 408 101 384 101 361 L101 361 Z " />
<glyph glyph-name="cent" unicode="&#xa2;" horiz-adv-x="568" d="M512 540 C486 554 460 561 433 562 L444 655 L362 655 L351 564 C284 556 237 525 206 494 C163 450 136 388 136 312 C136 258 150 214 181 177 C199 156 235 121 297 110 L285 13 L367 13 L378 108 C407 109 435 117 462 132 L476 251 C443 221 402 213 376 213 C343 213 313 226 294 246 C275 265 264 294 264 325 C264 358 277 398 304 424 C332 452 366 458 394 458 C447 458 479 437 497 420 L512 540 Z " />
<glyph glyph-name="sterling" unicode="&#xa3;" horiz-adv-x="568" d="M182 246 C184 232 185 219 185 208 C185 173 175 152 167 138 C135 133 104 118 76 85 C50 54 38 20 34 8 L126 -9 C136 23 166 36 195 36 C222 36 244 29 267 20 L302 7 C321 0 361 -15 412 -15 C451 -15 485 -6 515 26 C537 50 557 88 567 124 L481 143 C475 130 466 115 456 106 C443 94 429 89 411 89 C375 89 329 111 279 130 C287 149 297 180 297 222 C297 230 297 238 296 246 L416 246 L427 334 L279 334 C262 385 252 410 252 446 C252 487 266 518 286 538 C303 555 331 568 364 568 C390 568 416 560 433 543 C456 521 461 487 461 461 C461 453 461 446 460 440 L593 440 C594 450 594 460 594 470 C594 543 571 593 536 627 C488 673 427 682 377 682 C320 682 243 674 185 614 C148 577 123 520 123 452 C123 397 140 349 146 334 L81 334 L70 246 L182 246 Z " />
<glyph glyph-name="currency" unicode="&#xa4;" horiz-adv-x="667" d="M136 682 L70 616 L173 513 C134 464 128 413 128 374 C128 335 134 284 173 235 L70 132 L136 66 L239 169 C290 130 339 124 380 124 C421 124 470 130 521 169 L624 66 L690 132 L587 235 C626 284 632 335 632 374 C632 413 626 464 587 513 L690 616 L624 682 L521 579 C475 617 425 624 375 624 C337 624 290 619 239 579 L136 682 Z M380 232 C338 232 301 250 278 274 C260 293 240 325 240 374 C240 426 261 458 279 476 C307 503 345 516 380 516 C417 516 454 502 480 477 C500 458 520 426 520 374 C520 326 502 293 482 273 C457 248 418 232 380 232 L380 232 Z " />
<glyph glyph-name="yen" unicode="&#xa5;" horiz-adv-x="568" d="M508 667 L344 433 L238 667 L94 667 L197 454 L109 454 L98 364 L240 364 L268 301 L90 301 L79 211 L257 211 L231 0 L351 0 L377 211 L555 211 L566 301 L388 301 L432 364 L574 364 L585 454 L497 454 L652 667 L508 667 Z " />
<glyph glyph-name="brokenbar" unicode="&#xa6;" horiz-adv-x="377" d="M158 390 L280 390 L280 750 L158 750 L158 390 Z M158 -250 L280 -250 L280 110 L158 110 L158 -250 Z " />
<glyph glyph-name="section" unicode="&#xa7;" horiz-adv-x="567" d="M90 10 C90 -45 110 -98 142 -131 C182 -172 232 -180 277 -180 C323 -180 377 -173 422 -128 C456 -94 472 -51 472 2 C472 23 469 46 457 69 C450 83 436 102 414 116 C447 128 480 150 501 179 C533 222 535 274 535 302 C535 346 525 383 491 418 C482 427 459 450 415 470 L374 489 C351 499 328 509 311 523 C296 535 288 548 288 567 C288 588 298 602 306 610 C318 622 335 629 357 629 C375 629 394 625 408 608 C418 596 425 577 425 553 L425 549 L545 549 L545 553 C545 608 524 656 495 684 C474 704 434 729 360 729 C311 729 263 720 220 677 C195 652 170 613 170 554 C170 524 178 502 193 481 C198 474 213 455 239 439 C205 429 173 410 146 376 C122 345 108 310 108 266 C108 223 121 187 142 160 C167 127 201 109 227 97 L261 81 C295 65 312 56 324 47 C344 31 353 11 353 -6 C353 -23 344 -45 333 -56 C328 -61 312 -76 281 -76 C258 -76 241 -68 229 -51 C217 -35 212 -9 212 10 L90 10 Z M316 193 C292 193 272 201 260 213 C248 224 237 242 237 271 C237 292 242 320 257 338 C271 355 295 367 325 367 C347 367 365 360 379 348 C398 332 405 312 405 287 C405 260 396 236 382 220 C367 204 343 193 316 193 L316 193 Z " />
<glyph glyph-name="dieresis" unicode="&#xa8;" horiz-adv-x="500" d="M354 578 C354 561 361 543 373 531 C383 521 398 514 417 514 C438 514 459 521 476 540 C489 554 498 572 498 594 C498 614 491 628 482 638 C472 649 457 658 436 658 C419 658 397 653 378 634 C360 616 354 595 354 578 L354 578 Z M146 578 C146 561 153 543 165 531 C175 521 190 514 209 514 C230 514 251 521 268 540 C281 554 290 572 290 594 C290 614 283 628 274 638 C264 649 249 658 228 658 C211 658 189 653 170 634 C152 616 146 595 146 578 L146 578 Z " />
<glyph glyph-name="copyright" unicode="&#xa9;" horiz-adv-x="760" d="M552 516 C524 531 488 542 440 542 C377 542 324 524 282 482 C251 451 223 399 223 326 C223 256 252 211 278 184 C326 135 383 124 433 124 C471 124 511 128 552 149 L552 258 C540 245 525 231 513 224 C495 213 471 206 445 206 C402 206 372 220 352 242 C332 264 319 295 319 330 C319 366 333 405 359 429 C379 448 409 460 446 460 C471 460 493 453 512 441 C525 433 541 418 552 407 L552 516 Z M768 333 C768 452 716 534 665 584 C602 645 516 682 421 682 C326 682 240 645 177 584 C125 534 74 452 74 334 C74 215 126 133 177 83 C240 22 326 -15 421 -15 C516 -15 602 22 665 83 C717 133 768 215 768 333 L768 333 Z M421 620 C513 620 574 578 608 546 C659 497 698 421 698 334 C698 260 669 179 608 121 C574 89 513 47 421 47 C329 47 268 89 234 121 C173 179 144 260 144 334 C144 421 183 497 234 546 C268 578 329 620 421 620 L421 620 Z " />
<glyph glyph-name="ordfeminine" unicode="&#xaa;" horiz-adv-x="343" d="M314 625 C308 637 298 650 280 658 C264 666 247 667 234 667 C198 667 161 654 131 624 C105 597 85 556 85 509 C85 473 97 441 119 419 C141 396 168 386 203 386 C221 386 238 388 257 399 C272 407 282 418 290 430 L285 395 L359 395 L392 659 L318 659 L314 625 Z M239 600 C268 600 284 588 292 580 C301 571 310 556 310 532 C310 503 296 483 283 472 C266 458 248 453 229 453 C216 453 195 456 180 472 C169 484 162 501 162 519 C162 542 171 565 186 579 C199 592 216 600 239 600 L239 600 Z M70 291 L347 291 L354 347 L77 347 L70 291 Z " />
<glyph glyph-name="guillemotleft" unicode="&#xab;" horiz-adv-x="514" d="M173 217 L315 381 L251 433 L67 219 L199 5 L275 55 L173 217 Z M369 217 L511 381 L447 433 L263 219 L395 5 L471 55 L369 217 Z " />
<glyph glyph-name="logicalnot" unicode="&#xac;" horiz-adv-x="500" d="M486 0 L486 269 L52 269 L52 157 L364 157 L364 0 L486 0 Z " />
<glyph glyph-name="uni00AD" unicode="&#xad;" horiz-adv-x="360" d="M71 174 L331 174 L345 286 L85 286 L71 174 Z " />
<glyph glyph-name="registered" unicode="&#xae;" horiz-adv-x="760" d="M421 682 C333 682 247 652 181 589 C118 530 74 443 74 334 C74 244 104 154 172 86 C240 17 331 -15 421 -15 C543 -15 625 38 674 90 C730 149 768 228 768 332 C768 423 740 509 666 583 C584 664 490 682 421 682 L421 682 Z M421 620 C484 620 553 600 612 541 C649 504 698 435 698 331 C698 225 645 158 612 126 C562 77 494 47 421 47 C345 47 272 81 226 127 C180 173 144 249 144 335 C144 431 187 498 229 540 C285 597 350 620 421 620 L421 620 Z M304 527 L304 153 L380 153 L380 296 L491 153 L580 153 L459 309 C485 313 508 324 523 340 C544 362 549 390 549 412 C549 451 535 479 519 495 C489 525 449 527 422 527 L304 527 Z M380 461 L413 461 C423 461 443 461 456 449 C463 443 470 431 470 411 C470 400 468 385 456 373 C450 367 436 358 410 358 L380 358 L380 461 Z " />
<glyph glyph-name="macron" unicode="&#xaf;" horiz-adv-x="500" d="M136 539 L500 539 L510 619 L146 619 L136 539 Z " />
<glyph glyph-name="degree" unicode="&#xb0;" horiz-adv-x="503" d="M314 363 C400 363 469 432 469 516 C469 599 400 667 314 667 C229 667 160 599 160 516 C160 432 229 363 314 363 L314 363 Z M314 591 C357 591 391 557 391 515 C391 474 357 440 314 440 C272 440 238 474 238 516 C238 557 272 591 314 591 L314 591 Z " />
<glyph glyph-name="plusminus" unicode="&#xb1;" horiz-adv-x="500" d="M65 355 L221 355 L221 199 L343 199 L343 355 L499 355 L499 467 L343 467 L343 623 L221 623 L221 467 L65 467 L65 355 Z M65 52 L499 52 L499 164 L65 164 L65 52 Z " />
<glyph glyph-name="twosuperior" unicode="&#xb2;" horiz-adv-x="380" d="M57 267 L357 267 L366 339 L230 339 L300 404 C317 420 351 456 362 472 C380 498 390 525 390 557 C390 591 378 617 358 637 C337 658 301 676 252 676 C199 676 164 656 142 632 C122 611 106 579 101 542 L185 542 C186 559 193 575 203 586 C215 600 230 604 248 604 C269 604 282 598 289 592 C299 584 306 569 306 552 C306 535 299 514 281 491 C272 480 260 468 221 429 L57 267 Z " />
<glyph glyph-name="threesuperior" unicode="&#xb3;" horiz-adv-x="380" d="M192 558 C194 571 200 586 209 595 C220 606 232 610 248 610 C262 610 278 606 287 597 C295 590 300 577 300 564 C300 548 293 531 280 522 C266 512 245 511 228 511 L219 511 L211 445 L223 445 C247 445 261 441 270 435 C287 424 291 407 291 393 C291 375 286 361 273 348 C259 335 243 330 225 330 C209 330 190 334 178 345 C167 355 161 373 160 387 L76 387 C76 337 102 307 112 297 C144 265 187 258 222 258 C257 258 305 264 339 299 C355 316 374 345 374 392 C374 409 371 432 355 452 C346 463 333 472 320 478 C338 483 353 494 363 506 C378 524 383 546 383 567 C383 598 373 621 356 640 C328 670 291 676 256 676 C225 676 186 671 155 640 C133 618 119 586 114 558 L192 558 Z " />
<glyph glyph-name="acute" unicode="&#xb4;" horiz-adv-x="500" d="M404 700 L268 550 L319 510 L485 644 L404 700 Z " />
<glyph glyph-name="&amp;#xb5;" unicode="&#xb5;" horiz-adv-x="560" d="M152 -230 L188 66 C189 62 196 33 217 12 C231 -2 252 -14 282 -14 C309 -14 329 -7 344 4 C360 15 376 35 386 54 L380 0 L502 0 L555 433 L433 433 L408 233 C402 181 396 141 368 112 C348 91 324 84 296 84 C260 84 240 99 229 112 C218 125 206 147 206 186 C206 205 210 239 211 247 L233 433 L111 433 L30 -230 L152 -230 Z " />
<glyph glyph-name="&amp;#x3bc;" unicode="&#x3bc;" horiz-adv-x="560" d="M152 -230 L188 66 C189 62 196 33 217 12 C231 -2 252 -14 282 -14 C309 -14 329 -7 344 4 C360 15 376 35 386 54 L380 0 L502 0 L555 433 L433 433 L408 233 C402 181 396 141 368 112 C348 91 324 84 296 84 C260 84 240 99 229 112 C218 125 206 147 206 186 C206 205 210 239 211 247 L233 433 L111 433 L30 -230 L152 -230 Z " />
<glyph glyph-name="paragraph" unicode="&#xb6;" horiz-adv-x="656" d="M313 -93 L394 573 L480 573 L399 -93 L503 -93 L584 573 L654 573 L666 667 L333 667 C247 667 181 658 133 607 C106 578 86 536 86 473 C86 437 94 390 133 358 C164 332 215 320 252 320 L259 320 L209 -93 L313 -93 Z " />
<glyph glyph-name="periodcentered" unicode="&#xb7;" horiz-adv-x="202" d="M43 325 C43 302 52 282 65 268 C84 248 109 245 127 245 C155 245 179 252 200 274 C220 295 229 322 229 349 C229 366 225 388 207 406 C193 420 172 429 147 429 C122 429 95 419 74 398 C54 378 43 352 43 325 L43 325 Z " />
<glyph glyph-name="cedilla" unicode="&#xb8;" horiz-adv-x="500" d="M260 -46 L142 -200 L206 -236 L348 -90 L260 -46 Z " />
<glyph glyph-name="onesuperior" unicode="&#xb9;" horiz-adv-x="380" d="M199 267 L283 267 L332 667 L168 667 L159 595 L239 595 L199 267 Z " />
<glyph glyph-name="ordmasculine" unicode="&#xba;" horiz-adv-x="333" d="M221 386 C264 386 302 396 335 428 C366 458 377 493 377 533 C377 570 368 599 342 626 C308 660 268 667 237 667 C194 667 155 657 122 623 C98 598 80 564 80 518 C80 472 98 441 118 422 C151 390 195 386 221 386 L221 386 Z M232 600 C248 600 265 597 279 584 C290 575 301 558 301 531 C301 509 294 491 282 477 C264 456 241 453 222 453 C204 453 187 457 173 473 C161 486 156 502 156 521 C156 542 163 563 176 578 C193 596 214 600 232 600 L232 600 Z M72 347 L66 291 L340 291 L346 347 L72 347 Z " />
<glyph glyph-name="guillemotright" unicode="&#xbb;" horiz-adv-x="514" d="M199 221 L57 57 L121 5 L305 219 L173 433 L97 383 L199 221 Z M395 221 L253 57 L317 5 L501 219 L369 433 L293 383 L395 221 Z " />
<glyph glyph-name="onequarter" unicode="&#xbc;" horiz-adv-x="862" d="M199 267 L283 267 L332 667 L168 667 L159 595 L239 595 L199 267 Z M226 3 L276 -28 L757 659 L708 689 L226 3 Z M833 400 L753 400 L519 111 L514 76 L713 76 L704 0 L784 0 L793 76 L840 76 L849 144 L802 144 L833 400 Z M627 144 L739 289 L722 144 L627 144 Z " />
<glyph glyph-name="onehalf" unicode="&#xbd;" horiz-adv-x="861" d="M199 267 L283 267 L332 667 L168 667 L159 595 L239 595 L199 267 Z M186 3 L236 -28 L717 659 L668 689 L186 3 Z M504 0 L804 0 L813 72 L677 72 L747 137 C764 153 798 189 809 205 C827 231 837 258 837 290 C837 324 825 350 805 370 C784 391 748 409 699 409 C646 409 611 389 589 365 C569 344 553 312 548 275 L632 275 C633 292 640 308 650 319 C662 333 677 337 695 337 C716 337 729 331 736 325 C746 317 753 302 753 285 C753 268 746 247 728 224 C719 213 707 201 668 162 L504 0 Z " />
<glyph glyph-name="threequarters" unicode="&#xbe;" horiz-adv-x="860" d="M192 558 C194 571 200 586 209 595 C220 606 232 610 248 610 C262 610 278 606 287 597 C295 590 300 577 300 564 C300 548 293 531 280 522 C266 512 245 511 228 511 L219 511 L211 445 L223 445 C247 445 261 441 270 435 C287 424 291 407 291 393 C291 375 286 361 273 348 C259 335 243 330 225 330 C209 330 190 334 178 345 C167 355 161 373 160 387 L76 387 C76 337 102 307 112 297 C144 265 187 258 222 258 C257 258 305 264 339 299 C355 315 374 345 374 393 C374 409 371 432 355 452 C346 463 333 472 320 478 C338 483 353 494 363 506 C378 524 383 546 383 567 C383 598 373 621 356 640 C328 670 291 676 256 676 C225 676 186 671 155 640 C133 618 119 586 114 558 L192 558 Z M236 3 L286 -28 L767 659 L718 689 L236 3 Z M625 144 L737 289 L720 144 L625 144 Z M831 400 L751 400 L517 111 L512 76 L711 76 L702 0 L782 0 L791 76 L838 76 L847 144 L800 144 L831 400 Z " />
<glyph glyph-name="questiondown" unicode="&#xbf;" horiz-adv-x="492" d="M246 237 L233 132 C150 131 103 85 94 75 C63 43 43 -8 43 -64 C43 -127 68 -167 96 -193 C143 -237 200 -242 242 -242 C290 -242 353 -233 398 -184 C431 -148 449 -94 452 -51 L322 -51 C322 -70 318 -92 307 -107 C299 -118 282 -134 247 -134 C224 -134 207 -127 195 -116 C185 -107 174 -89 174 -61 C174 -25 191 -1 206 13 C237 41 275 45 302 45 C318 45 332 44 346 41 L370 237 L246 237 Z M246 361 C246 345 251 328 265 314 C280 299 297 294 317 294 C340 294 361 300 379 318 C395 333 404 354 404 380 C404 394 401 414 385 430 C374 441 357 450 335 450 C310 450 288 440 272 424 C256 408 246 384 246 361 L246 361 Z " />
<glyph glyph-name="Agrave" unicode="&#xc0;" horiz-adv-x="672" d="M533 0 L670 0 L473 667 L375 667 L2 0 L146 0 L222 140 L491 140 L533 0 Z M276 246 L402 486 L466 246 L276 246 Z M449 728 L512 778 L389 920 L290 850 L449 728 Z " />
<glyph glyph-name="Aacute" unicode="&#xc1;" horiz-adv-x="672" d="M533 0 L670 0 L473 667 L375 667 L2 0 L146 0 L222 140 L491 140 L533 0 Z M276 246 L402 486 L466 246 L276 246 Z M401 728 L590 850 L509 920 L352 778 L401 728 Z " />
<glyph glyph-name="Acircumflex" unicode="&#xc2;" horiz-adv-x="672" d="M533 0 L670 0 L473 667 L375 667 L2 0 L146 0 L222 140 L491 140 L533 0 Z M276 246 L402 486 L466 246 L276 246 Z M439 820 L548 732 L614 796 L450 930 L254 796 L308 732 L439 820 Z " />
<glyph glyph-name="Atilde" unicode="&#xc3;" horiz-adv-x="672" d="M533 0 L670 0 L473 667 L375 667 L2 0 L146 0 L222 140 L491 140 L533 0 Z M276 246 L402 486 L466 246 L276 246 Z M573 869 C568 860 560 849 554 843 C542 832 529 829 520 829 C505 829 489 835 470 843 L432 859 C414 867 390 878 364 878 C327 878 299 859 282 844 C277 840 255 820 235 789 L299 741 C301 745 308 755 318 765 C332 778 345 781 355 781 C371 781 385 773 405 765 L438 751 C462 741 490 732 512 732 C530 732 556 738 582 760 C598 774 621 801 635 821 L573 869 Z " />
<glyph glyph-name="Adieresis" unicode="&#xc4;" horiz-adv-x="672" d="M533 0 L670 0 L473 667 L375 667 L2 0 L146 0 L222 140 L491 140 L533 0 Z M276 246 L402 486 L466 246 L276 246 Z M470 800 C470 781 477 767 487 757 C495 749 511 739 535 739 C558 739 576 748 590 762 C607 779 614 801 614 820 C614 838 607 854 596 865 C585 876 569 883 550 883 C531 883 508 875 493 859 C478 844 470 822 470 800 L470 800 Z M246 800 C246 781 253 767 263 757 C271 749 287 739 311 739 C334 739 352 748 366 762 C383 779 390 801 390 820 C390 838 383 854 372 865 C361 876 345 883 326 883 C307 883 284 875 269 859 C254 844 246 822 246 800 L246 800 Z " />
<glyph glyph-name="Aring" unicode="&#xc5;" horiz-adv-x="672" d="M533 0 L670 0 L473 667 L375 667 L2 0 L146 0 L222 140 L491 140 L533 0 Z M276 246 L402 486 L466 246 L276 246 Z M337 808 C337 784 347 762 362 747 C377 731 399 722 428 722 C459 722 484 734 504 753 C531 780 537 809 537 830 C537 863 523 884 512 895 C498 909 477 920 448 920 C419 920 392 910 369 886 C348 864 337 835 337 808 L337 808 Z M397 815 C397 826 401 839 411 848 C421 858 433 861 442 861 C452 861 462 857 467 852 C473 846 477 836 477 828 C477 816 472 803 465 795 C458 787 446 781 433 781 C423 781 411 786 405 793 C400 798 397 807 397 815 L397 815 Z " />
<glyph glyph-name="AE" unicode="&#xc6;" horiz-adv-x="920" d="M533 0 L914 0 L884 112 L638 112 L587 294 L829 294 L797 406 L556 406 L514 555 L759 555 L729 667 L377 667 L6 0 L146 0 L222 140 L491 140 L533 0 Z M276 246 L404 486 L466 246 L276 246 Z " />
<glyph glyph-name="Ccedilla" unicode="&#xc7;" horiz-adv-x="607" d="M585 176 C568 153 521 102 420 102 C363 102 314 120 276 160 C248 190 220 237 220 310 C220 377 243 448 287 495 C319 529 370 564 454 564 C496 564 568 556 624 491 L642 641 C570 678 509 682 466 682 C387 682 279 667 192 580 C131 518 85 417 85 291 C85 211 108 130 174 67 C209 33 280 -15 401 -15 C486 -15 539 10 566 24 L585 176 Z M374 -46 L250 -208 L320 -244 L470 -90 L374 -46 Z " />
<glyph glyph-name="Egrave" unicode="&#xc8;" horiz-adv-x="496" d="M528 667 L158 667 L76 0 L206 0 L446 0 L460 112 L220 112 L242 294 L472 294 L486 406 L256 406 L274 555 L514 555 L528 667 Z M378 728 L441 778 L318 920 L219 850 L378 728 Z " />
<glyph glyph-name="Eacute" unicode="&#xc9;" horiz-adv-x="496" d="M528 667 L158 667 L76 0 L206 0 L446 0 L460 112 L220 112 L242 294 L472 294 L486 406 L256 406 L274 555 L514 555 L528 667 Z M335 728 L524 850 L443 920 L286 778 L335 728 Z " />
<glyph glyph-name="Ecircumflex" unicode="&#xca;" horiz-adv-x="496" d="M528 667 L158 667 L76 0 L206 0 L446 0 L460 112 L220 112 L242 294 L472 294 L486 406 L256 406 L274 555 L514 555 L528 667 Z M363 820 L472 732 L538 796 L374 930 L178 796 L232 732 L363 820 Z " />
<glyph glyph-name="Edieresis" unicode="&#xcb;" horiz-adv-x="496" d="M528 667 L158 667 L76 0 L206 0 L446 0 L460 112 L220 112 L242 294 L472 294 L486 406 L256 406 L274 555 L514 555 L528 667 Z M400 800 C400 781 407 767 417 757 C425 749 441 739 465 739 C488 739 506 748 520 762 C537 779 544 801 544 820 C544 838 537 854 526 865 C515 876 499 883 480 883 C461 883 438 875 423 859 C408 844 400 822 400 800 L400 800 Z M176 800 C176 781 183 767 193 757 C201 749 217 739 241 739 C264 739 282 748 296 762 C313 779 320 801 320 820 C320 838 313 854 302 865 C291 876 275 883 256 883 C237 883 214 875 199 859 C184 844 176 822 176 800 L176 800 Z " />
<glyph glyph-name="Igrave" unicode="&#xcc;" horiz-adv-x="282" d="M158 667 L76 0 L206 0 L288 667 L158 667 Z M247 728 L307 776 L188 910 L93 842 L247 728 Z " />
<glyph glyph-name="Iacute" unicode="&#xcd;" horiz-adv-x="282" d="M158 667 L76 0 L206 0 L288 667 L158 667 Z M318 910 L165 776 L213 728 L395 842 L318 910 Z " />
<glyph glyph-name="Icircumflex" unicode="&#xce;" horiz-adv-x="282" d="M158 667 L76 0 L206 0 L288 667 L158 667 Z M242 822 L324 742 L385 796 L254 920 L93 796 L140 742 L242 822 Z " />
<glyph glyph-name="Idieresis" unicode="&#xcf;" horiz-adv-x="282" d="M158 667 L76 0 L206 0 L288 667 L158 667 Z M255 798 C255 782 260 768 272 755 C280 746 291 739 306 739 C321 739 336 746 348 758 C365 775 373 799 373 821 C373 835 369 851 360 863 C349 879 334 883 323 883 C308 883 293 876 282 865 C264 847 255 820 255 798 L255 798 Z M105 798 C105 782 110 768 122 755 C130 746 141 739 156 739 C171 739 186 746 198 758 C215 775 223 799 223 821 C223 835 219 851 210 863 C199 879 184 883 173 883 C158 883 143 876 132 865 C114 847 105 820 105 798 L105 798 Z " />
<glyph glyph-name="Eth" unicode="&#xd0;" horiz-adv-x="673" d="M332 667 L158 667 L127 416 L41 416 L29 316 L115 316 L76 0 L206 0 L256 0 C396 0 497 27 572 101 C603 131 670 208 670 364 C670 463 634 537 587 582 C504 662 383 667 332 667 L332 667 Z M274 555 L314 555 C349 555 424 551 478 503 C528 458 536 398 536 361 C536 299 517 230 475 184 C425 129 352 112 264 112 L220 112 L245 316 L367 316 L379 416 L257 416 L274 555 Z " />
<glyph glyph-name="Ntilde" unicode="&#xd1;" horiz-adv-x="778" d="M206 0 L261 447 L610 0 L702 0 L784 667 L654 667 L599 222 L250 667 L158 667 L76 0 L206 0 Z M627 869 C622 860 614 849 608 843 C596 832 583 829 574 829 C559 829 543 835 524 843 L486 859 C468 867 444 878 418 878 C381 878 353 859 336 844 C331 840 309 820 289 789 L353 741 C355 745 362 755 372 765 C386 778 399 781 409 781 C425 781 439 773 459 765 L492 751 C516 741 544 732 566 732 C584 732 610 738 636 760 C652 774 675 801 689 821 L627 869 Z " />
<glyph glyph-name="Ograve" unicode="&#xd2;" horiz-adv-x="806" d="M484 682 C374 682 270 643 200 577 C131 512 85 409 85 299 C85 215 118 134 173 78 C212 38 287 -15 418 -15 C553 -15 643 39 696 94 C763 163 803 268 803 374 C803 473 765 548 715 596 C662 647 579 682 484 682 L484 682 Z M425 103 C363 103 309 126 273 164 C247 191 220 238 220 309 C220 381 246 451 297 499 C335 535 391 563 463 563 C536 563 586 535 615 505 C646 473 668 424 668 364 C668 289 637 216 589 169 C549 130 492 103 425 103 L425 103 Z M513 728 L576 778 L453 920 L354 850 L513 728 Z " />
<glyph glyph-name="Oacute" unicode="&#xd3;" horiz-adv-x="806" d="M484 682 C374 682 270 643 200 577 C131 512 85 409 85 299 C85 215 118 134 173 78 C212 38 287 -15 418 -15 C553 -15 643 39 696 94 C763 163 803 268 803 374 C803 473 765 548 715 596 C662 647 579 682 484 682 L484 682 Z M425 103 C363 103 309 126 273 164 C247 191 220 238 220 309 C220 381 246 451 297 499 C335 535 391 563 463 563 C536 563 586 535 615 505 C646 473 668 424 668 364 C668 289 637 216 589 169 C549 130 492 103 425 103 L425 103 Z M465 728 L654 850 L573 920 L416 778 L465 728 Z " />
<glyph glyph-name="Ocircumflex" unicode="&#xd4;" horiz-adv-x="806" d="M484 682 C374 682 270 643 200 577 C131 512 85 409 85 299 C85 215 118 134 173 78 C212 38 287 -15 418 -15 C553 -15 643 39 696 94 C763 163 803 268 803 374 C803 473 765 548 715 596 C662 647 579 682 484 682 L484 682 Z M425 103 C363 103 309 126 273 164 C247 191 220 238 220 309 C220 381 246 451 297 499 C335 535 391 563 463 563 C536 563 586 535 615 505 C646 473 668 424 668 364 C668 289 637 216 589 169 C549 130 492 103 425 103 L425 103 Z M503 820 L612 732 L678 796 L514 930 L318 796 L372 732 L503 820 Z " />
<glyph glyph-name="Otilde" unicode="&#xd5;" horiz-adv-x="806" d="M484 682 C374 682 270 643 200 577 C131 512 85 409 85 299 C85 215 118 134 173 78 C212 38 287 -15 418 -15 C553 -15 643 39 696 94 C763 163 803 268 803 374 C803 473 765 548 715 596 C662 647 579 682 484 682 L484 682 Z M425 103 C363 103 309 126 273 164 C247 191 220 238 220 309 C220 381 246 451 297 499 C335 535 391 563 463 563 C536 563 586 535 615 505 C646 473 668 424 668 364 C668 289 637 216 589 169 C549 130 492 103 425 103 L425 103 Z M617 869 C612 860 604 849 598 843 C586 832 573 829 564 829 C549 829 533 835 514 843 L476 859 C458 867 434 878 408 878 C371 878 343 859 326 844 C321 840 299 820 279 789 L343 741 C345 745 352 755 362 765 C376 778 389 781 399 781 C415 781 429 773 449 765 L482 751 C506 741 534 732 556 732 C574 732 600 738 626 760 C642 774 665 801 679 821 L617 869 Z " />
<glyph glyph-name="Odieresis" unicode="&#xd6;" horiz-adv-x="806" d="M484 682 C374 682 270 643 200 577 C131 512 85 409 85 299 C85 215 118 134 173 78 C212 38 287 -15 418 -15 C553 -15 643 39 696 94 C763 163 803 268 803 374 C803 473 765 548 715 596 C662 647 579 682 484 682 L484 682 Z M425 103 C363 103 309 126 273 164 C247 191 220 238 220 309 C220 381 246 451 297 499 C335 535 391 563 463 563 C536 563 586 535 615 505 C646 473 668 424 668 364 C668 289 637 216 589 169 C549 130 492 103 425 103 L425 103 Z M520 800 C520 781 527 767 537 757 C545 749 561 739 585 739 C608 739 626 748 640 762 C657 779 664 801 664 820 C664 838 657 854 646 865 C635 876 619 883 600 883 C581 883 558 875 543 859 C528 844 520 822 520 800 L520 800 Z M296 800 C296 781 303 767 313 757 C321 749 337 739 361 739 C384 739 402 748 416 762 C433 779 440 801 440 820 C440 838 433 854 422 865 C411 876 395 883 376 883 C357 883 334 875 319 859 C304 844 296 822 296 800 L296 800 Z " />
<glyph glyph-name="multiply" unicode="&#xd7;" horiz-adv-x="500" d="M84 215 L166 133 L290 257 L414 133 L496 215 L372 339 L496 463 L414 545 L290 421 L166 545 L84 463 L208 339 L84 215 Z " />
<glyph glyph-name="Oslash" unicode="&#xd8;" horiz-adv-x="840" d="M45 31 L109 -42 L216 53 C283 3 349 -15 432 -15 C568 -15 656 38 710 94 C777 163 817 268 817 371 C817 441 798 496 770 545 L871 635 L807 708 L704 617 C641 661 574 682 488 682 C350 682 262 622 214 577 C152 518 99 429 99 304 C99 237 114 180 150 125 L45 31 Z M664 451 C677 421 682 393 682 364 C682 289 652 216 603 169 C564 131 505 103 439 103 C403 103 358 113 314 140 L664 451 Z M253 216 C240 244 234 272 234 309 C234 407 279 468 311 499 C345 531 398 563 477 563 C530 563 569 548 603 527 L253 216 Z " />
<glyph glyph-name="Ugrave" unicode="&#xd9;" horiz-adv-x="686" d="M156 667 L114 319 C111 297 105 233 105 206 C105 152 116 97 160 52 C216 -5 296 -15 358 -15 C415 -15 502 -9 565 55 C624 115 634 198 644 276 L692 667 L562 667 L515 290 C507 225 501 167 453 131 C430 114 397 103 359 103 C327 103 291 113 268 134 C249 152 234 185 234 224 C234 237 239 278 241 298 L286 667 L156 667 Z M457 728 L520 778 L397 920 L298 850 L457 728 Z " />
<glyph glyph-name="Uacute" unicode="&#xda;" horiz-adv-x="686" d="M156 667 L114 319 C111 297 105 233 105 206 C105 152 116 97 160 52 C216 -5 296 -15 358 -15 C415 -15 502 -9 565 55 C624 115 634 198 644 276 L692 667 L562 667 L515 290 C507 225 501 167 453 131 C430 114 397 103 359 103 C327 103 291 113 268 134 C249 152 234 185 234 224 C234 237 239 278 241 298 L286 667 L156 667 Z M409 728 L598 850 L517 920 L360 778 L409 728 Z " />
<glyph glyph-name="Ucircumflex" unicode="&#xdb;" horiz-adv-x="686" d="M156 667 L114 319 C111 297 105 233 105 206 C105 152 116 97 160 52 C216 -5 296 -15 358 -15 C415 -15 502 -9 565 55 C624 115 634 198 644 276 L692 667 L562 667 L515 290 C507 225 501 167 453 131 C430 114 397 103 359 103 C327 103 291 113 268 134 C249 152 234 185 234 224 C234 237 239 278 241 298 L286 667 L156 667 Z M443 820 L552 732 L618 796 L454 930 L258 796 L312 732 L443 820 Z " />
<glyph glyph-name="Udieresis" unicode="&#xdc;" horiz-adv-x="686" d="M156 667 L114 319 C111 297 105 233 105 206 C105 152 116 97 160 52 C216 -5 296 -15 358 -15 C415 -15 502 -9 565 55 C624 115 634 198 644 276 L692 667 L562 667 L515 290 C507 225 501 167 453 131 C430 114 397 103 359 103 C327 103 291 113 268 134 C249 152 234 185 234 224 C234 237 239 278 241 298 L286 667 L156 667 Z M480 800 C480 781 487 767 497 757 C505 749 521 739 545 739 C568 739 586 748 600 762 C617 779 624 801 624 820 C624 838 617 854 606 865 C595 876 579 883 560 883 C541 883 518 875 503 859 C488 844 480 822 480 800 L480 800 Z M256 800 C256 781 263 767 273 757 C281 749 297 739 321 739 C344 739 362 748 376 762 C393 779 400 801 400 820 C400 838 393 854 382 865 C371 876 355 883 336 883 C317 883 294 875 279 859 C264 844 256 822 256 800 L256 800 Z " />
<glyph glyph-name="Yacute" unicode="&#xdd;" horiz-adv-x="590" d="M227 0 L357 0 L394 305 L674 667 L514 667 L342 435 L228 667 L80 667 L264 305 L227 0 Z M360 728 L549 850 L468 920 L311 778 L360 728 Z " />
<glyph glyph-name="Thorn" unicode="&#xde;" horiz-adv-x="534" d="M158 667 L76 0 L206 0 L225 157 L311 157 C408 157 465 184 498 215 C529 244 559 294 559 376 C559 405 556 459 528 500 C488 560 413 577 337 577 L277 577 L288 667 L158 667 Z M263 465 L309 465 C322 465 363 464 390 447 C422 427 426 397 426 375 C426 352 421 321 394 297 C364 271 325 269 294 269 L239 269 L263 465 Z " />
<glyph glyph-name="germandbls" unicode="&#xdf;" horiz-adv-x="570" d="M180 0 L241 505 C245 537 253 583 279 608 C295 623 318 633 346 633 C374 633 393 624 405 613 C421 599 429 577 429 554 C429 529 418 503 400 486 C379 466 346 455 313 456 L300 352 L305 352 C327 352 373 349 404 319 C418 305 432 281 432 243 C432 200 414 163 391 139 C364 112 320 93 270 94 L256 -14 L265 -14 C346 -14 425 2 487 62 C535 108 561 165 561 240 C561 281 553 321 526 355 C508 379 480 400 448 413 C487 428 510 453 524 474 C541 499 550 528 550 564 C550 619 532 659 502 688 C468 721 419 741 351 741 C305 741 241 732 190 681 C139 629 128 561 121 506 L58 0 L180 0 Z " />
<glyph glyph-name="agrave" unicode="&#xe0;" horiz-adv-x="572" d="M438 377 C426 397 411 413 387 426 C359 441 332 447 301 447 C221 447 165 415 130 379 C89 336 63 272 63 194 C63 136 79 83 121 41 C162 0 211 -14 263 -14 C293 -14 318 -8 344 7 C352 12 377 27 399 56 L392 0 L514 0 L567 433 L445 433 L438 377 Z M318 339 C362 339 388 321 402 306 C420 287 432 260 432 229 C432 192 418 151 389 125 C360 99 327 94 303 94 C267 94 241 105 223 122 C204 140 190 170 190 208 C190 244 205 282 233 308 C258 330 287 339 318 339 L318 339 Z M352 510 L413 550 L313 700 L218 644 L352 510 Z " />
<glyph glyph-name="aacute" unicode="&#xe1;" horiz-adv-x="572" d="M438 377 C426 397 411 413 387 426 C359 441 332 447 301 447 C221 447 165 415 130 379 C89 336 63 272 63 194 C63 136 79 83 121 41 C162 0 211 -14 263 -14 C293 -14 318 -8 344 7 C352 12 377 27 399 56 L392 0 L514 0 L567 433 L445 433 L438 377 Z M318 339 C362 339 388 321 402 306 C420 287 432 260 432 229 C432 192 418 151 389 125 C360 99 327 94 303 94 C267 94 241 105 223 122 C204 140 190 170 190 208 C190 244 205 282 233 308 C258 330 287 339 318 339 L318 339 Z M429 700 L293 550 L344 510 L510 644 L429 700 Z " />
<glyph glyph-name="acircumflex" unicode="&#xe2;" horiz-adv-x="572" d="M438 377 C426 397 411 413 387 426 C359 441 332 447 301 447 C221 447 165 415 130 379 C89 336 63 272 63 194 C63 136 79 83 121 41 C162 0 211 -14 263 -14 C293 -14 318 -8 344 7 C352 12 377 27 399 56 L392 0 L514 0 L567 433 L445 433 L438 377 Z M318 339 C362 339 388 321 402 306 C420 287 432 260 432 229 C432 192 418 151 389 125 C360 99 327 94 303 94 C267 94 241 105 223 122 C204 140 190 170 190 208 C190 244 205 282 233 308 C258 330 287 339 318 339 L318 339 Z M351 602 L450 510 L515 570 L362 708 L175 570 L230 510 L351 602 Z " />
<glyph glyph-name="atilde" unicode="&#xe3;" horiz-adv-x="572" d="M438 377 C426 397 411 413 387 426 C359 441 332 447 301 447 C221 447 165 415 130 379 C89 336 63 272 63 194 C63 136 79 83 121 41 C162 0 211 -14 263 -14 C293 -14 318 -8 344 7 C352 12 377 27 399 56 L392 0 L514 0 L567 433 L445 433 L438 377 Z M318 339 C362 339 388 321 402 306 C420 287 432 260 432 229 C432 192 418 151 389 125 C360 99 327 94 303 94 C267 94 241 105 223 122 C204 140 190 170 190 208 C190 244 205 282 233 308 C258 330 287 339 318 339 L318 339 Z M487 647 C475 621 456 606 437 606 C425 606 410 611 385 622 L349 637 C330 645 312 652 286 652 C251 652 225 641 203 621 C188 607 171 586 162 571 L217 523 C228 540 251 564 277 564 C290 564 310 557 326 550 L358 536 C377 527 400 518 428 518 C455 518 477 527 497 545 C512 558 530 582 541 599 L487 647 Z " />
<glyph glyph-name="adieresis" unicode="&#xe4;" horiz-adv-x="572" d="M438 377 C426 397 411 413 387 426 C359 441 332 447 301 447 C221 447 165 415 130 379 C89 336 63 272 63 194 C63 136 79 83 121 41 C162 0 211 -14 263 -14 C293 -14 318 -8 344 7 C352 12 377 27 399 56 L392 0 L514 0 L567 433 L445 433 L438 377 Z M318 339 C362 339 388 321 402 306 C420 287 432 260 432 229 C432 192 418 151 389 125 C360 99 327 94 303 94 C267 94 241 105 223 122 C204 140 190 170 190 208 C190 244 205 282 233 308 C258 330 287 339 318 339 L318 339 Z M394 578 C394 561 401 543 413 531 C423 521 438 514 457 514 C478 514 499 521 516 540 C529 554 538 572 538 594 C538 614 531 628 522 638 C512 649 497 658 476 658 C459 658 437 653 418 634 C400 616 394 595 394 578 L394 578 Z M186 578 C186 561 193 543 205 531 C215 521 230 514 249 514 C270 514 291 521 308 540 C321 554 330 572 330 594 C330 614 323 628 314 638 C304 649 289 658 268 658 C251 658 229 653 210 634 C192 616 186 595 186 578 L186 578 Z " />
<glyph glyph-name="aring" unicode="&#xe5;" horiz-adv-x="572" d="M438 377 C426 397 411 413 387 426 C359 441 332 447 301 447 C221 447 165 415 130 379 C89 336 63 272 63 194 C63 136 79 83 121 41 C162 0 211 -14 263 -14 C293 -14 318 -8 344 7 C352 12 377 27 399 56 L392 0 L514 0 L567 433 L445 433 L438 377 Z M318 339 C362 339 388 321 402 306 C420 287 432 260 432 229 C432 192 418 151 389 125 C360 99 327 94 303 94 C267 94 241 105 223 122 C204 140 190 170 190 208 C190 244 205 282 233 308 C258 330 287 339 318 339 L318 339 Z M239 589 C239 567 246 548 263 531 C280 514 301 506 329 506 C359 506 380 515 398 533 C419 554 428 578 428 607 C428 639 415 659 402 672 C385 688 366 694 345 694 C307 694 282 677 268 662 C251 644 239 617 239 589 L239 589 Z M295 595 C295 606 299 619 309 628 C318 636 327 639 338 639 C348 639 356 636 363 629 C370 622 373 614 373 604 C373 593 369 582 361 574 C354 566 343 561 329 561 C314 561 306 568 303 572 C298 578 295 587 295 595 L295 595 Z " />
<glyph glyph-name="ae" unicode="&#xe6;" horiz-adv-x="810" d="M435 374 C421 400 402 416 376 428 C346 442 317 447 284 447 C243 447 197 440 153 425 L141 328 C181 343 219 351 259 351 C303 351 324 340 333 333 C362 312 364 283 364 262 L364 241 C323 264 282 271 240 271 C206 271 153 267 112 241 C68 213 51 172 51 125 C51 90 60 58 88 31 C129 -9 188 -14 229 -14 C262 -14 306 -9 337 4 C351 10 380 24 405 57 C422 38 443 20 466 9 C475 4 514 -14 578 -14 C631 -14 680 0 713 24 C747 48 773 88 786 121 L676 139 C670 122 660 111 646 101 C626 86 609 82 585 82 C566 82 531 84 507 108 C486 128 475 166 475 196 L797 196 C805 273 796 347 745 396 C721 420 675 447 600 447 C562 447 526 440 494 423 C476 413 454 398 435 374 L435 374 Z M171 126 C171 138 174 157 197 171 C218 184 241 185 262 185 C291 185 309 180 322 173 C341 163 348 148 348 133 C348 122 345 101 318 86 C300 76 276 72 255 72 C233 72 207 78 191 89 C175 100 171 115 171 126 L171 126 Z M487 274 C493 295 505 318 521 334 C544 356 569 361 596 361 C634 361 653 347 659 342 C678 326 690 296 692 274 L487 274 Z " />
<glyph glyph-name="ccedilla" unicode="&#xe7;" horiz-adv-x="420" d="M438 421 C394 442 356 447 318 447 C245 447 184 428 132 375 C89 331 62 269 62 193 C62 126 85 79 116 47 C154 8 212 -14 274 -14 C303 -14 348 -10 388 13 L402 132 C369 102 328 94 302 94 C269 94 239 107 220 127 C201 146 190 175 190 206 C190 239 203 279 230 305 C258 333 292 339 320 339 C373 339 405 318 423 301 L438 421 Z M240 -46 L122 -200 L186 -236 L328 -90 L240 -46 Z " />
<glyph glyph-name="egrave" unicode="&#xe8;" horiz-adv-x="526" d="M393 141 C384 125 369 107 351 96 C328 83 300 82 285 82 C263 82 236 86 214 109 C196 127 184 156 189 196 L513 196 C515 209 515 222 515 240 C515 293 506 352 459 397 C417 437 363 447 311 447 C258 447 193 438 138 383 C90 336 63 261 63 186 C63 115 91 71 115 46 C161 -3 218 -14 276 -14 C315 -14 363 -9 406 15 C441 35 476 71 498 116 L393 141 Z M203 274 C210 298 224 319 239 333 C256 348 280 361 313 361 C338 361 364 353 381 337 C396 323 407 299 408 274 L203 274 Z M327 510 L388 550 L288 700 L193 644 L327 510 Z " />
<glyph glyph-name="eacute" unicode="&#xe9;" horiz-adv-x="526" d="M393 141 C384 125 369 107 351 96 C328 83 300 82 285 82 C263 82 236 86 214 109 C196 127 184 156 189 196 L513 196 C515 209 515 222 515 240 C515 293 506 352 459 397 C417 437 363 447 311 447 C258 447 193 438 138 383 C90 336 63 261 63 186 C63 115 91 71 115 46 C161 -3 218 -14 276 -14 C315 -14 363 -9 406 15 C441 35 476 71 498 116 L393 141 Z M203 274 C210 298 224 319 239 333 C256 348 280 361 313 361 C338 361 364 353 381 337 C396 323 407 299 408 274 L203 274 Z M414 700 L278 550 L329 510 L495 644 L414 700 Z " />
<glyph glyph-name="ecircumflex" unicode="&#xea;" horiz-adv-x="526" d="M393 141 C384 125 369 107 351 96 C328 83 300 82 285 82 C263 82 236 86 214 109 C196 127 184 156 189 196 L513 196 C515 209 515 222 515 240 C515 293 506 352 459 397 C417 437 363 447 311 447 C258 447 193 438 138 383 C90 336 63 261 63 186 C63 115 91 71 115 46 C161 -3 218 -14 276 -14 C315 -14 363 -9 406 15 C441 35 476 71 498 116 L393 141 Z M203 274 C210 298 224 319 239 333 C256 348 280 361 313 361 C338 361 364 353 381 337 C396 323 407 299 408 274 L203 274 Z M326 602 L425 510 L490 570 L337 708 L150 570 L205 510 L326 602 Z " />
<glyph glyph-name="edieresis" unicode="&#xeb;" horiz-adv-x="526" d="M393 141 C384 125 369 107 351 96 C328 83 300 82 285 82 C263 82 236 86 214 109 C196 127 184 156 189 196 L513 196 C515 209 515 222 515 240 C515 293 506 352 459 397 C417 437 363 447 311 447 C258 447 193 438 138 383 C90 336 63 261 63 186 C63 115 91 71 115 46 C161 -3 218 -14 276 -14 C315 -14 363 -9 406 15 C441 35 476 71 498 116 L393 141 Z M203 274 C210 298 224 319 239 333 C256 348 280 361 313 361 C338 361 364 353 381 337 C396 323 407 299 408 274 L203 274 Z M354 578 C354 561 361 543 373 531 C383 521 398 514 417 514 C438 514 459 521 476 540 C489 554 498 572 498 594 C498 614 491 628 482 638 C472 649 457 658 436 658 C419 658 397 653 378 634 C360 616 354 595 354 578 L354 578 Z M146 578 C146 561 153 543 165 531 C175 521 190 514 209 514 C230 514 251 521 268 540 C281 554 290 572 290 594 C290 614 283 628 274 638 C264 649 249 658 228 658 C211 658 189 653 170 634 C152 616 146 595 146 578 L146 578 Z " />
<glyph glyph-name="igrave" unicode="&#xec;" horiz-adv-x="238" d="M111 433 L58 0 L180 0 L233 433 L111 433 Z M174 501 L242 524 L188 701 L84 669 L174 501 Z " />
<glyph glyph-name="iacute" unicode="&#xed;" horiz-adv-x="238" d="M111 433 L58 0 L180 0 L233 433 L111 433 Z M222 701 L124 524 L188 501 L318 669 L222 701 Z " />
<glyph glyph-name="icircumflex" unicode="&#xee;" horiz-adv-x="238" d="M111 433 L58 0 L180 0 L233 433 L111 433 Z M193 602 L271 524 L333 580 L205 708 L45 580 L95 524 L193 602 Z " />
<glyph glyph-name="idieresis" unicode="&#xef;" horiz-adv-x="238" d="M111 433 L58 0 L180 0 L233 433 L111 433 Z M217 578 C217 561 224 543 236 531 C246 521 261 514 280 514 C301 514 322 521 339 540 C352 554 361 572 361 594 C361 614 354 628 345 638 C335 649 320 658 299 658 C282 658 260 653 241 634 C223 616 217 595 217 578 L217 578 Z M9 578 C9 561 16 543 28 531 C38 521 53 514 72 514 C93 514 114 521 131 540 C144 554 153 572 153 594 C153 614 146 628 137 638 C127 649 112 658 91 658 C74 658 52 653 33 634 C15 616 9 595 9 578 L9 578 Z " />
<glyph glyph-name="eth" unicode="&#xf0;" horiz-adv-x="548" d="M139 588 C184 588 226 578 265 562 L114 512 L134 450 L339 523 C396 484 415 422 421 383 C402 404 366 433 294 433 C212 433 159 398 130 369 C88 326 62 258 62 190 C62 114 94 67 123 40 C171 -6 228 -14 275 -14 C328 -14 400 -3 459 54 C533 127 547 248 547 320 C547 366 540 409 523 458 C509 499 493 529 464 562 L574 594 L550 662 L404 616 C370 637 305 672 184 682 L139 588 Z M310 329 C344 329 365 316 377 305 C389 294 407 272 407 232 C407 195 394 152 370 127 C357 113 331 94 288 94 C259 94 234 104 218 119 C200 137 189 165 189 192 C189 225 198 266 224 294 C240 312 268 329 310 329 L310 329 Z " />
<glyph glyph-name="ntilde" unicode="&#xf1;" horiz-adv-x="536" d="M58 0 L180 0 L207 221 C211 252 221 293 244 317 C256 329 277 343 312 343 C339 343 356 334 365 325 C374 317 385 300 385 270 C385 254 380 210 379 201 L354 0 L476 0 L505 238 C509 268 513 288 513 312 C513 342 507 378 479 407 C457 429 421 447 363 447 C329 447 304 441 279 427 C255 413 238 396 226 377 L233 433 L111 433 L58 0 Z M477 647 C465 621 446 606 427 606 C415 606 400 611 375 622 L339 637 C320 645 302 652 276 652 C241 652 215 641 193 621 C178 607 161 586 152 571 L207 523 C218 540 241 564 267 564 C280 564 300 557 316 550 L348 536 C367 527 390 518 418 518 C445 518 467 527 487 545 C502 558 520 582 531 599 L477 647 Z " />
<glyph glyph-name="ograve" unicode="&#xf2;" horiz-adv-x="572" d="M336 447 C235 447 173 408 138 374 C94 331 63 264 63 193 C63 125 88 77 120 46 C167 -1 225 -14 287 -14 C364 -14 429 5 486 59 C546 117 563 186 563 241 C563 309 535 356 507 385 C474 418 421 447 336 447 L336 447 Z M299 94 C271 94 239 105 219 125 C200 144 189 175 189 201 C189 235 202 276 232 304 C256 326 290 339 324 339 C353 339 383 328 403 309 C424 289 435 256 435 229 C435 195 419 157 394 132 C368 106 332 94 299 94 L299 94 Z M357 510 L418 550 L318 700 L223 644 L357 510 Z " />
<glyph glyph-name="oacute" unicode="&#xf3;" horiz-adv-x="572" d="M336 447 C235 447 173 408 138 374 C94 331 63 264 63 193 C63 125 88 77 120 46 C167 -1 225 -14 287 -14 C364 -14 429 5 486 59 C546 117 563 186 563 241 C563 309 535 356 507 385 C474 418 421 447 336 447 L336 447 Z M299 94 C271 94 239 105 219 125 C200 144 189 175 189 201 C189 235 202 276 232 304 C256 326 290 339 324 339 C353 339 383 328 403 309 C424 289 435 256 435 229 C435 195 419 157 394 132 C368 106 332 94 299 94 L299 94 Z M424 700 L288 550 L339 510 L505 644 L424 700 Z " />
<glyph glyph-name="ocircumflex" unicode="&#xf4;" horiz-adv-x="572" d="M336 447 C235 447 173 408 138 374 C94 331 63 264 63 193 C63 125 88 77 120 46 C167 -1 225 -14 287 -14 C364 -14 429 5 486 59 C546 117 563 186 563 241 C563 309 535 356 507 385 C474 418 421 447 336 447 L336 447 Z M299 94 C271 94 239 105 219 125 C200 144 189 175 189 201 C189 235 202 276 232 304 C256 326 290 339 324 339 C353 339 383 328 403 309 C424 289 435 256 435 229 C435 195 419 157 394 132 C368 106 332 94 299 94 L299 94 Z M360 602 L459 510 L524 570 L371 708 L184 570 L239 510 L360 602 Z " />
<glyph glyph-name="otilde" unicode="&#xf5;" horiz-adv-x="572" d="M336 447 C235 447 173 408 138 374 C94 331 63 264 63 193 C63 125 88 77 120 46 C167 -1 225 -14 287 -14 C364 -14 429 5 486 59 C546 117 563 186 563 241 C563 309 535 356 507 385 C474 418 421 447 336 447 L336 447 Z M299 94 C271 94 239 105 219 125 C200 144 189 175 189 201 C189 235 202 276 232 304 C256 326 290 339 324 339 C353 339 383 328 403 309 C424 289 435 256 435 229 C435 195 419 157 394 132 C368 106 332 94 299 94 L299 94 Z M477 647 C465 621 446 606 427 606 C415 606 400 611 375 622 L339 637 C320 645 302 652 276 652 C241 652 215 641 193 621 C178 607 161 586 152 571 L207 523 C218 540 241 564 267 564 C280 564 300 557 316 550 L348 536 C367 527 390 518 418 518 C445 518 467 527 487 545 C502 558 520 582 531 599 L477 647 Z " />
<glyph glyph-name="odieresis" unicode="&#xf6;" horiz-adv-x="572" d="M336 447 C235 447 173 408 138 374 C94 331 63 264 63 193 C63 125 88 77 120 46 C167 -1 225 -14 287 -14 C364 -14 429 5 486 59 C546 117 563 186 563 241 C563 309 535 356 507 385 C474 418 421 447 336 447 L336 447 Z M299 94 C271 94 239 105 219 125 C200 144 189 175 189 201 C189 235 202 276 232 304 C256 326 290 339 324 339 C353 339 383 328 403 309 C424 289 435 256 435 229 C435 195 419 157 394 132 C368 106 332 94 299 94 L299 94 Z M374 578 C374 561 381 543 393 531 C403 521 418 514 437 514 C458 514 479 521 496 540 C509 554 518 572 518 594 C518 614 511 628 502 638 C492 649 477 658 456 658 C439 658 417 653 398 634 C380 616 374 595 374 578 L374 578 Z M166 578 C166 561 173 543 185 531 C195 521 210 514 229 514 C250 514 271 521 288 540 C301 554 310 572 310 594 C310 614 303 628 294 638 C284 649 269 658 248 658 C231 658 209 653 190 634 C172 616 166 595 166 578 L166 578 Z " />
<glyph glyph-name="divide" unicode="&#xf7;" horiz-adv-x="500" d="M221 511 C221 472 253 440 292 440 C331 440 363 472 363 511 C363 550 331 582 292 582 C253 582 221 550 221 511 L221 511 Z M221 167 C221 128 253 96 292 96 C331 96 363 128 363 167 C363 206 331 238 292 238 C253 238 221 206 221 167 L221 167 Z M75 283 L509 283 L509 395 L75 395 L75 283 Z " />
<glyph glyph-name="oslash" unicode="&#xf8;" horiz-adv-x="588" d="M34 8 L83 -44 L158 23 C203 -3 247 -14 304 -14 C383 -14 444 9 495 59 C555 117 572 185 572 239 C572 285 560 324 536 360 L610 426 L566 477 L488 408 C440 437 393 447 341 447 C244 447 183 409 147 374 C111 339 72 280 72 191 C72 143 84 107 107 73 L34 8 Z M436 271 C442 257 444 244 444 229 C444 194 429 157 403 132 C377 106 341 94 308 94 C290 94 270 100 253 108 L436 271 Z M207 160 C201 173 198 187 198 203 C198 253 222 286 241 304 C268 329 298 339 333 339 C353 339 372 335 392 324 L207 160 Z " />
<glyph glyph-name="ugrave" unicode="&#xf9;" horiz-adv-x="537" d="M112 433 L85 210 C81 179 79 159 79 142 C79 76 114 40 137 23 C172 -2 226 -14 280 -14 C321 -14 370 -7 409 15 C474 52 493 114 503 194 L532 433 L410 433 L382 205 C377 166 372 136 349 114 C335 101 313 90 282 90 C257 90 234 98 221 112 C212 121 203 137 203 165 C203 171 204 182 208 217 L234 433 L112 433 Z M325 510 L386 550 L286 700 L191 644 L325 510 Z " />
<glyph glyph-name="uacute" unicode="&#xfa;" horiz-adv-x="537" d="M112 433 L85 210 C81 179 79 159 79 142 C79 76 114 40 137 23 C172 -2 226 -14 280 -14 C321 -14 370 -7 409 15 C474 52 493 114 503 194 L532 433 L410 433 L382 205 C377 166 372 136 349 114 C335 101 313 90 282 90 C257 90 234 98 221 112 C212 121 203 137 203 165 C203 171 204 182 208 217 L234 433 L112 433 Z M422 700 L286 550 L337 510 L503 644 L422 700 Z " />
<glyph glyph-name="ucircumflex" unicode="&#xfb;" horiz-adv-x="537" d="M112 433 L85 210 C81 179 79 159 79 142 C79 76 114 40 137 23 C172 -2 226 -14 280 -14 C321 -14 370 -7 409 15 C474 52 493 114 503 194 L532 433 L410 433 L382 205 C377 166 372 136 349 114 C335 101 313 90 282 90 C257 90 234 98 221 112 C212 121 203 137 203 165 C203 171 204 182 208 217 L234 433 L112 433 Z M344 602 L443 510 L508 570 L355 708 L168 570 L223 510 L344 602 Z " />
<glyph glyph-name="udieresis" unicode="&#xfc;" horiz-adv-x="537" d="M112 433 L85 210 C81 179 79 159 79 142 C79 76 114 40 137 23 C172 -2 226 -14 280 -14 C321 -14 370 -7 409 15 C474 52 493 114 503 194 L532 433 L410 433 L382 205 C377 166 372 136 349 114 C335 101 313 90 282 90 C257 90 234 98 221 112 C212 121 203 137 203 165 C203 171 204 182 208 217 L234 433 L112 433 Z M372 578 C372 561 379 543 391 531 C401 521 416 514 435 514 C456 514 477 521 494 540 C507 554 516 572 516 594 C516 614 509 628 500 638 C490 649 475 658 454 658 C437 658 415 653 396 634 C378 616 372 595 372 578 L372 578 Z M164 578 C164 561 171 543 183 531 C193 521 208 514 227 514 C248 514 269 521 286 540 C299 554 308 572 308 594 C308 614 301 628 292 638 C282 649 267 658 246 658 C229 658 207 653 188 634 C170 616 164 595 164 578 L164 578 Z " />
<glyph glyph-name="yacute" unicode="&#xfd;" horiz-adv-x="538" d="M21 -229 L159 -229 L589 433 L447 433 L297 187 L193 433 L55 433 L216 65 L21 -229 Z M410 700 L274 550 L325 510 L491 644 L410 700 Z " />
<glyph glyph-name="thorn" unicode="&#xfe;" horiz-adv-x="572" d="M187 56 C198 39 213 22 231 11 C267 -12 314 -14 332 -14 C387 -14 441 0 489 48 C524 83 563 145 563 246 C563 294 553 354 506 399 C465 438 414 447 370 447 C340 447 318 442 290 428 C266 416 245 400 226 377 L269 729 L147 729 L30 -229 L152 -229 L187 56 Z M326 339 C355 339 386 328 404 311 C422 294 436 267 436 232 C436 194 422 155 396 129 C371 104 342 94 307 94 C280 94 246 99 221 128 C205 146 194 174 194 206 C194 240 207 276 235 303 C262 330 294 339 326 339 L326 339 Z " />
<glyph glyph-name="ydieresis" unicode="&#xff;" horiz-adv-x="538" d="M21 -229 L159 -229 L589 433 L447 433 L297 187 L193 433 L55 433 L216 65 L21 -229 Z M374 578 C374 561 381 543 393 531 C403 521 418 514 437 514 C458 514 479 521 496 540 C509 554 518 572 518 594 C518 614 511 628 502 638 C492 649 477 658 456 658 C439 658 417 653 398 634 C380 616 374 595 374 578 L374 578 Z M166 578 C166 561 173 543 185 531 C195 521 210 514 229 514 C250 514 271 521 288 540 C301 554 310 572 310 594 C310 614 303 628 294 638 C284 649 269 658 248 658 C231 658 209 653 190 634 C172 616 166 595 166 578 L166 578 Z " />
<glyph glyph-name="Amacron" unicode="&#x100;" horiz-adv-x="672" d="M533 0 L670 0 L473 667 L375 667 L2 0 L146 0 L222 140 L491 140 L533 0 Z M276 246 L402 486 L466 246 L276 246 Z M242 745 L608 745 L619 831 L253 831 L242 745 Z " />
<glyph glyph-name="amacron" unicode="&#x101;" horiz-adv-x="572" d="M438 377 C426 397 411 413 387 426 C359 441 332 447 301 447 C221 447 165 415 130 379 C89 336 63 272 63 194 C63 136 79 83 121 41 C162 0 211 -14 263 -14 C293 -14 318 -8 344 7 C352 12 377 27 399 56 L392 0 L514 0 L567 433 L445 433 L438 377 Z M318 339 C362 339 388 321 402 306 C420 287 432 260 432 229 C432 192 418 151 389 125 C360 99 327 94 303 94 C267 94 241 105 223 122 C204 140 190 170 190 208 C190 244 205 282 233 308 C258 330 287 339 318 339 L318 339 Z M156 539 L520 539 L530 619 L166 619 L156 539 Z " />
<glyph glyph-name="Abreve" unicode="&#x102;" horiz-adv-x="672" d="M533 0 L670 0 L473 667 L375 667 L2 0 L146 0 L222 140 L491 140 L533 0 Z M276 246 L402 486 L466 246 L276 246 Z M515 870 C510 852 499 837 486 827 C473 817 455 810 429 810 C403 810 383 818 372 830 C363 839 356 854 355 870 L267 870 C267 832 282 791 308 766 C328 746 365 726 431 726 C470 726 523 733 560 771 C581 793 600 833 607 870 L515 870 Z " />
<glyph glyph-name="abreve" unicode="&#x103;" horiz-adv-x="572" d="M438 377 C426 397 411 413 387 426 C359 441 332 447 301 447 C221 447 165 415 130 379 C89 336 63 272 63 194 C63 136 79 83 121 41 C162 0 211 -14 263 -14 C293 -14 318 -8 344 7 C352 12 377 27 399 56 L392 0 L514 0 L567 433 L445 433 L438 377 Z M318 339 C362 339 388 321 402 306 C420 287 432 260 432 229 C432 192 418 151 389 125 C360 99 327 94 303 94 C267 94 241 105 223 122 C204 140 190 170 190 208 C190 244 205 282 233 308 C258 330 287 339 318 339 L318 339 Z M426 650 C421 632 410 615 398 605 C380 590 359 587 341 587 C314 587 297 596 287 606 C276 617 268 635 266 650 L186 650 C187 609 204 573 226 550 C262 514 310 509 339 509 C386 509 428 520 465 556 C487 577 507 608 514 650 L426 650 Z " />
<glyph glyph-name="Aogonek" unicode="&#x104;" horiz-adv-x="672" d="M670 0 L473 667 L375 667 L2 0 L146 0 L222 140 L491 140 L533 0 C504 -17 485 -37 476 -49 C460 -69 450 -90 450 -117 C450 -143 460 -161 474 -173 C490 -186 512 -193 536 -193 C552 -193 575 -190 600 -176 L622 -107 C608 -114 591 -119 577 -119 C567 -119 556 -116 549 -111 C545 -108 538 -101 538 -87 C538 -67 554 -47 563 -37 C575 -24 588 -12 605 0 L670 0 Z M276 246 L402 486 L466 246 L276 246 Z " />
<glyph glyph-name="aogonek" unicode="&#x105;" horiz-adv-x="572" d="M438 377 C426 397 411 413 387 426 C359 441 332 447 301 447 C221 447 165 415 130 379 C89 336 63 272 63 194 C63 136 79 83 121 41 C162 0 211 -14 263 -14 C321 -14 367 15 399 56 L392 0 L416 0 C399 -12 380 -29 366 -47 C353 -64 340 -88 340 -118 C340 -142 350 -159 365 -171 C372 -177 391 -189 424 -189 C443 -189 462 -185 487 -172 L510 -105 C485 -116 475 -117 461 -117 C451 -117 441 -116 432 -108 C424 -101 421 -94 421 -83 C421 -66 426 -53 437 -38 C448 -24 461 -10 474 0 L514 0 L567 433 L445 433 L438 377 Z M318 339 C362 339 388 321 402 306 C420 287 432 260 432 229 C432 192 418 151 389 125 C360 99 327 94 303 94 C267 94 241 105 223 122 C204 140 190 170 190 208 C190 244 205 282 233 308 C258 330 287 339 318 339 L318 339 Z " />
<glyph glyph-name="Cacute" unicode="&#x106;" horiz-adv-x="607" d="M585 176 C568 153 521 102 420 102 C363 102 314 120 276 160 C248 190 220 237 220 310 C220 377 243 448 287 495 C319 529 370 564 454 564 C496 564 568 556 624 491 L642 641 C570 678 509 682 466 682 C387 682 279 667 192 580 C131 518 85 417 85 291 C85 211 108 130 174 67 C209 33 280 -15 401 -15 C486 -15 539 10 566 24 L585 176 Z M455 728 L644 850 L563 920 L406 778 L455 728 Z " />
<glyph glyph-name="cacute" unicode="&#x107;" horiz-adv-x="420" d="M438 421 C394 442 356 447 318 447 C245 447 184 428 132 375 C89 331 62 269 62 193 C62 126 85 79 116 47 C154 8 212 -14 274 -14 C303 -14 348 -10 388 13 L402 132 C369 102 328 94 302 94 C269 94 239 107 220 127 C201 146 190 175 190 206 C190 239 203 279 230 305 C258 333 292 339 320 339 C373 339 405 318 423 301 L438 421 Z M414 700 L278 550 L329 510 L495 644 L414 700 Z " />
<glyph glyph-name="Ccircumflex" unicode="&#x108;" horiz-adv-x="607" d="M585 176 C568 153 521 102 420 102 C363 102 314 120 276 160 C248 190 220 237 220 310 C220 377 243 448 287 495 C319 529 370 564 454 564 C496 564 568 556 624 491 L642 641 C570 678 509 682 466 682 C387 682 279 667 192 580 C131 518 85 417 85 291 C85 211 108 130 174 67 C209 33 280 -15 401 -15 C486 -15 539 10 566 24 L585 176 Z M483 820 L592 732 L658 796 L494 930 L298 796 L352 732 L483 820 Z " />
<glyph glyph-name="ccircumflex" unicode="&#x109;" horiz-adv-x="420" d="M438 421 C394 442 356 447 318 447 C245 447 184 428 132 375 C89 331 62 269 62 193 C62 126 85 79 116 47 C154 8 212 -14 274 -14 C303 -14 348 -10 388 13 L402 132 C369 102 328 94 302 94 C269 94 239 107 220 127 C201 146 190 175 190 206 C190 239 203 279 230 305 C258 333 292 339 320 339 C373 339 405 318 423 301 L438 421 Z M341 602 L440 510 L505 570 L352 708 L165 570 L220 510 L341 602 Z " />
<glyph glyph-name="Cdotaccent" unicode="&#x10a;" horiz-adv-x="607" d="M585 176 C568 153 521 102 420 102 C363 102 314 120 276 160 C248 190 220 237 220 310 C220 377 243 448 287 495 C319 529 370 564 454 564 C496 564 568 556 624 491 L642 641 C570 678 509 682 466 682 C387 682 279 667 192 580 C131 518 85 417 85 291 C85 211 108 130 174 67 C209 33 280 -15 401 -15 C486 -15 539 10 566 24 L585 176 Z M376 809 C376 780 391 764 397 758 C410 746 428 739 449 739 C474 739 493 749 508 764 C527 783 534 806 534 826 C534 845 527 864 515 876 C503 888 483 895 463 895 C435 895 415 884 401 870 C386 854 376 831 376 809 L376 809 Z " />
<glyph glyph-name="cdotaccent" unicode="&#x10b;" horiz-adv-x="420" d="M438 421 C394 442 356 447 318 447 C245 447 184 428 132 375 C89 331 62 269 62 193 C62 126 85 79 116 47 C154 8 212 -14 274 -14 C303 -14 348 -10 388 13 L402 132 C369 102 328 94 302 94 C269 94 239 107 220 127 C201 146 190 175 190 206 C190 239 203 279 230 305 C258 333 292 339 320 339 C373 339 405 318 423 301 L438 421 Z M243 582 C243 561 252 544 263 533 C273 523 289 514 315 514 C343 514 362 526 374 537 C386 548 397 567 397 594 C397 620 387 636 378 646 C370 654 354 666 326 666 C296 666 277 652 267 642 C253 628 243 605 243 582 L243 582 Z " />
<glyph glyph-name="Ccaron" unicode="&#x10c;" horiz-adv-x="607" d="M585 176 C568 153 521 102 420 102 C363 102 314 120 276 160 C248 190 220 237 220 310 C220 377 243 448 287 495 C319 529 370 564 454 564 C496 564 568 556 624 491 L642 641 C570 678 509 682 466 682 C387 682 279 667 192 580 C131 518 85 417 85 291 C85 211 108 130 174 67 C209 33 280 -15 401 -15 C486 -15 539 10 566 24 L585 176 Z M481 842 L372 930 L306 866 L470 732 L666 866 L612 930 L481 842 Z " />
<glyph glyph-name="ccaron" unicode="&#x10d;" horiz-adv-x="420" d="M438 421 C394 442 356 447 318 447 C245 447 184 428 132 375 C89 331 62 269 62 193 C62 126 85 79 116 47 C154 8 212 -14 274 -14 C303 -14 348 -10 388 13 L402 132 C369 102 328 94 302 94 C269 94 239 107 220 127 C201 146 190 175 190 206 C190 239 203 279 230 305 C258 333 292 339 320 339 C373 339 405 318 423 301 L438 421 Z M344 616 L245 708 L180 648 L333 510 L520 648 L465 708 L344 616 Z " />
<glyph glyph-name="Dcaron" unicode="&#x10e;" horiz-adv-x="673" d="M158 667 L76 0 L204 0 L256 0 C396 0 497 27 572 101 C603 131 670 208 670 364 C670 463 634 537 587 582 C504 662 383 667 332 667 L158 667 Z M274 555 L314 555 C349 555 424 551 478 503 C528 458 536 398 536 361 C536 299 517 230 475 184 C425 129 352 112 264 112 L220 112 L274 555 Z M391 842 L282 930 L216 866 L380 732 L576 866 L522 930 L391 842 Z " />
<glyph glyph-name="dcaron" unicode="&#x10f;" horiz-adv-x="730" d="M438 377 C417 407 392 421 380 427 C357 438 321 447 290 447 C230 447 168 420 131 382 C92 343 63 278 63 199 C63 118 93 68 123 38 C160 1 204 -14 257 -14 C288 -14 321 -7 345 6 C375 23 398 54 399 56 L392 0 L514 0 L604 729 L482 729 L438 377 Z M316 339 C346 339 376 331 401 308 C421 289 433 263 433 229 C433 191 415 151 393 129 C372 108 340 94 303 94 C266 94 240 107 224 122 C204 140 190 171 190 210 C190 246 203 281 229 306 C252 329 281 339 316 339 L316 339 Z M610 478 L694 462 L830 670 L716 690 L610 478 Z " />
<glyph glyph-name="Dcroat" unicode="&#x110;" horiz-adv-x="673" d="M332 667 L158 667 L127 416 L41 416 L29 316 L115 316 L76 0 L206 0 L256 0 C396 0 497 27 572 101 C603 131 670 208 670 364 C670 463 634 537 587 582 C504 662 383 667 332 667 L332 667 Z M274 555 L314 555 C349 555 424 551 478 503 C528 458 536 398 536 361 C536 299 517 230 475 184 C425 129 352 112 264 112 L220 112 L245 316 L367 316 L379 416 L257 416 L274 555 Z " />
<glyph glyph-name="dcroat" unicode="&#x111;" horiz-adv-x="570" d="M438 377 C417 407 392 421 380 427 C357 438 321 447 290 447 C230 447 168 420 131 382 C92 343 63 278 63 199 C63 118 93 68 123 38 C160 1 204 -14 257 -14 C288 -14 321 -7 345 6 C375 23 398 54 399 56 L392 0 L514 0 L582 559 L682 559 L691 637 L591 637 L603 729 L483 729 L471 637 L251 637 L242 559 L462 559 L438 377 Z M316 339 C346 339 376 331 401 308 C425 286 433 259 433 234 C433 201 420 155 393 129 C372 108 340 94 303 94 C266 94 240 107 224 122 C204 140 190 171 190 210 C190 246 203 281 229 306 C252 329 281 339 316 339 L316 339 Z " />
<glyph glyph-name="Emacron" unicode="&#x112;" horiz-adv-x="496" d="M528 667 L158 667 L76 0 L206 0 L446 0 L460 112 L220 112 L242 294 L472 294 L486 406 L256 406 L274 555 L514 555 L528 667 Z M166 745 L532 745 L543 831 L177 831 L166 745 Z " />
<glyph glyph-name="emacron" unicode="&#x113;" horiz-adv-x="526" d="M393 141 C384 125 369 107 351 96 C328 83 300 82 285 82 C263 82 236 86 214 109 C196 127 184 156 189 196 L513 196 C515 209 515 222 515 240 C515 293 506 352 459 397 C417 437 363 447 311 447 C258 447 193 438 138 383 C90 336 63 261 63 186 C63 115 91 71 115 46 C161 -3 218 -14 276 -14 C315 -14 363 -9 406 15 C441 35 476 71 498 116 L393 141 Z M203 274 C210 298 224 319 239 333 C256 348 280 361 313 361 C338 361 364 353 381 337 C396 323 407 299 408 274 L203 274 Z M136 539 L500 539 L510 619 L146 619 L136 539 Z " />
<glyph glyph-name="Edotaccent" unicode="&#x116;" horiz-adv-x="496" d="M528 667 L158 667 L76 0 L206 0 L446 0 L460 112 L220 112 L242 294 L472 294 L486 406 L256 406 L274 555 L514 555 L528 667 Z M281 809 C281 780 296 764 302 758 C315 746 333 739 354 739 C379 739 398 749 413 764 C432 783 439 806 439 826 C439 845 432 864 420 876 C408 888 388 895 368 895 C340 895 320 884 306 870 C291 854 281 831 281 809 L281 809 Z " />
<glyph glyph-name="edotaccent" unicode="&#x117;" horiz-adv-x="526" d="M393 141 C384 125 369 107 351 96 C328 83 300 82 285 82 C263 82 236 86 214 109 C196 127 184 156 189 196 L513 196 C515 209 515 222 515 240 C515 293 506 352 459 397 C417 437 363 447 311 447 C258 447 193 438 138 383 C90 336 63 261 63 186 C63 115 91 71 115 46 C161 -3 218 -14 276 -14 C315 -14 363 -9 406 15 C441 35 476 71 498 116 L393 141 Z M203 274 C210 298 224 319 239 333 C256 348 280 361 313 361 C338 361 364 353 381 337 C396 323 407 299 408 274 L203 274 Z M245 582 C245 561 254 544 265 533 C275 523 291 514 317 514 C345 514 364 526 376 537 C388 548 399 567 399 594 C399 620 389 636 380 646 C372 654 356 666 328 666 C298 666 279 652 269 642 C255 628 245 605 245 582 L245 582 Z " />
<glyph glyph-name="Eogonek" unicode="&#x118;" horiz-adv-x="496" d="M528 667 L158 667 L76 0 L334 0 C305 -17 286 -37 277 -49 C261 -69 251 -90 251 -117 C251 -143 261 -161 275 -173 C291 -186 313 -193 337 -193 C353 -193 376 -190 401 -176 L423 -107 C409 -114 392 -119 378 -119 C368 -119 357 -116 350 -111 C346 -108 339 -101 339 -87 C339 -67 355 -47 364 -37 C376 -24 389 -12 406 0 L446 0 L460 112 L220 112 L242 294 L472 294 L486 406 L256 406 L274 555 L514 555 L528 667 Z " />
<glyph glyph-name="eogonek" unicode="&#x119;" horiz-adv-x="526" d="M393 141 C384 125 369 107 351 96 C328 83 300 82 285 82 C263 82 236 86 214 109 C198 125 188 148 188 180 C188 185 188 190 189 196 L513 196 C515 209 515 222 515 240 C515 293 506 352 459 397 C417 437 363 447 311 447 C258 447 193 438 138 383 C89 335 63 261 63 189 C63 115 92 70 115 46 C141 18 189 -14 265 -14 C283 -14 298 -13 306 -11 C297 -18 283 -30 270 -47 C257 -64 244 -88 244 -118 C244 -142 254 -159 269 -171 C276 -177 295 -189 328 -189 C347 -189 366 -185 391 -172 L414 -105 C389 -116 379 -117 365 -117 C355 -117 345 -116 336 -108 C328 -101 325 -92 325 -81 C325 -69 329 -56 338 -42 C351 -23 372 -8 388 3 C408 16 428 29 449 48 C472 68 487 88 498 116 L393 141 Z M203 274 C210 298 224 319 239 333 C256 348 280 361 313 361 C338 361 364 353 381 337 C396 323 407 299 408 274 L203 274 Z " />
<glyph glyph-name="Ecaron" unicode="&#x11a;" horiz-adv-x="496" d="M528 667 L158 667 L76 0 L206 0 L446 0 L460 112 L220 112 L242 294 L472 294 L486 406 L256 406 L274 555 L514 555 L528 667 Z M361 842 L252 930 L186 866 L350 732 L546 866 L492 930 L361 842 Z " />
<glyph glyph-name="ecaron" unicode="&#x11b;" horiz-adv-x="526" d="M393 141 C384 125 369 107 351 96 C328 83 300 82 285 82 C263 82 236 86 214 109 C196 127 184 156 189 196 L513 196 C515 209 515 222 515 240 C515 293 506 352 459 397 C417 437 363 447 311 447 C258 447 193 438 138 383 C90 336 63 261 63 186 C63 115 91 71 115 46 C161 -3 218 -14 276 -14 C315 -14 363 -9 406 15 C441 35 476 71 498 116 L393 141 Z M203 274 C210 298 224 319 239 333 C256 348 280 361 313 361 C338 361 364 353 381 337 C396 323 407 299 408 274 L203 274 Z M334 616 L235 708 L170 648 L323 510 L510 648 L455 708 L334 616 Z " />
<glyph glyph-name="Gcircumflex" unicode="&#x11c;" horiz-adv-x="766" d="M446 245 L618 245 C607 212 586 174 556 148 C511 109 458 103 420 103 C377 103 322 113 277 158 C253 182 219 229 219 308 C219 380 246 453 292 499 C325 532 378 564 455 564 C495 564 531 555 563 535 C588 520 612 497 630 464 L747 531 C720 577 684 612 647 635 C586 673 523 682 470 682 C338 682 252 631 198 579 C135 518 85 421 85 301 C85 189 129 117 176 72 C247 3 333 -15 410 -15 C490 -15 579 3 653 77 C735 159 759 281 766 357 L460 357 L446 245 Z M493 820 L602 732 L668 796 L504 930 L308 796 L362 732 L493 820 Z " />
<glyph glyph-name="gcircumflex" unicode="&#x11d;" horiz-adv-x="564" d="M430 377 C415 402 395 417 380 426 C358 439 328 447 289 447 C215 447 165 416 135 387 C89 344 57 276 57 194 C57 122 82 71 114 39 C154 -1 203 -14 256 -14 C285 -14 312 -8 337 7 C367 25 386 51 391 58 L383 -3 C379 -32 371 -71 344 -97 C326 -114 298 -126 260 -126 C226 -126 205 -115 194 -104 C180 -91 171 -69 169 -51 L41 -51 C46 -98 66 -143 94 -172 C140 -221 204 -230 256 -230 C351 -230 410 -200 442 -167 C494 -114 502 -31 508 20 L559 433 L437 433 L430 377 Z M312 339 C347 339 375 327 393 311 C408 297 426 271 426 231 C426 192 410 151 384 126 C369 112 340 94 291 94 C266 94 238 101 215 124 C201 138 183 164 183 204 C183 241 196 282 225 308 C241 323 269 339 312 339 L312 339 Z M346 602 L445 510 L510 570 L357 708 L170 570 L225 510 L346 602 Z " />
<glyph glyph-name="Gbreve" unicode="&#x11e;" horiz-adv-x="766" d="M446 245 L618 245 C607 212 586 174 556 148 C511 109 458 103 420 103 C377 103 322 113 277 158 C253 182 219 229 219 308 C219 380 246 453 292 499 C325 532 378 564 455 564 C495 564 531 555 563 535 C588 520 612 497 630 464 L747 531 C720 577 684 612 647 635 C586 673 523 682 470 682 C338 682 252 631 198 579 C135 518 85 421 85 301 C85 189 129 117 176 72 C247 3 333 -15 410 -15 C490 -15 579 3 653 77 C735 159 759 281 766 357 L460 357 L446 245 Z M559 870 C554 852 543 837 530 827 C517 817 499 810 473 810 C447 810 427 818 416 830 C407 839 400 854 399 870 L311 870 C311 832 326 791 352 766 C372 746 409 726 475 726 C514 726 567 733 604 771 C625 793 644 833 651 870 L559 870 Z " />
<glyph glyph-name="gbreve" unicode="&#x11f;" horiz-adv-x="564" d="M430 377 C415 402 395 417 380 426 C358 439 328 447 289 447 C215 447 165 416 135 387 C89 344 57 276 57 194 C57 122 82 71 114 39 C154 -1 203 -14 256 -14 C285 -14 312 -8 337 7 C367 25 386 51 391 58 L383 -3 C379 -32 371 -71 344 -97 C326 -114 298 -126 260 -126 C226 -126 205 -115 194 -104 C180 -91 171 -69 169 -51 L41 -51 C46 -98 66 -143 94 -172 C140 -221 204 -230 256 -230 C351 -230 410 -200 442 -167 C494 -114 502 -31 508 20 L559 433 L437 433 L430 377 Z M312 339 C347 339 375 327 393 311 C408 297 426 271 426 231 C426 192 410 151 384 126 C369 112 340 94 291 94 C266 94 238 101 215 124 C201 138 183 164 183 204 C183 241 196 282 225 308 C241 323 269 339 312 339 L312 339 Z M416 650 C411 632 400 615 388 605 C370 590 349 587 331 587 C304 587 287 596 277 606 C266 617 258 635 256 650 L176 650 C177 609 194 573 216 550 C252 514 300 509 329 509 C376 509 418 520 455 556 C477 577 497 608 504 650 L416 650 Z " />
<glyph glyph-name="Gdotaccent" unicode="&#x120;" horiz-adv-x="766" d="M446 245 L618 245 C607 212 586 174 556 148 C511 109 458 103 420 103 C377 103 322 113 277 158 C253 182 219 229 219 308 C219 380 246 453 292 499 C325 532 378 564 455 564 C495 564 531 555 563 535 C588 520 612 497 630 464 L747 531 C720 577 684 612 647 635 C586 673 523 682 470 682 C338 682 252 631 198 579 C135 518 85 421 85 301 C85 189 129 117 176 72 C247 3 333 -15 410 -15 C490 -15 579 3 653 77 C735 159 759 281 766 357 L460 357 L446 245 Z M404 809 C404 780 419 764 425 758 C438 746 456 739 477 739 C502 739 521 749 536 764 C555 783 562 806 562 826 C562 845 555 864 543 876 C531 888 511 895 491 895 C463 895 443 884 429 870 C414 854 404 831 404 809 L404 809 Z " />
<glyph glyph-name="gdotaccent" unicode="&#x121;" horiz-adv-x="564" d="M430 377 C415 402 395 417 380 426 C358 439 328 447 289 447 C215 447 165 416 135 387 C89 344 57 276 57 194 C57 122 82 71 114 39 C154 -1 203 -14 256 -14 C285 -14 312 -8 337 7 C367 25 386 51 391 58 L383 -3 C379 -32 371 -71 344 -97 C326 -114 298 -126 260 -126 C226 -126 205 -115 194 -104 C180 -91 171 -69 169 -51 L41 -51 C46 -98 66 -143 94 -172 C140 -221 204 -230 256 -230 C351 -230 410 -200 442 -167 C494 -114 502 -31 508 20 L559 433 L437 433 L430 377 Z M312 339 C347 339 375 327 393 311 C408 297 426 271 426 231 C426 192 410 151 384 126 C369 112 340 94 291 94 C266 94 238 101 215 124 C201 138 183 164 183 204 C183 241 196 282 225 308 C241 323 269 339 312 339 L312 339 Z M243 582 C243 561 252 544 263 533 C273 523 289 514 315 514 C343 514 362 526 374 537 C386 548 397 567 397 594 C397 620 387 636 378 646 C370 654 354 666 326 666 C296 666 277 652 267 642 C253 628 243 605 243 582 L243 582 Z " />
<glyph glyph-name="Gcommaaccent" unicode="&#x122;" horiz-adv-x="766" d="M446 245 L618 245 C607 212 586 174 556 148 C511 109 458 103 420 103 C377 103 322 113 277 158 C253 182 219 229 219 308 C219 380 246 453 292 499 C325 532 378 564 455 564 C495 564 531 555 563 535 C588 520 612 497 630 464 L747 531 C720 577 684 612 647 635 C586 673 523 682 470 682 C338 682 252 631 198 579 C135 518 85 421 85 301 C85 189 129 117 176 72 C247 3 333 -15 410 -15 C490 -15 579 3 653 77 C735 159 759 281 766 357 L460 357 L446 245 Z M260 -258 L340 -270 L470 -66 L358 -50 L260 -258 Z " />
<glyph glyph-name="gcommaaccent" unicode="&#x123;" horiz-adv-x="564" d="M430 377 C415 402 395 417 380 426 C358 439 328 447 289 447 C215 447 165 416 135 387 C89 344 57 276 57 194 C57 122 82 71 114 39 C154 -1 203 -14 256 -14 C285 -14 312 -8 337 7 C367 25 386 51 391 58 L383 -3 C379 -32 371 -71 344 -97 C326 -114 298 -126 260 -126 C226 -126 205 -115 194 -104 C180 -91 171 -69 169 -51 L41 -51 C46 -98 66 -143 94 -172 C140 -221 204 -230 256 -230 C351 -230 410 -200 442 -167 C494 -114 502 -31 508 20 L559 433 L437 433 L430 377 Z M312 339 C347 339 375 327 393 311 C408 297 426 271 426 231 C426 192 410 151 384 126 C369 112 340 94 291 94 C266 94 238 101 215 124 C201 138 183 164 183 204 C183 241 196 282 225 308 C241 323 269 339 312 339 L312 339 Z M445 690 L365 702 L235 498 L347 482 L445 690 Z " />
<glyph glyph-name="Hcircumflex" unicode="&#x124;" horiz-adv-x="694" d="M288 667 L158 667 L76 0 L206 0 L242 297 L524 297 L488 0 L618 0 L700 667 L570 667 L538 409 L256 409 L288 667 Z M450 820 L559 732 L625 796 L461 930 L265 796 L319 732 L450 820 Z " />
<glyph glyph-name="hcircumflex" unicode="&#x125;" horiz-adv-x="536" d="M58 0 L180 0 L207 221 C211 253 221 294 244 317 C252 325 274 343 313 343 C335 343 353 336 365 325 C374 317 385 300 385 270 C385 254 380 210 379 201 L354 0 L476 0 L505 238 C509 268 513 288 513 312 C513 342 507 378 479 407 C457 429 421 447 363 447 C329 447 304 441 279 427 C255 413 238 396 226 377 L270 729 L148 729 L58 0 Z M221 852 L320 760 L385 820 L232 958 L45 820 L100 760 L221 852 Z " />
<glyph glyph-name="Hbar" unicode="&#x126;" horiz-adv-x="694" d="M288 667 L158 667 L151 614 L91 614 L80 518 L140 518 L76 0 L206 0 L242 297 L524 297 L488 0 L618 0 L682 518 L742 518 L753 614 L693 614 L700 667 L570 667 L563 614 L281 614 L288 667 Z M552 518 L538 409 L256 409 L270 518 L552 518 Z " />
<glyph glyph-name="hbar" unicode="&#x127;" horiz-adv-x="546" d="M69 0 L191 0 L218 221 C222 253 232 294 255 317 C268 330 290 343 323 343 C346 343 364 336 376 325 C385 317 396 300 396 270 C396 254 391 210 390 201 L365 0 L487 0 L515 229 C519 259 523 279 523 309 C523 337 520 375 489 407 C468 429 431 447 373 447 C341 447 315 441 290 427 C266 413 249 396 237 377 L260 559 L460 559 L469 637 L269 637 L281 729 L159 729 L147 637 L47 637 L38 559 L138 559 L69 0 Z " />
<glyph glyph-name="Imacron" unicode="&#x12a;" horiz-adv-x="282" d="M158 667 L76 0 L206 0 L288 667 L158 667 Z M96 745 L376 745 L386 831 L106 831 L96 745 Z " />
<glyph glyph-name="imacron" unicode="&#x12b;" horiz-adv-x="238" d="M111 433 L58 0 L180 0 L233 433 L111 433 Z M65 539 L309 539 L319 619 L75 619 L65 539 Z " />
<glyph glyph-name="Iogonek" unicode="&#x12e;" horiz-adv-x="282" d="M158 667 L76 0 L134 0 C105 -17 86 -37 77 -49 C61 -69 51 -90 51 -117 C51 -143 61 -161 75 -173 C91 -186 113 -193 137 -193 C153 -193 176 -190 201 -176 L223 -107 C209 -114 192 -119 178 -119 C168 -119 157 -116 150 -111 C146 -108 139 -101 139 -87 C139 -67 155 -47 164 -37 C176 -24 189 -12 206 0 L288 667 L158 667 Z " />
<glyph glyph-name="iogonek" unicode="&#x12f;" horiz-adv-x="238" d="M111 433 L58 0 L122 0 C105 -12 86 -29 72 -47 C59 -64 46 -88 46 -118 C46 -142 56 -159 71 -171 C78 -177 97 -189 130 -189 C149 -189 168 -185 193 -172 L216 -105 C191 -116 181 -117 167 -117 C157 -117 147 -116 138 -108 C130 -101 127 -94 127 -83 C127 -66 132 -53 143 -38 C154 -24 167 -10 180 0 L233 433 L111 433 Z M121 607 C121 587 128 573 140 561 C152 550 167 543 186 543 C205 543 226 550 244 568 C263 587 268 609 268 624 C268 642 261 659 249 671 C238 682 222 689 203 689 C187 689 165 685 145 664 C128 647 121 626 121 607 L121 607 Z " />
<glyph glyph-name="Idotaccent" unicode="&#x130;" horiz-adv-x="282" d="M158 667 L76 0 L206 0 L288 667 L158 667 Z M149 809 C149 780 164 764 170 758 C183 746 201 739 222 739 C247 739 266 749 281 764 C300 783 307 806 307 826 C307 845 300 864 288 876 C276 888 256 895 236 895 C208 895 188 884 174 870 C159 854 149 831 149 809 L149 809 Z " />
<glyph glyph-name="dotlessi" unicode="&#x131;" horiz-adv-x="238" d="M111 433 L58 0 L180 0 L233 433 L111 433 Z " />
<glyph glyph-name="Jcircumflex" unicode="&#x134;" horiz-adv-x="390" d="M266 667 L213 237 C207 192 203 148 180 125 C166 111 149 106 132 106 C115 106 88 110 70 142 L-20 47 C-3 30 19 14 37 5 C73 -13 115 -15 136 -15 C177 -15 228 -9 272 32 C322 78 331 142 341 220 L396 667 L266 667 Z M343 820 L452 732 L518 796 L354 930 L158 796 L212 732 L343 820 Z " />
<glyph glyph-name="jcircumflex" unicode="&#x135;" horiz-adv-x="238" d="M111 433 L30 -229 L152 -229 L233 433 L111 433 Z M193 602 L292 510 L359 570 L206 708 L19 570 L72 510 L193 602 Z " />
<glyph glyph-name="Kcommaaccent" unicode="&#x136;" horiz-adv-x="617" d="M288 667 L158 667 L76 0 L206 0 L239 265 L264 289 L456 0 L612 0 L359 356 L678 667 L527 667 L254 401 L288 667 Z M170 -258 L250 -270 L380 -66 L268 -50 L170 -258 Z " />
<glyph glyph-name="kcommaaccent" unicode="&#x137;" horiz-adv-x="503" d="M148 729 L58 0 L180 0 L199 156 L227 178 L354 0 L500 0 L313 241 L544 433 L395 433 L215 283 L270 729 L148 729 Z M120 -258 L200 -270 L330 -66 L218 -50 L120 -258 Z " />
<glyph glyph-name="Lacute" unicode="&#x139;" horiz-adv-x="426" d="M158 667 L76 0 L207 0 L412 0 L426 112 L220 112 L288 667 L158 667 Z M235 728 L424 850 L343 920 L186 778 L235 728 Z " />
<glyph glyph-name="lacute" unicode="&#x13a;" horiz-adv-x="236" d="M148 729 L58 0 L180 0 L270 729 L148 729 Z M273 980 L137 830 L188 790 L354 924 L273 980 Z " />
<glyph glyph-name="Lcommaaccent" unicode="&#x13b;" horiz-adv-x="426" d="M158 667 L76 0 L207 0 L412 0 L426 112 L220 112 L288 667 L158 667 Z M110 -258 L190 -270 L320 -66 L208 -50 L110 -258 Z " />
<glyph glyph-name="lcommaaccent" unicode="&#x13c;" horiz-adv-x="236" d="M148 729 L58 0 L180 0 L270 729 L148 729 Z M-20 -258 L60 -270 L190 -66 L78 -50 L-20 -258 Z " />
<glyph glyph-name="Lcaron" unicode="&#x13d;" horiz-adv-x="426" d="M158 667 L76 0 L207 0 L412 0 L426 112 L220 112 L288 667 L158 667 Z M310 468 L394 452 L530 660 L416 680 L310 468 Z " />
<glyph glyph-name="lcaron" unicode="&#x13e;" horiz-adv-x="419" d="M148 729 L58 0 L180 0 L270 729 L148 729 Z M280 478 L364 462 L500 670 L386 690 L280 478 Z " />
<glyph glyph-name="Ldot" unicode="&#x13f;" horiz-adv-x="426" d="M158 667 L76 0 L207 0 L412 0 L426 112 L220 112 L288 667 L158 667 Z M307 326 C307 297 322 281 328 275 C341 263 359 256 380 256 C405 256 424 266 439 281 C458 300 465 323 465 343 C465 362 458 381 446 393 C434 405 414 412 394 412 C366 412 346 401 332 387 C317 371 307 348 307 326 L307 326 Z " />
<glyph glyph-name="ldot" unicode="&#x140;" horiz-adv-x="407" d="M148 729 L58 0 L180 0 L270 729 L148 729 Z M289 358 C289 337 298 320 309 309 C319 299 335 290 361 290 C389 290 408 302 420 313 C432 324 443 343 443 370 C443 396 433 412 424 422 C416 430 400 442 372 442 C342 442 323 428 313 418 C299 404 289 381 289 358 L289 358 Z " />
<glyph glyph-name="Lslash" unicode="&#x141;" horiz-adv-x="426" d="M158 667 L122 378 L30 323 L17 223 L110 278 L76 0 L205 0 L412 0 L426 112 L220 112 L248 341 L358 406 L370 506 L260 441 L288 667 L158 667 Z " />
<glyph glyph-name="lslash" unicode="&#x142;" horiz-adv-x="238" d="M147 729 L114 454 L33 400 L22 310 L103 364 L58 0 L180 0 L233 430 L313 484 L324 574 L244 520 L269 729 L147 729 Z " />
<glyph glyph-name="Nacute" unicode="&#x143;" horiz-adv-x="778" d="M206 0 L261 447 L610 0 L702 0 L784 667 L654 667 L599 222 L250 667 L158 667 L76 0 L206 0 Z M454 728 L643 850 L562 920 L405 778 L454 728 Z " />
<glyph glyph-name="nacute" unicode="&#x144;" horiz-adv-x="536" d="M58 0 L180 0 L207 221 C211 252 221 293 244 317 C256 329 277 343 312 343 C339 343 356 334 365 325 C374 317 385 300 385 270 C385 254 380 210 379 201 L354 0 L476 0 L505 238 C509 268 513 288 513 312 C513 342 507 378 479 407 C457 429 421 447 363 447 C329 447 304 441 279 427 C255 413 238 396 226 377 L233 433 L111 433 L58 0 Z M401 700 L265 550 L316 510 L482 644 L401 700 Z " />
<glyph glyph-name="Ncommaaccent" unicode="&#x145;" horiz-adv-x="778" d="M206 0 L261 447 L610 0 L702 0 L784 667 L654 667 L599 222 L250 667 L158 667 L76 0 L206 0 Z M295 -258 L375 -270 L505 -66 L393 -50 L295 -258 Z " />
<glyph glyph-name="ncommaaccent" unicode="&#x146;" horiz-adv-x="536" d="M58 0 L180 0 L207 221 C211 252 221 293 244 317 C256 329 277 343 312 343 C339 343 356 334 365 325 C374 317 385 300 385 270 C385 254 380 210 379 201 L354 0 L476 0 L505 238 C509 268 513 288 513 312 C513 342 507 378 479 407 C457 429 421 447 363 447 C329 447 304 441 279 427 C255 413 238 396 226 377 L233 433 L111 433 L58 0 Z M120 -258 L200 -270 L330 -66 L218 -50 L120 -258 Z " />
<glyph glyph-name="Ncaron" unicode="&#x147;" horiz-adv-x="778" d="M206 0 L261 447 L610 0 L702 0 L784 667 L654 667 L599 222 L250 667 L158 667 L76 0 L206 0 Z M490 842 L381 930 L315 866 L479 732 L675 866 L621 930 L490 842 Z " />
<glyph glyph-name="ncaron" unicode="&#x148;" horiz-adv-x="536" d="M58 0 L180 0 L207 221 C211 252 221 293 244 317 C256 329 277 343 312 343 C339 343 356 334 365 325 C374 317 385 300 385 270 C385 254 380 210 379 201 L354 0 L476 0 L505 238 C509 268 513 288 513 312 C513 342 507 378 479 407 C457 429 421 447 363 447 C329 447 304 441 279 427 C255 413 238 396 226 377 L233 433 L111 433 L58 0 Z M364 616 L265 708 L200 648 L353 510 L540 648 L485 708 L364 616 Z " />
<glyph glyph-name="Omacron" unicode="&#x14c;" horiz-adv-x="806" d="M484 682 C374 682 270 643 200 577 C131 512 85 409 85 299 C85 215 118 134 173 78 C212 38 287 -15 418 -15 C553 -15 643 39 696 94 C763 163 803 268 803 374 C803 473 765 548 715 596 C662 647 579 682 484 682 L484 682 Z M425 103 C363 103 309 126 273 164 C247 191 220 238 220 309 C220 381 246 451 297 499 C335 535 391 563 463 563 C536 563 586 535 615 505 C646 473 668 424 668 364 C668 289 637 216 589 169 C549 130 492 103 425 103 L425 103 Z M292 745 L658 745 L669 831 L303 831 L292 745 Z " />
<glyph glyph-name="omacron" unicode="&#x14d;" horiz-adv-x="572" d="M336 447 C235 447 173 408 138 374 C94 331 63 264 63 193 C63 125 88 77 120 46 C167 -1 225 -14 287 -14 C364 -14 429 5 486 59 C546 117 563 186 563 241 C563 309 535 356 507 385 C474 418 421 447 336 447 L336 447 Z M299 94 C271 94 239 105 219 125 C200 144 189 175 189 201 C189 235 202 276 232 304 C256 326 290 339 324 339 C353 339 383 328 403 309 C424 289 435 256 435 229 C435 195 419 157 394 132 C368 106 332 94 299 94 L299 94 Z M156 539 L520 539 L530 619 L166 619 L156 539 Z " />
<glyph glyph-name="Obreve" unicode="&#x14e;" horiz-adv-x="806" d="M484 682 C374 682 270 643 200 577 C131 512 85 409 85 299 C85 215 118 134 173 78 C212 38 287 -15 418 -15 C553 -15 643 39 696 94 C763 163 803 268 803 374 C803 473 765 548 715 596 C662 647 579 682 484 682 L484 682 Z M425 103 C363 103 309 126 273 164 C247 191 220 238 220 309 C220 381 246 451 297 499 C335 535 391 563 463 563 C536 563 586 535 615 505 C646 473 668 424 668 364 C668 289 637 216 589 169 C549 130 492 103 425 103 L425 103 Z M565 870 C560 852 549 837 536 827 C523 817 505 810 479 810 C453 810 433 818 422 830 C413 839 406 854 405 870 L317 870 C317 832 332 791 358 766 C378 746 415 726 481 726 C520 726 573 733 610 771 C631 793 650 833 657 870 L565 870 Z " />
<glyph glyph-name="obreve" unicode="&#x14f;" horiz-adv-x="572" d="M336 447 C235 447 173 408 138 374 C94 331 63 264 63 193 C63 125 88 77 120 46 C167 -1 225 -14 287 -14 C364 -14 429 5 486 59 C546 117 563 186 563 241 C563 309 535 356 507 385 C474 418 421 447 336 447 L336 447 Z M299 94 C271 94 239 105 219 125 C200 144 189 175 189 201 C189 235 202 276 232 304 C256 326 290 339 324 339 C353 339 383 328 403 309 C424 289 435 256 435 229 C435 195 419 157 394 132 C368 106 332 94 299 94 L299 94 Z M426 650 C421 632 410 615 398 605 C380 590 359 587 341 587 C314 587 297 596 287 606 C276 617 268 635 266 650 L186 650 C187 609 204 573 226 550 C262 514 310 509 339 509 C386 509 428 520 465 556 C487 577 507 608 514 650 L426 650 Z " />
<glyph glyph-name="Ohungarumlaut" unicode="&#x150;" horiz-adv-x="806" d="M484 682 C374 682 270 643 200 577 C131 512 85 409 85 299 C85 215 118 134 173 78 C212 38 287 -15 418 -15 C553 -15 643 39 696 94 C763 163 803 268 803 374 C803 473 765 548 715 596 C662 647 579 682 484 682 L484 682 Z M425 103 C363 103 309 126 273 164 C247 191 220 238 220 309 C220 381 246 451 297 499 C335 535 391 563 463 563 C536 563 586 535 615 505 C646 473 668 424 668 364 C668 289 637 216 589 169 C549 130 492 103 425 103 L425 103 Z M441 921 L312 768 L363 728 L524 862 L441 921 Z M641 920 L512 768 L563 728 L724 862 L641 920 Z " />
<glyph glyph-name="ohungarumlaut" unicode="&#x151;" horiz-adv-x="572" d="M336 447 C235 447 173 408 138 374 C94 331 63 264 63 193 C63 125 88 77 120 46 C167 -1 225 -14 287 -14 C364 -14 429 5 486 59 C546 117 563 186 563 241 C563 309 535 356 507 385 C474 418 421 447 336 447 L336 447 Z M299 94 C271 94 239 105 219 125 C200 144 189 175 189 201 C189 235 202 276 232 304 C256 326 290 339 324 339 C353 339 383 328 403 309 C424 289 435 256 435 229 C435 195 419 157 394 132 C368 106 332 94 299 94 L299 94 Z M309 690 L190 538 L235 498 L384 632 L309 690 Z M497 689 L378 538 L423 498 L572 632 L497 689 Z " />
<glyph glyph-name="OE" unicode="&#x152;" horiz-adv-x="1041" d="M1073 667 L709 667 L698 577 C677 609 650 632 609 652 C557 676 507 682 459 682 C355 682 271 656 198 584 C131 518 85 417 85 295 C85 196 118 121 175 65 C240 1 314 -15 395 -15 C427 -15 498 -12 554 18 C564 24 603 45 638 90 L627 0 L757 0 L991 0 L1005 112 L771 112 L793 294 L1017 294 L1031 406 L807 406 L825 555 L1059 555 L1073 667 Z M416 103 C364 103 312 117 270 162 C231 205 219 256 219 306 C219 389 247 455 290 499 C317 526 369 564 457 564 C530 564 575 535 601 509 C648 462 657 402 657 361 C657 280 627 214 585 171 C539 123 482 103 416 103 L416 103 Z " />
<glyph glyph-name="oe" unicode="&#x153;" horiz-adv-x="882" d="M748 139 C742 122 732 111 718 101 C698 86 681 82 657 82 C638 82 603 84 579 108 C558 128 547 166 547 196 L869 196 C877 274 868 347 817 396 C792 420 748 447 675 447 C636 447 599 442 564 424 C536 410 515 392 498 368 C477 393 453 412 424 425 C389 441 356 447 317 447 C262 447 190 436 134 380 C87 333 63 264 63 197 C63 123 90 76 117 47 C164 -3 222 -14 276 -14 C300 -14 355 -12 397 10 C421 23 450 48 469 70 C490 39 515 20 538 9 C583 -13 634 -14 650 -14 C703 -14 752 0 785 24 C819 48 845 88 858 121 L748 139 Z M295 94 C257 94 233 110 218 127 C202 145 190 171 190 204 C190 237 201 276 226 303 C247 326 277 339 316 339 C346 339 372 331 394 309 C416 287 426 261 426 230 C426 192 413 154 387 129 C366 108 332 94 295 94 L295 94 Z M560 274 C566 295 578 318 594 334 C617 356 642 361 669 361 C707 361 726 347 732 342 C751 326 763 296 765 274 L560 274 Z " />
<glyph glyph-name="Racute" unicode="&#x154;" horiz-adv-x="576" d="M158 667 L76 0 L206 0 L239 268 L255 268 L400 0 L556 0 L386 279 C430 286 479 308 509 337 C541 368 564 418 564 481 C564 545 540 585 517 609 C468 660 402 667 351 667 L158 667 Z M275 561 L316 561 C359 561 386 550 402 536 C425 516 429 490 429 471 C429 431 412 407 400 395 C375 370 331 360 296 360 L250 360 L275 561 Z M352 728 L541 850 L460 920 L303 778 L352 728 Z " />
<glyph glyph-name="racute" unicode="&#x155;" horiz-adv-x="360" d="M58 0 L180 0 L203 184 C208 228 226 282 253 309 C271 327 297 339 329 339 C347 339 362 335 376 328 L412 437 C393 444 377 447 355 447 C329 447 305 444 279 428 C256 414 237 392 225 371 L233 433 L111 433 L58 0 Z M344 700 L208 550 L259 510 L425 644 L344 700 Z " />
<glyph glyph-name="Rcommaaccent" unicode="&#x156;" horiz-adv-x="576" d="M158 667 L76 0 L206 0 L239 268 L255 268 L400 0 L556 0 L386 279 C430 286 479 308 509 337 C541 368 564 418 564 481 C564 545 540 585 517 609 C468 660 402 667 351 667 L158 667 Z M275 561 L316 561 C359 561 386 550 402 536 C425 516 429 490 429 471 C429 431 412 407 400 395 C375 370 331 360 296 360 L250 360 L275 561 Z M195 -258 L275 -270 L405 -66 L293 -50 L195 -258 Z " />
<glyph glyph-name="rcommaaccent" unicode="&#x157;" horiz-adv-x="360" d="M58 0 L180 0 L203 184 C208 228 226 282 253 309 C271 327 297 339 329 339 C347 339 362 335 376 328 L412 437 C393 444 377 447 355 447 C329 447 305 444 279 428 C256 414 237 392 225 371 L233 433 L111 433 L58 0 Z M60 -258 L140 -270 L270 -66 L158 -50 L60 -258 Z " />
<glyph glyph-name="Rcaron" unicode="&#x158;" horiz-adv-x="576" d="M158 667 L76 0 L206 0 L239 268 L255 268 L400 0 L556 0 L386 279 C430 286 479 308 509 337 C541 368 564 418 564 481 C564 545 540 585 517 609 C468 660 402 667 351 667 L158 667 Z M275 561 L316 561 C359 561 386 550 402 536 C425 516 429 490 429 471 C429 431 412 407 400 395 C375 370 331 360 296 360 L250 360 L275 561 Z M361 842 L252 930 L186 866 L350 732 L546 866 L492 930 L361 842 Z " />
<glyph glyph-name="rcaron" unicode="&#x159;" horiz-adv-x="360" d="M58 0 L180 0 L203 184 C208 228 226 282 253 309 C271 327 297 339 329 339 C347 339 362 335 376 328 L412 437 C393 444 377 447 355 447 C329 447 305 444 279 428 C256 414 237 392 225 371 L233 433 L111 433 L58 0 Z M284 616 L185 708 L120 648 L273 510 L460 648 L405 708 L284 616 Z " />
<glyph glyph-name="Sacute" unicode="&#x15a;" horiz-adv-x="534" d="M546 604 C483 675 409 682 366 682 C307 682 239 672 185 618 C143 576 128 526 128 474 C128 439 134 398 169 364 C184 349 208 333 250 315 L288 299 C314 288 334 284 356 266 C378 248 386 229 386 205 C386 173 375 151 361 136 C335 107 300 103 274 103 C244 103 216 109 190 131 C172 146 153 173 143 192 L48 111 C69 79 99 45 133 23 C176 -5 219 -15 270 -15 C325 -15 397 -5 452 48 C495 89 523 157 523 230 C523 274 512 305 482 337 C456 365 425 382 399 393 L354 412 C321 426 304 433 291 442 C272 455 263 471 263 493 C263 516 273 535 289 549 C302 561 324 572 360 572 C415 572 449 542 467 515 L546 604 Z M355 728 L544 850 L463 920 L306 778 L355 728 Z " />
<glyph glyph-name="sacute" unicode="&#x15b;" horiz-adv-x="400" d="M399 403 C385 413 364 426 345 433 C320 443 288 447 260 447 C202 447 162 429 137 405 C112 381 94 345 94 302 C94 269 103 248 123 228 C141 210 162 200 180 193 L210 181 C229 174 244 168 253 160 C262 151 264 141 264 133 C264 117 257 103 247 95 C236 86 216 82 200 82 C183 82 165 88 150 96 C134 105 120 118 110 132 L37 58 C55 39 81 18 103 7 C128 -5 161 -14 205 -14 C245 -14 302 -8 347 37 C372 62 392 98 392 148 C392 171 387 204 362 230 C346 246 319 261 295 269 L258 281 C239 287 230 291 223 297 C216 303 214 310 214 319 C214 332 219 340 223 345 C235 358 259 359 264 359 C281 359 292 356 305 350 C318 344 327 337 336 328 L399 403 Z M356 700 L220 550 L271 510 L437 644 L356 700 Z " />
<glyph glyph-name="Scircumflex" unicode="&#x15c;" horiz-adv-x="534" d="M546 604 C483 675 409 682 366 682 C307 682 239 672 185 618 C143 576 128 526 128 474 C128 439 134 398 169 364 C184 349 208 333 250 315 L288 299 C314 288 334 284 356 266 C378 248 386 229 386 205 C386 173 375 151 361 136 C335 107 300 103 274 103 C244 103 216 109 190 131 C172 146 153 173 143 192 L48 111 C69 79 99 45 133 23 C176 -5 219 -15 270 -15 C325 -15 397 -5 452 48 C495 89 523 157 523 230 C523 274 512 305 482 337 C456 365 425 382 399 393 L354 412 C321 426 304 433 291 442 C272 455 263 471 263 493 C263 516 273 535 289 549 C302 561 324 572 360 572 C415 572 449 542 467 515 L546 604 Z M373 820 L482 732 L548 796 L384 930 L188 796 L242 732 L373 820 Z " />
<glyph glyph-name="scircumflex" unicode="&#x15d;" horiz-adv-x="400" d="M399 403 C385 413 364 426 345 433 C320 443 288 447 260 447 C202 447 162 429 137 405 C112 381 94 345 94 302 C94 269 103 248 123 228 C141 210 162 200 180 193 L210 181 C229 174 244 168 253 160 C262 151 264 141 264 133 C264 117 257 103 247 95 C236 86 216 82 200 82 C183 82 165 88 150 96 C134 105 120 118 110 132 L37 58 C55 39 81 18 103 7 C128 -5 161 -14 205 -14 C245 -14 302 -8 347 37 C372 62 392 98 392 148 C392 171 387 204 362 230 C346 246 319 261 295 269 L258 281 C239 287 230 291 223 297 C216 303 214 310 214 319 C214 332 219 340 223 345 C235 358 259 359 264 359 C281 359 292 356 305 350 C318 344 327 337 336 328 L399 403 Z M286 602 L385 510 L450 570 L297 708 L110 570 L165 510 L286 602 Z " />
<glyph glyph-name="Scedilla" unicode="&#x15e;" horiz-adv-x="534" d="M546 604 C483 675 409 682 366 682 C307 682 239 672 185 618 C143 576 128 526 128 474 C128 439 134 398 169 364 C184 349 208 333 250 315 L288 299 C314 288 334 284 356 266 C378 248 386 229 386 205 C386 173 375 151 361 136 C335 107 300 103 274 103 C244 103 216 109 190 131 C172 146 153 173 143 192 L48 111 C69 79 99 45 133 23 C176 -5 219 -15 270 -15 C325 -15 397 -5 452 48 C495 89 523 157 523 230 C523 274 512 305 482 337 C456 365 425 382 399 393 L354 412 C321 426 304 433 291 442 C272 455 263 471 263 493 C263 516 273 535 289 549 C302 561 324 572 360 572 C415 572 449 542 467 515 L546 604 Z M264 -46 L140 -208 L210 -244 L360 -90 L264 -46 Z " />
<glyph glyph-name="scedilla" unicode="&#x15f;" horiz-adv-x="400" d="M399 403 C385 413 364 426 345 433 C320 443 288 447 260 447 C202 447 162 429 137 405 C112 381 94 345 94 302 C94 269 103 248 123 228 C141 210 162 200 180 193 L210 181 C229 174 244 168 253 160 C262 151 264 141 264 133 C264 117 257 103 247 95 C236 86 216 82 200 82 C183 82 165 88 150 96 C134 105 120 118 110 132 L37 58 C55 39 81 18 103 7 C128 -5 161 -14 205 -14 C245 -14 302 -8 347 37 C372 62 392 98 392 148 C392 171 387 204 362 230 C346 246 319 261 295 269 L258 281 C239 287 230 291 223 297 C216 303 214 310 214 319 C214 332 219 340 223 345 C235 358 259 359 264 359 C281 359 292 356 305 350 C318 344 327 337 336 328 L399 403 Z M180 -46 L62 -200 L126 -236 L268 -90 L180 -46 Z " />
<glyph glyph-name="Scaron" unicode="&#x160;" horiz-adv-x="534" d="M546 604 C483 675 409 682 366 682 C307 682 239 672 185 618 C143 576 128 526 128 474 C128 439 134 398 169 364 C184 349 208 333 250 315 L288 299 C314 288 334 284 356 266 C378 248 386 229 386 205 C386 173 375 151 361 136 C335 107 300 103 274 103 C244 103 216 109 190 131 C172 146 153 173 143 192 L48 111 C69 79 99 45 133 23 C176 -5 219 -15 270 -15 C325 -15 397 -5 452 48 C495 89 523 157 523 230 C523 274 512 305 482 337 C456 365 425 382 399 393 L354 412 C321 426 304 433 291 442 C272 455 263 471 263 493 C263 516 273 535 289 549 C302 561 324 572 360 572 C415 572 449 542 467 515 L546 604 Z M371 842 L262 930 L196 866 L360 732 L556 866 L502 930 L371 842 Z " />
<glyph glyph-name="scaron" unicode="&#x161;" horiz-adv-x="400" d="M399 403 C385 413 364 426 345 433 C320 443 288 447 260 447 C202 447 162 429 137 405 C112 381 94 345 94 302 C94 269 103 248 123 228 C141 210 162 200 180 193 L210 181 C229 174 244 168 253 160 C262 151 264 141 264 133 C264 117 257 103 247 95 C236 86 216 82 200 82 C183 82 165 88 150 96 C134 105 120 118 110 132 L37 58 C55 39 81 18 103 7 C128 -5 161 -14 205 -14 C245 -14 302 -8 347 37 C372 62 392 98 392 148 C392 171 387 204 362 230 C346 246 319 261 295 269 L258 281 C239 287 230 291 223 297 C216 303 214 310 214 319 C214 332 219 340 223 345 C235 358 259 359 264 359 C281 359 292 356 305 350 C318 344 327 337 336 328 L399 403 Z M284 616 L185 708 L120 648 L273 510 L460 648 L405 708 L284 616 Z " />
<glyph glyph-name="Tcedilla" unicode="&#x162;" horiz-adv-x="442" d="M504 555 L518 667 L88 667 L74 555 L224 555 L156 0 L286 0 L354 555 L504 555 Z M204 -46 L80 -208 L150 -244 L300 -90 L204 -46 Z " />
<glyph glyph-name="tcedilla" unicode="&#x163;" horiz-adv-x="270" d="M304 329 L317 433 L233 433 L251 581 L129 581 L111 433 L63 433 L50 329 L98 329 L58 0 L180 0 L220 329 L304 329 Z M90 -46 L-28 -200 L36 -236 L178 -90 L90 -46 Z " />
<glyph glyph-name="Tcaron" unicode="&#x164;" horiz-adv-x="442" d="M504 555 L518 667 L88 667 L74 555 L224 555 L156 0 L286 0 L354 555 L504 555 Z M322 842 L213 930 L147 866 L311 732 L507 866 L453 930 L322 842 Z " />
<glyph glyph-name="tcaron" unicode="&#x165;" horiz-adv-x="390" d="M304 329 L317 433 L233 433 L251 581 L129 581 L111 433 L63 433 L50 329 L98 329 L58 0 L180 0 L220 329 L304 329 Z M270 478 L354 462 L490 670 L376 690 L270 478 Z " />
<glyph glyph-name="Utilde" unicode="&#x168;" horiz-adv-x="686" d="M156 667 L114 319 C111 297 105 233 105 206 C105 152 116 97 160 52 C216 -5 296 -15 358 -15 C415 -15 502 -9 565 55 C624 115 634 198 644 276 L692 667 L562 667 L515 290 C507 225 501 167 453 131 C430 114 397 103 359 103 C327 103 291 113 268 134 C249 152 234 185 234 224 C234 237 239 278 241 298 L286 667 L156 667 Z M580 869 C575 860 567 849 561 843 C549 832 536 829 527 829 C512 829 496 835 477 843 L439 859 C421 867 397 878 371 878 C334 878 306 859 289 844 C284 840 262 820 242 789 L306 741 C308 745 315 755 325 765 C339 778 352 781 362 781 C378 781 392 773 412 765 L445 751 C469 741 497 732 519 732 C537 732 563 738 589 760 C605 774 628 801 642 821 L580 869 Z " />
<glyph glyph-name="utilde" unicode="&#x169;" horiz-adv-x="537" d="M112 433 L85 210 C81 179 79 159 79 142 C79 76 114 40 137 23 C172 -2 226 -14 280 -14 C321 -14 370 -7 409 15 C474 52 493 114 503 194 L532 433 L410 433 L382 205 C377 166 372 136 349 114 C335 101 313 90 282 90 C257 90 234 98 221 112 C212 121 203 137 203 165 C203 171 204 182 208 217 L234 433 L112 433 Z M475 647 C463 621 444 606 425 606 C413 606 398 611 373 622 L337 637 C318 645 300 652 274 652 C239 652 213 641 191 621 C176 607 159 586 150 571 L205 523 C216 540 239 564 265 564 C278 564 298 557 314 550 L346 536 C365 527 388 518 416 518 C443 518 465 527 485 545 C500 558 518 582 529 599 L475 647 Z " />
<glyph glyph-name="Umacron" unicode="&#x16a;" horiz-adv-x="686" d="M156 667 L114 319 C111 297 105 233 105 206 C105 152 116 97 160 52 C216 -5 296 -15 358 -15 C415 -15 502 -9 565 55 C624 115 634 198 644 276 L692 667 L562 667 L515 290 C507 225 501 167 453 131 C430 114 397 103 359 103 C327 103 291 113 268 134 C249 152 234 185 234 224 C234 237 239 278 241 298 L286 667 L156 667 Z M248 745 L614 745 L625 831 L259 831 L248 745 Z " />
<glyph glyph-name="umacron" unicode="&#x16b;" horiz-adv-x="537" d="M112 433 L85 210 C81 179 79 159 79 142 C79 76 114 40 137 23 C172 -2 226 -14 280 -14 C321 -14 370 -7 409 15 C474 52 493 114 503 194 L532 433 L410 433 L382 205 C377 166 372 136 349 114 C335 101 313 90 282 90 C257 90 234 98 221 112 C212 121 203 137 203 165 C203 171 204 182 208 217 L234 433 L112 433 Z M154 539 L518 539 L528 619 L164 619 L154 539 Z " />
<glyph glyph-name="Ubreve" unicode="&#x16c;" horiz-adv-x="686" d="M156 667 L114 319 C111 297 105 233 105 206 C105 152 116 97 160 52 C216 -5 296 -15 358 -15 C415 -15 502 -9 565 55 C624 115 634 198 644 276 L692 667 L562 667 L515 290 C507 225 501 167 453 131 C430 114 397 103 359 103 C327 103 291 113 268 134 C249 152 234 185 234 224 C234 237 239 278 241 298 L286 667 L156 667 Z M521 870 C516 852 505 837 492 827 C479 817 461 810 435 810 C409 810 389 818 378 830 C369 839 362 854 361 870 L273 870 C273 832 288 791 314 766 C334 746 371 726 437 726 C476 726 529 733 566 771 C587 793 606 833 613 870 L521 870 Z " />
<glyph glyph-name="ubreve" unicode="&#x16d;" horiz-adv-x="537" d="M112 433 L85 210 C81 179 79 159 79 142 C79 76 114 40 137 23 C172 -2 226 -14 280 -14 C321 -14 370 -7 409 15 C474 52 493 114 503 194 L532 433 L410 433 L382 205 C377 166 372 136 349 114 C335 101 313 90 282 90 C257 90 234 98 221 112 C212 121 203 137 203 165 C203 171 204 182 208 217 L234 433 L112 433 Z M424 650 C419 632 408 615 396 605 C378 590 357 587 339 587 C312 587 295 596 285 606 C274 617 266 635 264 650 L184 650 C185 609 202 573 224 550 C260 514 308 509 337 509 C384 509 426 520 463 556 C485 577 505 608 512 650 L424 650 Z " />
<glyph glyph-name="Uring" unicode="&#x16e;" horiz-adv-x="686" d="M156 667 L114 319 C111 297 105 233 105 206 C105 152 116 97 160 52 C216 -5 296 -15 358 -15 C415 -15 502 -9 565 55 C624 115 634 198 644 276 L692 667 L562 667 L515 290 C507 225 501 167 453 131 C430 114 397 103 359 103 C327 103 291 113 268 134 C249 152 234 185 234 224 C234 237 239 278 241 298 L286 667 L156 667 Z M337 808 C337 784 347 762 362 747 C377 731 399 722 428 722 C459 722 484 734 504 753 C531 780 537 809 537 830 C537 863 523 884 512 895 C498 909 477 920 448 920 C419 920 392 910 369 886 C348 864 337 835 337 808 L337 808 Z M397 815 C397 826 401 839 411 848 C421 858 433 861 442 861 C452 861 462 857 467 852 C473 846 477 836 477 828 C477 816 472 803 465 795 C458 787 446 781 433 781 C423 781 411 786 405 793 C400 798 397 807 397 815 L397 815 Z " />
<glyph glyph-name="uring" unicode="&#x16f;" horiz-adv-x="537" d="M112 433 L85 210 C81 179 79 159 79 142 C79 76 114 40 137 23 C172 -2 226 -14 280 -14 C321 -14 370 -7 409 15 C474 52 493 114 503 194 L532 433 L410 433 L382 205 C377 166 372 136 349 114 C335 101 313 90 282 90 C257 90 234 98 221 112 C212 121 203 137 203 165 C203 171 204 182 208 217 L234 433 L112 433 Z M247 589 C247 567 254 548 271 531 C288 514 309 506 337 506 C367 506 388 515 406 533 C427 554 436 578 436 607 C436 639 423 659 410 672 C393 688 374 694 353 694 C315 694 290 677 276 662 C259 644 247 617 247 589 L247 589 Z M303 595 C303 606 307 619 317 628 C326 636 335 639 346 639 C356 639 364 636 371 629 C378 622 381 614 381 604 C381 593 377 582 369 574 C362 566 351 561 337 561 C322 561 314 568 311 572 C306 578 303 587 303 595 L303 595 Z " />
<glyph glyph-name="Uhungarumlaut" unicode="&#x170;" horiz-adv-x="686" d="M156 667 L114 319 C111 297 105 233 105 206 C105 152 116 97 160 52 C216 -5 296 -15 358 -15 C415 -15 502 -9 565 55 C624 115 634 198 644 276 L692 667 L562 667 L515 290 C507 225 501 167 453 131 C430 114 397 103 359 103 C327 103 291 113 268 134 C249 152 234 185 234 224 C234 237 239 278 241 298 L286 667 L156 667 Z M391 921 L262 768 L313 728 L474 862 L391 921 Z M591 920 L462 768 L513 728 L674 862 L591 920 Z " />
<glyph glyph-name="uhungarumlaut" unicode="&#x171;" horiz-adv-x="537" d="M112 433 L85 210 C81 179 79 159 79 142 C79 76 114 40 137 23 C172 -2 226 -14 280 -14 C321 -14 370 -7 409 15 C474 52 493 114 503 194 L532 433 L410 433 L382 205 C377 166 372 136 349 114 C335 101 313 90 282 90 C257 90 234 98 221 112 C212 121 203 137 203 165 C203 171 204 182 208 217 L234 433 L112 433 Z M307 690 L188 538 L233 498 L382 632 L307 690 Z M495 689 L376 538 L421 498 L570 632 L495 689 Z " />
<glyph glyph-name="Uogonek" unicode="&#x172;" horiz-adv-x="686" d="M156 667 L114 319 C111 298 105 232 105 202 C105 153 116 97 160 52 C206 6 279 -15 344 -15 C352 -15 360 -15 368 -14 C352 -26 335 -42 324 -59 C312 -77 305 -96 305 -117 C305 -147 318 -164 329 -173 C345 -186 367 -193 391 -193 C407 -193 430 -190 455 -176 L477 -107 C463 -114 446 -119 432 -119 C422 -119 411 -116 404 -111 C400 -108 393 -101 393 -87 C393 -72 401 -54 421 -37 C440 -21 466 -7 494 8 C524 25 558 45 585 77 C625 126 632 177 640 244 L692 667 L562 667 L515 290 C507 225 501 167 453 131 C430 114 397 103 359 103 C327 103 291 113 268 134 C248 152 234 184 234 225 C234 234 235 248 241 298 L286 667 L156 667 Z " />
<glyph glyph-name="uogonek" unicode="&#x173;" horiz-adv-x="538" d="M112 433 L85 210 C81 179 79 159 79 142 C79 76 114 39 137 23 C171 -1 228 -14 275 -14 C288 -14 302 -13 313 -11 C297 -23 281 -40 271 -55 C256 -77 251 -99 251 -118 C251 -142 261 -159 276 -171 C283 -177 302 -189 335 -189 C354 -189 373 -185 398 -172 L421 -105 C396 -116 386 -117 372 -117 C362 -117 352 -116 343 -108 C335 -101 332 -92 332 -81 C332 -67 337 -53 345 -42 C357 -24 374 -12 394 2 C425 23 459 46 479 90 C491 116 497 145 500 171 L532 433 L410 433 L382 205 C377 166 372 136 349 114 C335 101 313 90 282 90 C257 90 234 98 221 112 C212 121 203 137 203 165 C203 171 204 182 208 217 L234 433 L112 433 Z " />
<glyph glyph-name="Ydieresis" unicode="&#x178;" horiz-adv-x="590" d="M227 0 L357 0 L394 305 L674 667 L514 667 L342 435 L228 667 L80 667 L264 305 L227 0 Z M424 800 C424 781 431 767 441 757 C449 749 465 739 489 739 C512 739 530 748 544 762 C561 779 568 801 568 820 C568 838 561 854 550 865 C539 876 523 883 504 883 C485 883 462 875 447 859 C432 844 424 822 424 800 L424 800 Z M200 800 C200 781 207 767 217 757 C225 749 241 739 265 739 C288 739 306 748 320 762 C337 779 344 801 344 820 C344 838 337 854 326 865 C315 876 299 883 280 883 C261 883 238 875 223 859 C208 844 200 822 200 800 L200 800 Z " />
<glyph glyph-name="Zacute" unicode="&#x179;" horiz-adv-x="584" d="M644 667 L155 667 L141 555 L414 555 L22 0 L546 0 L560 112 L252 112 L644 667 Z M365 728 L554 850 L473 920 L316 778 L365 728 Z " />
<glyph glyph-name="zacute" unicode="&#x17a;" horiz-adv-x="484" d="M525 433 L103 433 L90 329 L298 329 L12 0 L455 0 L468 104 L239 104 L525 433 Z M396 700 L260 550 L311 510 L477 644 L396 700 Z " />
<glyph glyph-name="Zdotaccent" unicode="&#x17b;" horiz-adv-x="584" d="M644 667 L155 667 L141 555 L414 555 L22 0 L546 0 L560 112 L252 112 L644 667 Z M317 809 C317 780 332 764 338 758 C351 746 369 739 390 739 C415 739 434 749 449 764 C468 783 475 806 475 826 C475 845 468 864 456 876 C444 888 424 895 404 895 C376 895 356 884 342 870 C327 854 317 831 317 809 L317 809 Z " />
<glyph glyph-name="zdotaccent" unicode="&#x17c;" horiz-adv-x="484" d="M525 433 L103 433 L90 329 L298 329 L12 0 L455 0 L468 104 L239 104 L525 433 Z M235 582 C235 561 244 544 255 533 C265 523 281 514 307 514 C335 514 354 526 366 537 C378 548 389 567 389 594 C389 620 379 636 370 646 C362 654 346 666 318 666 C288 666 269 652 259 642 C245 628 235 605 235 582 L235 582 Z " />
<glyph glyph-name="Zcaron" unicode="&#x17d;" horiz-adv-x="584" d="M644 667 L155 667 L141 555 L414 555 L22 0 L546 0 L560 112 L252 112 L644 667 Z M411 842 L302 930 L236 866 L400 732 L596 866 L542 930 L411 842 Z " />
<glyph glyph-name="zcaron" unicode="&#x17e;" horiz-adv-x="484" d="M525 433 L103 433 L90 329 L298 329 L12 0 L455 0 L468 104 L239 104 L525 433 Z M324 616 L225 708 L160 648 L313 510 L500 648 L445 708 L324 616 Z " />
<glyph glyph-name="uni018F" unicode="&#x18f;" horiz-adv-x="763" d="M88 377 C76 275 101 165 156 93 C223 5 305 -15 408 -15 C494 -15 569 -1 646 72 C705 129 760 220 760 362 C760 468 725 545 672 598 C601 669 513 682 440 682 C384 682 317 673 255 637 C211 612 167 570 138 535 L252 474 C280 509 310 528 321 535 C358 557 394 564 434 564 C482 564 531 552 570 513 C602 481 625 433 626 377 L88 377 Z M613 277 C605 235 584 193 554 162 C511 118 458 103 403 103 C342 103 302 123 277 147 C244 179 225 232 223 277 L613 277 Z " />
<glyph glyph-name="florin" unicode="&#x192;" horiz-adv-x="568" d="M272 347 L208 90 C197 44 182 -13 150 -41 C130 -58 100 -67 68 -67 C57 -67 47 -66 36 -64 L9 -176 C26 -179 40 -180 58 -180 C132 -180 189 -165 236 -122 C282 -79 306 -20 331 81 L396 347 L504 347 L526 433 L418 433 L450 552 C460 589 472 604 480 612 C491 622 508 629 527 629 C544 629 564 623 581 614 L608 721 C595 728 570 740 523 740 C460 740 418 714 395 692 C354 653 338 601 328 563 L294 433 L234 433 L212 347 L272 347 Z " />
<glyph glyph-name="uni01CF" unicode="&#x1cf;" horiz-adv-x="282" d="M158 667 L76 0 L206 0 L288 667 L158 667 Z M244 840 L162 920 L101 866 L232 742 L393 866 L346 920 L244 840 Z " />
<glyph glyph-name="uni01D0" unicode="&#x1d0;" horiz-adv-x="238" d="M111 433 L58 0 L180 0 L233 433 L111 433 Z M196 630 L118 708 L56 652 L184 524 L344 652 L294 708 L196 630 Z " />
<glyph glyph-name="uni01DD" unicode="&#x1dd;" horiz-adv-x="525" d="M201 297 C210 316 224 328 236 336 C254 347 274 351 296 351 C326 351 351 341 365 326 C383 308 392 275 390 247 L66 247 C58 178 73 92 124 40 C166 -3 219 -14 274 -14 C347 -14 397 4 445 53 C499 108 516 174 516 244 C516 289 507 346 459 392 C415 434 361 447 305 447 C259 447 212 439 167 409 C133 386 105 353 86 316 L201 297 Z M381 169 C374 127 350 103 346 99 C320 75 289 72 269 72 C247 72 224 77 204 96 C186 113 174 142 172 169 L381 169 Z " />
<glyph glyph-name="Gcaron" unicode="&#x1e6;" horiz-adv-x="766" d="M446 245 L618 245 C607 212 586 174 556 148 C511 109 458 103 420 103 C377 103 322 113 277 158 C253 182 219 229 219 308 C219 380 246 453 292 499 C325 532 378 564 455 564 C495 564 531 555 563 535 C588 520 612 497 630 464 L747 531 C720 577 684 612 647 635 C586 673 523 682 470 682 C338 682 252 631 198 579 C135 518 85 421 85 301 C85 189 129 117 176 72 C247 3 333 -15 410 -15 C490 -15 579 3 653 77 C735 159 759 281 766 357 L460 357 L446 245 Z M484 842 L375 930 L309 866 L473 732 L669 866 L615 930 L484 842 Z " />
<glyph glyph-name="gcaron" unicode="&#x1e7;" horiz-adv-x="564" d="M430 377 C415 402 395 417 380 426 C358 439 328 447 289 447 C215 447 165 416 135 387 C89 344 57 276 57 194 C57 122 82 71 114 39 C154 -1 203 -14 256 -14 C285 -14 312 -8 337 7 C367 25 386 51 391 58 L383 -3 C379 -32 371 -71 344 -97 C326 -114 298 -126 260 -126 C226 -126 205 -115 194 -104 C180 -91 171 -69 169 -51 L41 -51 C46 -98 66 -143 94 -172 C140 -221 204 -230 256 -230 C351 -230 410 -200 442 -167 C494 -114 502 -31 508 20 L559 433 L437 433 L430 377 Z M312 339 C347 339 375 327 393 311 C408 297 426 271 426 231 C426 192 410 151 384 126 C369 112 340 94 291 94 C266 94 238 101 215 124 C201 138 183 164 183 204 C183 241 196 282 225 308 C241 323 269 339 312 339 L312 339 Z M334 616 L235 708 L170 648 L323 510 L510 648 L455 708 L334 616 Z " />
<glyph glyph-name="AEacute" unicode="&#x1fc;" horiz-adv-x="920" d="M533 0 L914 0 L884 112 L638 112 L587 294 L829 294 L797 406 L556 406 L514 555 L759 555 L729 667 L377 667 L6 0 L146 0 L222 140 L491 140 L533 0 Z M276 246 L404 486 L466 246 L276 246 Z M525 728 L714 850 L633 920 L476 778 L525 728 Z " />
<glyph glyph-name="aeacute" unicode="&#x1fd;" horiz-adv-x="810" d="M435 374 C421 400 402 416 376 428 C346 442 317 447 284 447 C243 447 197 440 153 425 L141 328 C181 343 219 351 259 351 C303 351 324 340 333 333 C362 312 364 283 364 262 L364 241 C323 264 282 271 240 271 C206 271 153 267 112 241 C68 213 51 172 51 125 C51 90 60 58 88 31 C129 -9 188 -14 229 -14 C262 -14 306 -9 337 4 C351 10 380 24 405 57 C422 38 443 20 466 9 C475 4 514 -14 578 -14 C631 -14 680 0 713 24 C747 48 773 88 786 121 L676 139 C670 122 660 111 646 101 C626 86 609 82 585 82 C566 82 531 84 507 108 C486 128 475 166 475 196 L797 196 C805 273 796 347 745 396 C721 420 675 447 600 447 C562 447 526 440 494 423 C476 413 454 398 435 374 L435 374 Z M171 126 C171 138 174 157 197 171 C218 184 241 185 262 185 C291 185 309 180 322 173 C341 163 348 148 348 133 C348 122 345 101 318 86 C300 76 276 72 255 72 C233 72 207 78 191 89 C175 100 171 115 171 126 L171 126 Z M487 274 C493 295 505 318 521 334 C544 356 569 361 596 361 C634 361 653 347 659 342 C678 326 690 296 692 274 L487 274 Z M559 700 L423 550 L474 510 L640 644 L559 700 Z " />
<glyph glyph-name="Scommaaccent" unicode="&#x218;" horiz-adv-x="534" d="M546 604 C483 675 409 682 366 682 C307 682 239 672 185 618 C143 576 128 526 128 474 C128 439 134 398 169 364 C184 349 208 333 250 315 L288 299 C314 288 334 284 356 266 C378 248 386 229 386 205 C386 173 375 151 361 136 C335 107 300 103 274 103 C244 103 216 109 190 131 C172 146 153 173 143 192 L48 111 C69 79 99 45 133 23 C176 -5 219 -15 270 -15 C325 -15 397 -5 452 48 C495 89 523 157 523 230 C523 274 512 305 482 337 C456 365 425 382 399 393 L354 412 C321 426 304 433 291 442 C272 455 263 471 263 493 C263 516 273 535 289 549 C302 561 324 572 360 572 C415 572 449 542 467 515 L546 604 Z M155 -258 L235 -270 L365 -66 L253 -50 L155 -258 Z " />
<glyph glyph-name="scommaaccent" unicode="&#x219;" horiz-adv-x="400" d="M399 403 C385 413 364 426 345 433 C320 443 288 447 260 447 C202 447 162 429 137 405 C112 381 94 345 94 302 C94 269 103 248 123 228 C141 210 162 200 180 193 L210 181 C229 174 244 168 253 160 C262 151 264 141 264 133 C264 117 257 103 247 95 C236 86 216 82 200 82 C183 82 165 88 150 96 C134 105 120 118 110 132 L37 58 C55 39 81 18 103 7 C128 -5 161 -14 205 -14 C245 -14 302 -8 347 37 C372 62 392 98 392 148 C392 171 387 204 362 230 C346 246 319 261 295 269 L258 281 C239 287 230 291 223 297 C216 303 214 310 214 319 C214 332 219 340 223 345 C235 358 259 359 264 359 C281 359 292 356 305 350 C318 344 327 337 336 328 L399 403 Z M70 -258 L150 -270 L280 -66 L168 -50 L70 -258 Z " />
<glyph glyph-name="Tcommaaccent" unicode="&#x21a;" horiz-adv-x="442" d="M504 555 L518 667 L88 667 L74 555 L224 555 L156 0 L286 0 L354 555 L504 555 Z M73 -258 L153 -270 L283 -66 L171 -50 L73 -258 Z " />
<glyph glyph-name="tcommaaccent" unicode="&#x21b;" horiz-adv-x="270" d="M304 329 L317 433 L233 433 L251 581 L129 581 L111 433 L63 433 L50 329 L98 329 L58 0 L180 0 L220 329 L304 329 Z M-20 -258 L60 -270 L190 -66 L78 -50 L-20 -258 Z " />
<glyph glyph-name="uni0228" unicode="&#x228;" horiz-adv-x="496" d="M528 667 L158 667 L76 0 L206 0 L446 0 L460 112 L220 112 L242 294 L472 294 L486 406 L256 406 L274 555 L514 555 L528 667 Z M264 -46 L140 -208 L210 -244 L360 -90 L264 -46 Z " />
<glyph glyph-name="uni0229" unicode="&#x229;" horiz-adv-x="526" d="M393 141 C384 125 369 107 351 96 C328 83 300 82 285 82 C263 82 236 86 214 109 C196 127 184 156 189 196 L513 196 C515 209 515 222 515 240 C515 293 506 352 459 397 C417 437 363 447 311 447 C258 447 193 438 138 383 C90 336 63 261 63 186 C63 115 91 71 115 46 C161 -3 218 -14 276 -14 C315 -14 363 -9 406 15 C441 35 476 71 498 116 L393 141 Z M203 274 C210 298 224 319 239 333 C256 348 280 361 313 361 C338 361 364 353 381 337 C396 323 407 299 408 274 L203 274 Z M274 -46 L156 -200 L220 -236 L362 -90 L274 -46 Z " />
<glyph glyph-name="uni0237" unicode="&#x237;" horiz-adv-x="238" d="M111 433 L30 -229 L152 -229 L233 433 L111 433 Z " />
<glyph glyph-name="uni0259" unicode="&#x259;" horiz-adv-x="525" d="M201 297 C210 316 224 328 236 336 C254 347 274 351 296 351 C326 351 351 341 365 326 C383 308 392 275 390 247 L66 247 C58 178 73 92 124 40 C166 -3 219 -14 274 -14 C347 -14 397 4 445 53 C499 108 516 174 516 244 C516 289 507 346 459 392 C415 434 361 447 305 447 C259 447 212 439 167 409 C133 386 105 353 86 316 L201 297 Z M381 169 C374 127 350 103 346 99 C320 75 289 72 269 72 C247 72 224 77 204 96 C186 113 174 142 172 169 L381 169 Z " />
<glyph glyph-name="afii57929" unicode="&#x2bc;" horiz-adv-x="500" d="M160 478 L244 462 L380 670 L266 690 L160 478 Z " />
<glyph glyph-name="circumflex" unicode="&#x2c6;" horiz-adv-x="500" d="M326 602 L425 510 L490 570 L337 708 L150 570 L205 510 L326 602 Z " />
<glyph glyph-name="caron" unicode="&#x2c7;" horiz-adv-x="500" d="M324 616 L225 708 L160 648 L313 510 L500 648 L445 708 L324 616 Z " />
<glyph glyph-name="uni02C9" unicode="&#x2c9;" horiz-adv-x="500" d="M136 539 L500 539 L510 619 L146 619 L136 539 Z " />
<glyph glyph-name="breve" unicode="&#x2d8;" horiz-adv-x="500" d="M406 650 C401 632 390 615 378 605 C360 590 339 587 321 587 C294 587 277 596 267 606 C256 617 248 635 246 650 L166 650 C167 609 184 573 206 550 C242 514 290 509 319 509 C366 509 408 520 445 556 C467 577 487 608 494 650 L406 650 Z " />
<glyph glyph-name="dotaccent" unicode="&#x2d9;" horiz-adv-x="500" d="M245 582 C245 561 254 544 265 533 C275 523 291 514 317 514 C345 514 364 526 376 537 C388 548 399 567 399 594 C399 620 389 636 380 646 C372 654 356 666 328 666 C298 666 279 652 269 642 C255 628 245 605 245 582 L245 582 Z " />
<glyph glyph-name="ring" unicode="&#x2da;" horiz-adv-x="500" d="M229 589 C229 567 236 548 253 531 C270 514 291 506 319 506 C349 506 370 515 388 533 C409 554 418 578 418 607 C418 639 405 659 392 672 C375 688 356 694 335 694 C297 694 272 677 258 662 C241 644 229 617 229 589 L229 589 Z M285 595 C285 606 289 619 299 628 C308 636 317 639 328 639 C338 639 346 636 353 629 C360 622 363 614 363 604 C363 593 359 582 351 574 C344 566 333 561 319 561 C304 561 296 568 293 572 C288 578 285 587 285 595 L285 595 Z " />
<glyph glyph-name="ogonek" unicode="&#x2db;" horiz-adv-x="500" d="M280 0 C264 -9 245 -22 230 -37 C201 -65 192 -93 192 -114 C192 -138 202 -154 211 -163 C229 -181 254 -185 273 -185 C294 -185 316 -181 339 -168 L362 -101 C341 -111 326 -113 312 -113 C304 -113 293 -112 285 -106 C279 -102 273 -95 273 -82 C273 -68 277 -51 295 -33 C306 -21 325 -8 338 0 L280 0 Z " />
<glyph glyph-name="tilde" unicode="&#x2dc;" horiz-adv-x="500" d="M457 647 C445 621 426 606 407 606 C395 606 380 611 355 622 L319 637 C300 645 282 652 256 652 C221 652 195 641 173 621 C158 607 141 586 132 571 L187 523 C198 540 221 564 247 564 C260 564 280 557 296 550 L328 536 C347 527 370 518 398 518 C425 518 447 527 467 545 C482 558 500 582 511 599 L457 647 Z " />
<glyph glyph-name="hungarumlaut" unicode="&#x2dd;" horiz-adv-x="500" d="M289 690 L170 538 L215 498 L364 632 L289 690 Z M477 689 L358 538 L403 498 L552 632 L477 689 Z " />
<glyph glyph-name="acutecomb" unicode="&#x301;" horiz-adv-x="2" d="M-145 700 L-281 550 L-230 510 L-64 644 L-145 700 Z " />
<glyph glyph-name="&amp;#x394;" unicode="&#x394;" horiz-adv-x="668" d="M650 0 L398 667 L266 667 L18 0 L650 0 Z M333 518 L472 112 L194 112 L333 518 Z " />
<glyph glyph-name="&amp;#x2206;" unicode="&#x2206;" horiz-adv-x="668" d="M650 0 L398 667 L266 667 L18 0 L650 0 Z M333 518 L472 112 L194 112 L333 518 Z " />
<glyph glyph-name="&amp;#x3a9;" unicode="&#x3a9;" horiz-adv-x="627" d="M34 112 L34 0 L302 0 L302 112 C261 132 236 158 229 166 C174 225 164 303 164 353 C164 427 190 483 225 518 C248 540 284 564 338 564 C385 564 422 546 451 518 C478 492 512 441 512 355 C512 306 502 225 447 166 C440 158 415 132 374 112 L374 0 L642 0 L642 112 L500 112 C530 128 553 148 571 166 C628 225 646 293 646 364 C646 469 608 544 560 594 C503 653 429 682 338 682 C247 682 173 653 116 594 C68 544 30 469 30 364 C30 293 48 225 105 166 C123 148 146 128 176 112 L34 112 Z " />
<glyph glyph-name="&amp;#x2126;" unicode="&#x2126;" horiz-adv-x="627" d="M34 112 L34 0 L302 0 L302 112 C261 132 236 158 229 166 C174 225 164 303 164 353 C164 427 190 483 225 518 C248 540 284 564 338 564 C385 564 422 546 451 518 C478 492 512 441 512 355 C512 306 502 225 447 166 C440 158 415 132 374 112 L374 0 L642 0 L642 112 L500 112 C530 128 553 148 571 166 C628 225 646 293 646 364 C646 469 608 544 560 594 C503 653 429 682 338 682 C247 682 173 653 116 594 C68 544 30 469 30 364 C30 293 48 225 105 166 C123 148 146 128 176 112 L34 112 Z " />
<glyph glyph-name="pi" unicode="&#x3c0;" horiz-adv-x="621" d="M274 0 L274 329 L440 329 L440 0 L562 0 L562 329 L638 329 L638 433 L76 433 L76 329 L152 329 L152 0 L274 0 Z " />
<glyph glyph-name="afii10023" unicode="&#x401;" horiz-adv-x="496" d="M528 667 L158 667 L76 0 L206 0 L446 0 L460 112 L220 112 L242 294 L472 294 L486 406 L256 406 L274 555 L514 555 L528 667 Z M400 800 C400 781 407 767 417 757 C425 749 441 739 465 739 C488 739 506 748 520 762 C537 779 544 801 544 820 C544 838 537 854 526 865 C515 876 499 883 480 883 C461 883 438 875 423 859 C408 844 400 822 400 800 L400 800 Z M176 800 C176 781 183 767 193 757 C201 749 217 739 241 739 C264 739 282 748 296 762 C313 779 320 801 320 820 C320 838 313 854 302 865 C291 876 275 883 256 883 C237 883 214 875 199 859 C184 844 176 822 176 800 L176 800 Z " />
<glyph glyph-name="afii10051" unicode="&#x402;" horiz-adv-x="672" d="M564 555 L578 667 L88 667 L74 555 L214 555 L146 0 L276 0 L310 273 C358 291 402 296 434 296 C457 296 493 293 516 271 C535 253 539 230 539 208 C539 187 537 152 512 128 C489 106 459 105 439 105 C414 105 389 108 368 112 L354 1 C391 -5 424 -7 449 -7 C503 -7 563 1 610 43 C652 81 675 143 675 207 C675 280 647 331 616 359 C569 401 503 408 457 408 C406 408 363 399 323 385 L344 555 L564 555 Z " />
<glyph glyph-name="afii10052" unicode="&#x403;" horiz-adv-x="436" d="M512 667 L158 667 L76 0 L206 0 L274 555 L498 555 L512 667 Z M345 728 L534 850 L453 920 L296 778 L345 728 Z " />
<glyph glyph-name="afii10053" unicode="&#x404;" horiz-adv-x="613" d="M591 176 C564 141 517 102 426 102 C378 102 323 111 279 155 C255 179 228 220 222 279 L537 279 L551 391 L231 391 C243 436 269 481 305 513 C352 554 405 564 460 564 C503 564 574 556 630 491 L648 641 C575 678 515 682 472 682 C386 682 278 667 192 580 C129 517 85 416 85 295 C85 210 109 129 174 67 C220 23 293 -15 407 -15 C492 -15 544 9 572 24 L591 176 Z " />
<glyph glyph-name="afii10054" unicode="&#x405;" horiz-adv-x="534" d="M546 604 C483 675 409 682 366 682 C307 682 239 672 185 618 C143 576 128 526 128 474 C128 439 134 398 169 364 C184 349 208 333 250 315 L288 299 C314 288 334 284 356 266 C378 248 386 229 386 205 C386 173 375 151 361 136 C335 107 300 103 274 103 C244 103 216 109 190 131 C172 146 153 173 143 192 L48 111 C69 79 99 45 133 23 C176 -5 219 -15 270 -15 C325 -15 397 -5 452 48 C495 89 523 157 523 230 C523 274 512 305 482 337 C456 365 425 382 399 393 L354 412 C321 426 304 433 291 442 C272 455 263 471 263 493 C263 516 273 535 289 549 C302 561 324 572 360 572 C415 572 449 542 467 515 L546 604 Z " />
<glyph glyph-name="afii10055" unicode="&#x406;" horiz-adv-x="282" d="M158 667 L76 0 L206 0 L288 667 L158 667 Z " />
<glyph glyph-name="afii10056" unicode="&#x407;" horiz-adv-x="282" d="M158 667 L76 0 L206 0 L288 667 L158 667 Z M255 798 C255 782 260 768 272 755 C280 746 291 739 306 739 C321 739 336 746 348 758 C365 775 373 799 373 821 C373 835 369 851 360 863 C349 879 334 883 323 883 C308 883 293 876 282 865 C264 847 255 820 255 798 L255 798 Z M105 798 C105 782 110 768 122 755 C130 746 141 739 156 739 C171 739 186 746 198 758 C215 775 223 799 223 821 C223 835 219 851 210 863 C199 879 184 883 173 883 C158 883 143 876 132 865 C114 847 105 820 105 798 L105 798 Z " />
<glyph glyph-name="afii10057" unicode="&#x408;" horiz-adv-x="390" d="M266 667 L213 237 C207 192 203 148 180 125 C166 111 149 106 132 106 C115 106 88 110 70 142 L-20 47 C-3 30 19 14 37 5 C73 -13 115 -15 136 -15 C177 -15 228 -9 272 32 C322 78 331 142 341 220 L396 667 L266 667 Z " />
<glyph glyph-name="afii10058" unicode="&#x409;" horiz-adv-x="945" d="M464 0 L593 0 L691 0 C753 0 829 5 888 63 C923 97 950 152 950 223 C950 282 929 323 900 351 C871 378 819 406 734 406 L644 406 L676 667 L222 667 L175 285 C168 228 164 166 131 133 C118 119 95 106 60 106 C45 106 34 108 24 112 L10 0 C31 -4 49 -6 69 -6 C109 -6 175 0 227 51 C280 103 293 181 302 259 L338 555 L531 555 L464 0 Z M630 294 L696 294 C723 294 761 289 782 275 C797 265 816 244 816 206 C816 164 793 142 776 131 C750 114 713 112 684 112 L608 112 L630 294 Z " />
<glyph glyph-name="afii10059" unicode="&#x40a;" horiz-adv-x="968" d="M487 0 L616 0 L714 0 C776 0 852 5 911 63 C946 97 973 152 973 223 C973 282 952 323 923 351 C894 378 842 406 757 406 L667 406 L699 667 L569 667 L537 406 L255 406 L288 667 L158 667 L76 0 L206 0 L241 294 L523 294 L487 0 Z M653 294 L719 294 C746 294 784 289 805 275 C820 265 839 244 839 206 C839 164 816 142 799 131 C773 114 736 112 707 112 L631 112 L653 294 Z " />
<glyph glyph-name="afii10060" unicode="&#x40b;" horiz-adv-x="693" d="M544 555 L558 667 L88 667 L74 555 L214 555 L146 0 L276 0 L311 283 C341 292 371 296 409 296 C462 296 486 285 498 277 C515 266 534 243 534 206 C534 190 531 174 527 142 L510 0 L640 0 L660 165 C665 202 668 225 668 247 C668 313 637 350 607 371 C566 399 502 408 452 408 C435 408 386 408 324 395 L344 555 L544 555 Z " />
<glyph glyph-name="afii10061" unicode="&#x40c;" horiz-adv-x="617" d="M288 667 L158 667 L76 0 L206 0 L239 265 L264 289 L456 0 L612 0 L359 356 L678 667 L527 667 L254 401 L288 667 Z M383 728 L572 850 L491 920 L334 778 L383 728 Z " />
<glyph glyph-name="afii10062" unicode="&#x40e;" horiz-adv-x="606" d="M84 667 L275 200 L153 0 L295 0 L686 667 L536 667 L356 340 L224 667 L84 667 Z M209 844 C212 836 226 791 265 763 C301 736 348 732 378 732 C413 732 456 736 495 760 C512 770 546 795 569 844 L479 880 C472 865 460 848 445 838 C424 824 400 822 383 822 C370 822 344 823 325 839 C323 840 307 854 299 880 L209 844 Z " />
<glyph glyph-name="afii10145" unicode="&#x40f;" horiz-adv-x="676" d="M76 0 L278 0 L258 -166 L378 -166 L398 0 L600 0 L682 667 L552 667 L484 112 L220 112 L288 667 L158 667 L76 0 Z " />
<glyph glyph-name="afii10017" unicode="&#x410;" horiz-adv-x="672" d="M533 0 L670 0 L473 667 L375 667 L2 0 L146 0 L222 140 L491 140 L533 0 Z M276 246 L402 486 L466 246 L276 246 Z " />
<glyph glyph-name="afii10018" unicode="&#x411;" horiz-adv-x="572" d="M76 0 L207 0 L297 0 C393 0 454 30 487 60 C526 96 553 157 553 221 C553 277 532 319 506 345 C451 400 360 402 327 402 L255 402 L274 555 L530 555 L544 667 L158 667 L76 0 Z M242 290 L294 290 C345 290 369 281 382 273 C396 264 417 244 417 207 C417 165 395 143 375 131 C347 114 314 112 282 112 L220 112 L242 290 Z " />
<glyph glyph-name="afii10019" unicode="&#x412;" horiz-adv-x="571" d="M158 667 L76 0 L296 0 C398 0 455 21 496 64 C522 91 550 137 550 208 C550 245 541 277 514 307 C493 330 463 347 435 356 C460 365 482 380 500 407 C521 437 528 466 528 504 C528 544 520 584 485 618 C440 662 379 667 323 667 L158 667 Z M275 561 L307 561 C325 561 353 560 375 544 C391 532 404 513 404 483 C404 458 393 435 379 420 C354 394 320 390 282 390 L254 390 L275 561 Z M242 290 L290 290 C323 290 371 285 396 261 C409 248 418 227 418 202 C418 173 407 148 392 134 C366 109 322 106 275 106 L219 106 L242 290 Z " />
<glyph glyph-name="afii10020" unicode="&#x413;" horiz-adv-x="436" d="M512 667 L158 667 L76 0 L206 0 L274 555 L498 555 L512 667 Z " />
<glyph glyph-name="afii10021" unicode="&#x414;" horiz-adv-x="670" d="M222 667 L186 377 C176 294 168 204 110 150 C81 123 49 114 24 112 L-8 -150 L112 -150 L130 0 L540 0 L522 -150 L642 -150 L674 112 L604 112 L672 667 L222 667 Z M334 555 L528 555 L474 112 L211 112 C236 134 267 169 285 223 C300 267 305 320 312 377 L334 555 Z " />
<glyph glyph-name="afii10022" unicode="&#x415;" horiz-adv-x="496" d="M528 667 L158 667 L76 0 L206 0 L446 0 L460 112 L220 112 L242 294 L472 294 L486 406 L256 406 L274 555 L514 555 L528 667 Z " />
<glyph glyph-name="afii10024" unicode="&#x416;" horiz-adv-x="861" d="M450 667 L415 385 L228 667 L84 667 L301 359 L6 0 L156 0 L390 299 L403 284 L368 0 L492 0 L526 276 L546 292 L720 0 L864 0 L644 355 L928 667 L780 667 L539 385 L574 667 L450 667 Z " />
<glyph glyph-name="afii10025" unicode="&#x417;" horiz-adv-x="600" d="M219 515 C235 529 253 542 277 552 C302 563 326 568 352 568 C361 568 401 567 425 545 C437 533 446 515 446 494 C446 466 431 441 412 428 C393 415 355 406 324 406 L264 406 L250 294 L312 294 C332 294 384 293 413 272 C442 251 445 221 445 203 C445 174 436 151 417 132 C402 117 369 93 305 93 C259 93 226 105 204 121 C183 136 162 160 149 192 L54 111 C79 66 113 37 143 20 C188 -6 238 -15 293 -15 C401 -15 468 9 516 58 C550 93 580 146 580 220 C580 259 570 290 547 318 C530 339 505 357 475 367 C510 382 534 406 548 427 C567 455 576 488 576 521 C576 581 547 623 514 646 C471 677 419 681 374 681 C335 681 298 677 256 660 C227 648 191 627 162 604 L219 515 Z " />
<glyph glyph-name="afii10026" unicode="&#x418;" horiz-adv-x="736" d="M156 667 L74 0 L164 0 L586 443 L532 0 L662 0 L744 667 L656 667 L232 227 L286 667 L156 667 Z " />
<glyph glyph-name="afii10027" unicode="&#x419;" horiz-adv-x="736" d="M156 667 L74 0 L164 0 L586 443 L532 0 L662 0 L744 667 L656 667 L232 227 L286 667 L156 667 Z M297 844 C300 836 314 791 353 763 C389 736 436 732 466 732 C501 732 544 736 583 760 C600 770 634 795 657 844 L567 880 C560 865 548 848 533 838 C512 824 488 822 471 822 C458 822 432 823 413 839 C411 840 395 854 387 880 L297 844 Z " />
<glyph glyph-name="afii10028" unicode="&#x41a;" horiz-adv-x="617" d="M288 667 L158 667 L76 0 L206 0 L239 265 L264 289 L456 0 L612 0 L359 356 L678 667 L527 667 L254 401 L288 667 Z " />
<glyph glyph-name="afii10029" unicode="&#x41b;" horiz-adv-x="670" d="M222 667 L175 285 C168 228 164 166 131 133 C118 119 95 106 60 106 C45 106 34 108 24 112 L10 0 C31 -4 49 -6 69 -6 C109 -6 175 0 227 51 C280 103 293 181 302 259 L338 555 L532 555 L464 0 L594 0 L676 667 L222 667 Z " />
<glyph glyph-name="afii10030" unicode="&#x41c;" horiz-adv-x="870" d="M42 0 L176 0 L294 411 L416 0 L456 0 L688 411 L698 0 L828 0 L799 667 L705 667 L467 243 L343 667 L249 667 L42 0 Z " />
<glyph glyph-name="afii10031" unicode="&#x41d;" horiz-adv-x="694" d="M288 667 L158 667 L76 0 L206 0 L242 297 L524 297 L488 0 L618 0 L700 667 L570 667 L538 409 L256 409 L288 667 Z " />
<glyph glyph-name="afii10032" unicode="&#x41e;" horiz-adv-x="806" d="M484 682 C374 682 270 643 200 577 C131 512 85 409 85 299 C85 215 118 134 173 78 C212 38 287 -15 418 -15 C553 -15 643 39 696 94 C763 163 803 268 803 374 C803 473 765 548 715 596 C662 647 579 682 484 682 L484 682 Z M425 103 C363 103 309 126 273 164 C247 191 220 238 220 309 C220 381 246 451 297 499 C335 535 391 563 463 563 C536 563 586 535 615 505 C646 473 668 424 668 364 C668 289 637 216 589 169 C549 130 492 103 425 103 L425 103 Z " />
<glyph glyph-name="afii10033" unicode="&#x41f;" horiz-adv-x="680" d="M158 667 L76 0 L206 0 L274 555 L542 555 L474 0 L604 0 L686 667 L158 667 Z " />
<glyph glyph-name="afii10034" unicode="&#x420;" horiz-adv-x="535" d="M158 667 L76 0 L206 0 L236 247 L325 247 C380 247 455 255 508 305 C546 341 571 399 571 471 C571 542 546 586 517 613 C462 664 374 667 338 667 L158 667 Z M274 555 L320 555 C345 555 380 550 401 537 C433 517 437 486 437 466 C437 442 432 411 405 387 C375 361 336 359 305 359 L250 359 L274 555 Z " />
<glyph glyph-name="afii10035" unicode="&#x421;" horiz-adv-x="607" d="M585 176 C568 153 521 102 420 102 C363 102 314 120 276 160 C248 190 220 237 220 310 C220 377 243 448 287 495 C319 529 370 564 454 564 C496 564 568 556 624 491 L642 641 C570 678 509 682 466 682 C387 682 279 667 192 580 C131 518 85 417 85 291 C85 211 108 130 174 67 C209 33 280 -15 401 -15 C486 -15 539 10 566 24 L585 176 Z " />
<glyph glyph-name="afii10036" unicode="&#x422;" horiz-adv-x="442" d="M504 555 L518 667 L88 667 L74 555 L224 555 L156 0 L286 0 L354 555 L504 555 Z " />
<glyph glyph-name="afii10037" unicode="&#x423;" horiz-adv-x="606" d="M84 667 L275 200 L153 0 L295 0 L686 667 L536 667 L356 340 L224 667 L84 667 Z " />
<glyph glyph-name="afii10038" unicode="&#x424;" horiz-adv-x="834" d="M351 0 L481 0 L492 92 L502 92 C643 92 717 132 760 175 C819 234 833 304 833 375 C833 430 821 494 769 545 C702 612 606 616 566 616 L557 616 L566 694 L436 694 L427 616 L417 616 C329 616 234 598 167 530 C123 485 87 414 87 323 C87 222 132 169 173 140 C188 129 246 92 355 92 L362 92 L351 0 Z M376 204 L371 204 C339 204 293 211 263 234 C244 249 221 278 221 331 C221 375 236 427 269 459 C309 499 365 504 402 504 L413 504 L376 204 Z M543 504 L552 504 C578 504 626 501 658 473 C680 453 698 418 698 370 C698 316 678 270 650 245 C630 227 590 204 516 204 L506 204 L543 504 Z " />
<glyph glyph-name="afii10039" unicode="&#x425;" horiz-adv-x="634" d="M8 0 L164 0 L348 244 L464 0 L614 0 L429 352 L673 667 L517 667 L368 460 L277 667 L127 667 L287 352 L8 0 Z " />
<glyph glyph-name="afii10040" unicode="&#x426;" horiz-adv-x="690" d="M76 0 L560 0 L542 -150 L662 -150 L694 112 L614 112 L682 667 L552 667 L484 112 L220 112 L288 667 L158 667 L76 0 Z " />
<glyph glyph-name="afii10041" unicode="&#x427;" horiz-adv-x="622" d="M416 0 L546 0 L628 667 L498 667 L462 382 C434 375 405 371 372 371 C321 371 293 380 277 390 C251 405 240 426 240 459 C240 479 244 501 247 526 L264 667 L134 667 L116 519 C112 482 107 451 107 426 C107 374 125 331 171 299 C219 266 284 259 337 259 C374 259 409 262 449 270 L416 0 Z " />
<glyph glyph-name="afii10042" unicode="&#x428;" horiz-adv-x="970" d="M76 0 L894 0 L976 667 L846 667 L778 112 L564 112 L632 667 L502 667 L434 112 L220 112 L288 667 L158 667 L76 0 Z " />
<glyph glyph-name="afii10043" unicode="&#x429;" horiz-adv-x="984" d="M76 0 L854 0 L836 -150 L956 -150 L988 112 L908 112 L976 667 L846 667 L778 112 L564 112 L632 667 L502 667 L434 112 L220 112 L288 667 L158 667 L76 0 Z " />
<glyph glyph-name="afii10044" unicode="&#x42a;" horiz-adv-x="627" d="M146 0 L276 0 L373 0 C435 0 511 5 570 63 C605 97 632 152 632 223 C632 282 611 323 582 351 C553 378 501 406 416 406 L326 406 L358 667 L88 667 L74 555 L214 555 L146 0 Z M312 294 L378 294 C405 294 443 289 464 275 C479 265 498 244 498 206 C498 164 475 142 458 131 C432 114 395 112 366 112 L290 112 L312 294 Z " />
<glyph glyph-name="afii10045" unicode="&#x42b;" horiz-adv-x="800" d="M676 667 L594 0 L724 0 L806 667 L676 667 Z M76 0 L205 0 L303 0 C365 0 441 5 500 63 C535 97 562 152 562 223 C562 282 541 323 512 351 C483 378 431 406 346 406 L256 406 L288 667 L158 667 L76 0 Z M242 294 L308 294 C335 294 373 289 394 275 C409 265 428 244 428 206 C428 175 413 147 388 131 C372 121 346 112 296 112 L220 112 L242 294 Z " />
<glyph glyph-name="afii10046" unicode="&#x42c;" horiz-adv-x="557" d="M76 0 L303 0 C365 0 441 5 500 63 C535 97 562 152 562 223 C562 282 541 323 512 351 C483 378 431 406 346 406 L256 406 L288 667 L158 667 L76 0 Z M242 294 L308 294 C335 294 373 289 394 275 C409 265 428 244 428 206 C428 164 405 142 388 131 C362 114 325 112 296 112 L220 112 L242 294 Z " />
<glyph glyph-name="afii10047" unicode="&#x42d;" horiz-adv-x="614" d="M47 24 C75 10 133 -15 231 -15 C351 -15 432 13 497 78 C547 129 611 226 611 378 C611 429 603 525 540 594 C492 647 410 682 306 682 C262 682 199 675 123 641 L104 489 C156 536 223 564 294 564 C361 564 403 540 427 517 C454 491 478 447 479 391 L182 391 L168 279 L467 279 C450 198 400 156 391 149 C356 121 302 103 235 103 C181 103 117 118 66 176 L47 24 Z " />
<glyph glyph-name="afii10048" unicode="&#x42e;" horiz-adv-x="1019" d="M256 409 L288 667 L158 667 L76 0 L206 0 L242 297 L329 297 C326 201 363 126 408 78 C480 1 574 -15 650 -15 C743 -15 834 10 909 88 C981 163 1016 271 1016 378 C1016 446 999 526 935 592 C897 631 825 682 701 682 C602 682 523 650 469 608 C417 568 365 502 342 409 L256 409 Z M648 103 C588 103 545 126 516 154 C485 183 455 232 455 309 C455 387 488 456 531 499 C563 531 616 563 694 563 C741 563 786 550 824 514 C871 468 881 410 881 364 C881 279 850 207 805 164 C767 128 713 103 648 103 L648 103 Z " />
<glyph glyph-name="afii10049" unicode="&#x42f;" horiz-adv-x="568" d="M574 667 L381 667 C325 667 246 661 185 604 C139 561 116 498 116 435 C116 381 134 346 154 323 C177 297 211 278 243 270 L12 0 L176 0 L378 258 L394 258 L362 0 L492 0 L574 667 Z M431 561 L406 360 L376 360 C356 360 311 361 283 383 C270 393 252 413 252 450 C252 481 265 513 284 531 C314 560 357 561 391 561 L431 561 Z " />
<glyph glyph-name="afii10065" unicode="&#x430;" horiz-adv-x="572" d="M438 377 C426 397 411 413 387 426 C359 441 332 447 301 447 C221 447 165 415 130 379 C89 336 63 272 63 194 C63 136 79 83 121 41 C162 0 211 -14 263 -14 C293 -14 318 -8 344 7 C352 12 377 27 399 56 L392 0 L514 0 L567 433 L445 433 L438 377 Z M318 339 C362 339 388 321 402 306 C420 287 432 260 432 229 C432 192 418 151 389 125 C360 99 327 94 303 94 C267 94 241 105 223 122 C204 140 190 170 190 208 C190 244 205 282 233 308 C258 330 287 339 318 339 L318 339 Z " />
<glyph glyph-name="afii10066" unicode="&#x431;" horiz-adv-x="581" d="M497 720 C487 677 455 669 384 654 C314 640 249 624 198 575 C123 503 76 322 76 212 C76 128 107 77 138 46 C188 -4 250 -14 303 -14 C378 -14 445 2 502 61 C547 108 574 172 574 243 C574 314 545 360 519 386 C478 427 414 447 357 447 C320 447 259 438 214 385 L212 385 C219 424 237 465 261 491 C297 530 346 541 392 551 C437 561 503 575 547 615 C590 654 606 711 609 720 L497 720 Z M312 94 C276 94 247 108 230 125 C216 139 201 163 201 203 C201 244 216 279 238 302 C256 321 285 339 331 339 C371 339 398 326 415 310 C436 290 447 257 447 230 C447 199 434 159 410 134 C388 110 351 94 312 94 L312 94 Z " />
<glyph glyph-name="afii10067" unicode="&#x432;" horiz-adv-x="457" d="M111 433 L58 0 L177 0 L281 0 C314 0 365 5 404 44 C427 67 440 97 440 137 C440 158 435 179 416 199 C411 204 394 221 363 228 C385 234 402 247 413 260 C423 273 435 294 435 326 C435 355 426 380 405 399 C371 430 319 433 291 433 L111 433 Z M212 261 L221 337 L272 337 C283 337 297 336 307 330 C320 322 322 310 322 301 C322 288 317 277 304 269 C291 261 275 261 260 261 L212 261 Z M192 96 L202 183 L262 183 C274 183 289 182 301 173 C309 167 316 158 316 142 C316 127 309 114 299 107 C288 99 269 96 255 96 L192 96 Z " />
<glyph glyph-name="afii10068" unicode="&#x433;" horiz-adv-x="340" d="M58 0 L180 0 L220 329 L374 329 L387 433 L111 433 L58 0 Z " />
<glyph glyph-name="afii10069" unicode="&#x434;" horiz-adv-x="530" d="M151 433 L131 270 C126 230 120 170 82 134 C67 120 45 107 17 104 L-11 -126 L99 -126 L114 0 L412 0 L397 -126 L507 -126 L535 104 L471 104 L511 433 L151 433 Z M349 104 L178 104 C200 124 211 144 214 150 C226 174 234 207 237 233 L248 329 L376 329 L349 104 Z " />
<glyph glyph-name="afii10070" unicode="&#x435;" horiz-adv-x="526" d="M393 141 C384 125 369 107 351 96 C328 83 300 82 285 82 C263 82 236 86 214 109 C196 127 184 156 189 196 L513 196 C515 209 515 222 515 240 C515 293 506 352 459 397 C417 437 363 447 311 447 C258 447 193 438 138 383 C90 336 63 261 63 186 C63 115 91 71 115 46 C161 -3 218 -14 276 -14 C315 -14 363 -9 406 15 C441 35 476 71 498 116 L393 141 Z M203 274 C210 298 224 319 239 333 C256 348 280 361 313 361 C338 361 364 353 381 337 C396 323 407 299 408 274 L203 274 Z " />
<glyph glyph-name="afii10072" unicode="&#x436;" horiz-adv-x="655" d="M323 433 L303 265 L193 433 L59 433 L200 236 L-2 0 L140 0 L275 170 L289 152 L270 0 L380 0 L399 152 L417 170 L513 0 L649 0 L507 233 L701 433 L559 433 L413 265 L433 433 L323 433 Z " />
<glyph glyph-name="afii10073" unicode="&#x437;" horiz-adv-x="439" d="M145 315 C158 326 174 335 187 341 C202 348 219 351 237 351 C240 351 266 350 283 340 C293 334 300 325 300 311 C300 295 291 282 278 275 C266 269 244 267 232 267 L183 267 L172 179 L223 179 C239 179 261 177 274 169 C286 161 293 150 293 138 C293 124 285 108 269 98 C255 90 232 86 215 86 C191 86 171 92 153 100 C135 108 118 120 102 135 L33 61 C67 26 101 10 105 8 C113 4 154 -14 222 -14 C303 -14 345 4 376 35 C412 71 418 111 418 138 C418 159 413 184 393 204 C379 218 358 228 341 233 C364 240 379 251 392 270 C405 288 413 308 413 332 C413 365 398 398 364 420 C337 437 294 447 255 447 C226 447 188 441 161 431 C140 423 113 408 92 393 L145 315 Z " />
<glyph glyph-name="afii10074" unicode="&#x438;" horiz-adv-x="560" d="M111 433 L58 0 L180 0 L413 267 L380 0 L502 0 L555 433 L433 433 L200 166 L233 433 L111 433 Z " />
<glyph glyph-name="afii10075" unicode="&#x439;" horiz-adv-x="560" d="M111 433 L58 0 L180 0 L413 267 L380 0 L502 0 L555 433 L433 433 L200 166 L233 433 L111 433 Z M443 650 C437 632 425 614 412 604 C399 594 381 587 358 587 C339 587 314 592 298 606 C286 617 278 634 275 650 L192 612 C203 578 223 555 243 541 C263 526 299 509 354 509 C395 509 432 518 460 537 C498 563 517 604 520 612 L443 650 Z " />
<glyph glyph-name="afii10076" unicode="&#x43a;" horiz-adv-x="489" d="M111 433 L58 0 L180 0 L199 156 L224 175 L348 0 L488 0 L314 233 L536 433 L389 433 L213 265 L233 433 L111 433 Z " />
<glyph glyph-name="afii10077" unicode="&#x43b;" horiz-adv-x="500" d="M495 433 L145 433 L114 178 C112 161 105 132 91 118 C77 104 49 98 21 105 L8 1 C41 -6 115 -15 169 39 C208 78 218 129 223 170 L242 329 L360 329 L320 0 L442 0 L495 433 Z " />
<glyph glyph-name="afii10078" unicode="&#x43c;" horiz-adv-x="600" d="M12 0 L136 0 L201 235 L283 0 L323 0 L461 235 L468 0 L588 0 L564 433 L470 433 L323 184 L236 433 L146 433 L12 0 Z " />
<glyph glyph-name="afii10079" unicode="&#x43d;" horiz-adv-x="530" d="M58 0 L180 0 L202 176 L372 176 L350 0 L472 0 L525 433 L403 433 L384 280 L214 280 L233 433 L111 433 L58 0 Z " />
<glyph glyph-name="afii10080" unicode="&#x43e;" horiz-adv-x="572" d="M336 447 C235 447 173 408 138 374 C94 331 63 264 63 193 C63 125 88 77 120 46 C167 -1 225 -14 287 -14 C364 -14 429 5 486 59 C546 117 563 186 563 241 C563 309 535 356 507 385 C474 418 421 447 336 447 L336 447 Z M299 94 C271 94 239 105 219 125 C200 144 189 175 189 201 C189 235 202 276 232 304 C256 326 290 339 324 339 C353 339 383 328 403 309 C424 289 435 256 435 229 C435 195 419 157 394 132 C368 106 332 94 299 94 L299 94 Z " />
<glyph glyph-name="afii10081" unicode="&#x43f;" horiz-adv-x="526" d="M111 433 L58 0 L180 0 L220 329 L386 329 L346 0 L468 0 L521 433 L111 433 Z " />
<glyph glyph-name="afii10082" unicode="&#x440;" horiz-adv-x="572" d="M187 56 C198 39 213 22 231 11 C267 -12 314 -14 332 -14 C387 -14 441 0 489 48 C524 83 563 145 563 246 C563 294 553 354 506 399 C465 438 414 447 370 447 C340 447 318 442 290 428 C266 416 245 400 226 377 L233 433 L111 433 L30 -229 L152 -229 L187 56 Z M326 339 C355 339 386 328 404 311 C422 294 436 267 436 232 C436 194 422 155 396 129 C371 104 342 94 307 94 C280 94 246 99 221 128 C205 146 194 174 194 206 C194 240 207 276 235 303 C262 330 294 339 326 339 L326 339 Z " />
<glyph glyph-name="afii10083" unicode="&#x441;" horiz-adv-x="420" d="M438 421 C394 442 356 447 318 447 C245 447 184 428 132 375 C89 331 62 269 62 193 C62 126 85 79 116 47 C154 8 212 -14 274 -14 C303 -14 348 -10 388 13 L402 132 C369 102 328 94 302 94 C269 94 239 107 220 127 C201 146 190 175 190 206 C190 239 203 279 230 305 C258 333 292 339 320 339 C373 339 405 318 423 301 L438 421 Z " />
<glyph glyph-name="afii10084" unicode="&#x442;" horiz-adv-x="374" d="M408 329 L421 433 L59 433 L46 329 L166 329 L126 0 L248 0 L288 329 L408 329 Z " />
<glyph glyph-name="afii10085" unicode="&#x443;" horiz-adv-x="538" d="M21 -229 L159 -229 L589 433 L447 433 L297 187 L193 433 L55 433 L216 65 L21 -229 Z " />
<glyph glyph-name="afii10086" unicode="&#x444;" horiz-adv-x="694" d="M258 -229 L380 -229 L407 -6 C463 -6 558 3 622 68 C652 99 685 154 685 236 C685 276 677 331 631 375 C590 414 520 437 462 439 L490 667 L368 667 L340 439 C273 439 200 421 152 383 C103 344 63 273 63 193 C63 104 111 58 137 38 C172 12 222 -6 280 -6 L285 -6 L258 -229 Z M299 102 C275 102 246 109 226 124 C212 135 189 158 189 201 C189 240 206 280 231 301 C255 322 295 331 327 331 L299 102 Z M449 331 C474 331 504 323 525 305 C544 289 558 262 558 229 C558 197 545 157 519 134 C495 113 455 102 421 102 L449 331 Z " />
<glyph glyph-name="afii10087" unicode="&#x445;" horiz-adv-x="558" d="M2 0 L163 0 L302 151 L407 0 L556 0 L380 236 L573 433 L414 433 L310 321 L233 433 L86 433 L231 236 L2 0 Z " />
<glyph glyph-name="afii10088" unicode="&#x446;" horiz-adv-x="542" d="M58 0 L424 0 L409 -126 L519 -126 L547 104 L477 104 L517 433 L395 433 L355 104 L193 104 L233 433 L111 433 L58 0 Z " />
<glyph glyph-name="afii10089" unicode="&#x447;" horiz-adv-x="483" d="M303 0 L425 0 L478 433 L356 433 L333 253 C308 244 287 242 274 242 C257 242 235 244 222 252 C204 262 200 277 200 295 C200 305 201 316 203 328 L216 433 L96 433 L81 312 C78 286 76 272 76 258 C76 226 86 200 111 177 C148 143 197 138 233 138 C264 138 291 142 321 153 L303 0 Z " />
<glyph glyph-name="afii10090" unicode="&#x448;" horiz-adv-x="762" d="M58 0 L704 0 L757 433 L635 433 L595 104 L455 104 L495 433 L373 433 L333 104 L193 104 L233 433 L111 433 L58 0 Z " />
<glyph glyph-name="afii10091" unicode="&#x449;" horiz-adv-x="782" d="M58 0 L664 0 L649 -126 L759 -126 L787 104 L717 104 L757 433 L635 433 L595 104 L455 104 L495 433 L373 433 L333 104 L193 104 L233 433 L111 433 L58 0 Z " />
<glyph glyph-name="afii10092" unicode="&#x44a;" horiz-adv-x="505" d="M59 433 L46 329 L152 329 L112 0 L234 0 L294 0 C348 0 413 4 455 45 C479 69 496 107 496 156 C496 180 491 215 463 242 C426 277 369 279 346 279 L268 279 L287 433 L59 433 Z M246 96 L256 183 L313 183 C324 183 343 181 353 175 C360 171 369 162 369 144 C369 125 359 113 351 107 C337 97 315 96 302 96 L246 96 Z " />
<glyph glyph-name="afii10093" unicode="&#x44b;" horiz-adv-x="650" d="M523 433 L470 0 L592 0 L645 433 L523 433 Z M112 433 L58 0 L176 0 L240 0 C294 0 359 4 401 45 C421 64 442 100 442 155 C442 180 437 215 409 242 C372 277 315 279 292 279 L214 279 L233 433 L112 433 Z M192 96 L202 183 L259 183 C270 183 289 181 299 175 C306 171 315 162 315 144 C315 125 305 113 297 107 C283 97 261 96 248 96 L192 96 Z " />
<glyph glyph-name="afii10094" unicode="&#x44c;" horiz-adv-x="451" d="M112 433 L58 0 L178 0 L240 0 C294 0 359 4 401 45 C421 64 442 100 442 155 C442 180 437 215 409 242 C372 277 315 279 292 279 L214 279 L233 433 L112 433 Z M192 96 L202 183 L259 183 C270 183 289 181 299 175 C306 171 315 162 315 144 C315 125 305 113 297 107 C283 97 261 96 248 96 L192 96 Z " />
<glyph glyph-name="afii10095" unicode="&#x44d;" horiz-adv-x="436" d="M35 11 C85 -10 129 -15 177 -15 C230 -15 295 -10 353 46 C387 79 427 140 427 242 C427 284 419 341 377 385 C338 426 273 447 215 447 C179 447 139 440 88 420 L75 314 C113 342 155 351 189 351 C217 351 246 343 266 327 C283 314 297 291 301 263 L122 263 L111 175 L290 175 C282 133 255 111 249 107 C224 89 194 85 168 85 C110 85 75 103 50 127 L35 11 Z " />
<glyph glyph-name="afii10096" unicode="&#x44e;" horiz-adv-x="753" d="M213 270 L233 433 L111 433 L58 0 L180 0 L200 166 L257 166 C262 113 285 70 312 43 C357 -3 414 -14 468 -14 C548 -14 610 1 667 57 C727 115 744 185 744 240 C744 318 709 363 688 384 C654 418 597 447 519 447 C457 447 393 428 348 392 C314 365 284 323 269 270 L213 270 Z M482 94 C440 94 417 115 407 125 C391 142 378 169 378 204 C378 244 396 281 420 304 C447 330 478 339 505 339 C534 339 564 328 584 309 C602 292 616 265 616 231 C616 193 600 156 575 131 C552 108 520 94 482 94 L482 94 Z " />
<glyph glyph-name="afii10097" unicode="&#x44f;" horiz-adv-x="460" d="M20 0 L166 0 L291 152 L299 152 L280 0 L402 0 L455 433 L294 433 C239 433 168 432 120 383 C100 363 79 328 79 275 C79 247 85 219 107 196 C121 181 144 168 168 162 L20 0 Z M309 240 L264 240 C250 240 231 243 219 252 C207 261 204 272 204 284 C204 305 214 318 222 324 C233 333 253 337 268 337 L321 337 L309 240 Z " />
<glyph glyph-name="afii10071" unicode="&#x451;" horiz-adv-x="526" d="M393 141 C384 125 369 107 351 96 C328 83 300 82 285 82 C263 82 236 86 214 109 C196 127 184 156 189 196 L513 196 C515 209 515 222 515 240 C515 293 506 352 459 397 C417 437 363 447 311 447 C258 447 193 438 138 383 C90 336 63 261 63 186 C63 115 91 71 115 46 C161 -3 218 -14 276 -14 C315 -14 363 -9 406 15 C441 35 476 71 498 116 L393 141 Z M203 274 C210 298 224 319 239 333 C256 348 280 361 313 361 C338 361 364 353 381 337 C396 323 407 299 408 274 L203 274 Z M374 578 C374 561 381 543 393 531 C403 521 418 514 437 514 C458 514 479 521 496 540 C509 554 518 572 518 594 C518 614 511 628 502 638 C492 649 477 658 456 658 C439 658 417 653 398 634 C380 616 374 595 374 578 L374 578 Z M166 578 C166 561 173 543 185 531 C195 521 210 514 229 514 C250 514 271 521 288 540 C301 554 310 572 310 594 C310 614 303 628 294 638 C284 649 269 658 248 658 C231 658 209 653 190 634 C172 616 166 595 166 578 L166 578 Z " />
<glyph glyph-name="afii10099" unicode="&#x452;" horiz-adv-x="546" d="M69 0 L191 0 L213 181 C217 213 227 254 250 277 C263 290 285 303 318 303 C341 303 359 296 371 285 C380 277 391 260 391 230 C391 215 387 175 385 163 L357 -55 C355 -69 351 -89 343 -100 C337 -108 322 -122 292 -122 C272 -122 256 -116 249 -113 L236 -221 C262 -227 289 -230 313 -230 C350 -230 396 -225 431 -192 C464 -161 472 -121 476 -86 L510 189 C513 217 518 241 518 271 C518 305 512 339 484 367 C462 389 427 407 368 407 C334 407 312 401 286 387 C264 375 246 360 232 337 L255 519 L455 519 L464 597 L264 597 L281 729 L159 729 L142 597 L42 597 L33 519 L133 519 L69 0 Z " />
<glyph glyph-name="afii10100" unicode="&#x453;" horiz-adv-x="340" d="M58 0 L180 0 L220 329 L374 329 L387 433 L111 433 L58 0 Z M344 700 L208 550 L259 510 L425 644 L344 700 Z " />
<glyph glyph-name="afii10101" unicode="&#x454;" horiz-adv-x="433" d="M448 421 C417 436 380 447 324 447 C258 447 190 435 132 375 C89 331 62 269 62 193 C62 126 85 79 116 47 C146 16 198 -14 283 -14 C345 -14 379 3 398 13 L412 132 C388 110 356 94 308 94 C287 94 256 96 231 115 C214 127 201 147 195 172 L382 172 L393 260 L201 260 C211 287 228 306 244 317 C271 335 303 339 328 339 C363 339 400 332 433 301 L448 421 Z " />
<glyph glyph-name="afii10102" unicode="&#x455;" horiz-adv-x="400" d="M399 403 C385 413 364 426 345 433 C320 443 288 447 260 447 C202 447 162 429 137 405 C112 381 94 345 94 302 C94 269 103 248 123 228 C141 210 162 200 180 193 L210 181 C229 174 244 168 253 160 C262 151 264 141 264 133 C264 117 257 103 247 95 C236 86 216 82 200 82 C183 82 165 88 150 96 C134 105 120 118 110 132 L37 58 C55 39 81 18 103 7 C128 -5 161 -14 205 -14 C245 -14 302 -8 347 37 C372 62 392 98 392 148 C392 171 387 204 362 230 C346 246 319 261 295 269 L258 281 C239 287 230 291 223 297 C216 303 214 310 214 319 C214 332 219 340 223 345 C235 358 259 359 264 359 C281 359 292 356 305 350 C318 344 327 337 336 328 L399 403 Z " />
<glyph glyph-name="afii10103" unicode="&#x456;" horiz-adv-x="238" d="M111 433 L58 0 L180 0 L233 433 L111 433 Z M121 607 C121 587 128 573 140 561 C152 550 167 543 186 543 C205 543 226 550 244 568 C263 587 268 609 268 624 C268 642 261 659 249 671 C238 682 222 689 203 689 C187 689 165 685 145 664 C128 647 121 626 121 607 L121 607 Z " />
<glyph glyph-name="afii10104" unicode="&#x457;" horiz-adv-x="274" d="M129 433 L76 0 L198 0 L251 433 L129 433 Z M226 606 C226 588 232 572 241 561 C249 552 260 545 276 545 C288 545 306 550 323 571 C343 597 343 623 343 628 C343 644 338 659 328 671 C316 686 301 689 291 689 C274 689 263 682 253 672 C236 655 226 631 226 606 L226 606 Z M83 607 C83 588 89 572 98 561 C106 552 117 545 133 545 C145 545 163 550 180 571 C200 597 200 623 200 628 C200 644 195 659 185 671 C173 686 158 689 148 689 C131 689 120 682 110 672 C93 655 83 631 83 607 L83 607 Z " />
<glyph glyph-name="afii10105" unicode="&#x458;" horiz-adv-x="238" d="M111 433 L30 -229 L152 -229 L233 433 L111 433 Z M121 607 C121 587 128 573 140 561 C152 550 167 543 186 543 C205 543 226 550 244 568 C263 587 268 609 268 624 C268 642 261 659 249 671 C238 682 222 689 203 689 C187 689 165 685 145 664 C128 647 121 626 121 607 L121 607 Z " />
<glyph glyph-name="afii10106" unicode="&#x459;" horiz-adv-x="713" d="M476 279 L495 433 L145 433 L114 178 C112 161 107 134 91 118 C73 101 44 99 21 105 L8 1 C41 -6 115 -15 169 39 C208 78 218 129 223 170 L242 329 L360 329 L320 0 L443 0 L502 0 C556 0 621 4 663 45 C683 65 704 100 704 154 C704 181 699 215 671 242 C634 277 577 279 554 279 L476 279 Z M454 96 L464 183 L521 183 C532 183 551 181 561 175 C568 171 577 162 577 144 C577 125 567 113 559 107 C543 96 524 96 510 96 L454 96 Z " />
<glyph glyph-name="afii10107" unicode="&#x45a;" horiz-adv-x="742" d="M524 433 L403 433 L384 279 L214 279 L233 433 L111 433 L58 0 L180 0 L203 183 L372 183 L349 0 L470 0 L531 0 C585 0 650 4 692 45 C712 64 733 100 733 155 C733 180 728 215 700 242 C663 277 606 279 583 279 L505 279 L524 433 Z M483 96 L493 183 L550 183 C561 183 580 181 590 175 C597 171 606 162 606 144 C606 125 596 113 588 107 C574 97 552 96 539 96 L483 96 Z " />
<glyph glyph-name="afii10108" unicode="&#x45b;" horiz-adv-x="546" d="M69 0 L191 0 L213 181 C217 213 227 254 250 277 C263 290 285 303 318 303 C341 303 359 296 371 285 C380 277 391 260 391 230 C391 215 386 175 385 163 L365 0 L487 0 L510 189 C513 218 518 240 518 271 C518 305 512 339 484 367 C462 389 427 407 368 407 C334 407 312 401 286 387 C264 375 246 360 232 337 L255 519 L455 519 L464 597 L264 597 L281 729 L159 729 L142 597 L42 597 L33 519 L133 519 L69 0 Z " />
<glyph glyph-name="afii10109" unicode="&#x45c;" horiz-adv-x="489" d="M111 433 L58 0 L180 0 L199 156 L224 175 L348 0 L488 0 L314 233 L536 433 L389 433 L213 265 L233 433 L111 433 Z M414 700 L278 550 L329 510 L495 644 L414 700 Z " />
<glyph glyph-name="afii10110" unicode="&#x45e;" horiz-adv-x="538" d="M21 -229 L159 -229 L589 433 L447 433 L297 187 L193 433 L55 433 L216 65 L21 -229 Z M433 650 C427 632 415 614 402 604 C389 594 371 587 348 587 C329 587 304 592 288 606 C276 617 268 634 265 650 L182 612 C193 578 213 555 233 541 C253 526 289 509 344 509 C385 509 422 518 450 537 C488 563 507 604 510 612 L433 650 Z " />
<glyph glyph-name="afii10193" unicode="&#x45f;" horiz-adv-x="522" d="M58 0 L206 0 L189 -136 L299 -136 L316 0 L464 0 L517 433 L395 433 L355 104 L193 104 L233 433 L111 433 L58 0 Z " />
<glyph glyph-name="afii10146" unicode="&#x462;" horiz-adv-x="622" d="M140 0 L367 0 C429 0 505 5 564 63 C599 97 626 152 626 223 C626 282 605 323 576 351 C547 378 495 406 410 406 L320 406 L331 497 L531 497 L543 597 L343 597 L356 694 L226 694 L213 597 L63 597 L51 497 L201 497 L140 0 Z M306 294 L372 294 C399 294 437 289 458 275 C473 265 492 244 492 206 C492 164 469 142 452 131 C426 114 389 112 360 112 L284 112 L306 294 Z " />
<glyph glyph-name="afii10194" unicode="&#x463;" horiz-adv-x="503" d="M112 0 L234 0 L294 0 C348 0 412 4 455 45 C487 76 494 114 494 147 C494 175 488 208 461 234 C426 268 373 271 344 271 L267 271 L276 345 L416 345 L427 433 L287 433 L316 667 L194 667 L165 433 L59 433 L48 345 L154 345 L112 0 Z M246 96 L256 183 L313 183 C324 183 343 181 353 175 C367 166 369 152 369 143 C369 128 364 116 351 107 C336 97 318 96 302 96 L246 96 Z " />
<glyph glyph-name="afii10147" unicode="&#x472;" horiz-adv-x="806" d="M484 682 C374 682 270 643 200 577 C130 511 85 409 85 302 C85 215 119 133 173 78 C224 26 303 -15 418 -15 C553 -15 643 39 696 94 C763 163 803 268 803 374 C803 473 765 548 715 596 C662 647 579 682 484 682 L484 682 Z M658 289 C649 250 629 203 583 162 C538 121 489 103 425 103 C373 103 321 116 279 158 C265 172 226 216 221 289 L658 289 Z M230 385 C246 436 275 481 311 511 C352 546 401 563 463 563 C536 563 583 538 615 505 C640 478 662 436 667 385 L230 385 Z " />
<glyph glyph-name="afii10195" unicode="&#x473;" horiz-adv-x="572" d="M337 447 C235 447 172 408 138 374 C94 331 63 264 63 193 C63 125 88 77 120 46 C167 -1 225 -14 287 -14 C364 -14 429 5 486 59 C546 117 563 186 563 241 C563 309 535 356 507 385 C474 418 421 447 337 447 L337 447 Z M427 184 C419 154 401 124 380 108 C359 92 330 84 304 84 C275 84 245 92 224 110 C207 125 192 152 191 184 L427 184 Z M202 262 C211 288 227 311 245 325 C268 343 293 349 322 349 C352 349 381 340 399 323 C415 308 427 285 430 262 L202 262 Z " />
<glyph glyph-name="afii10148" unicode="&#x474;" horiz-adv-x="644" d="M84 667 L284 0 L358 0 L724 667 L580 667 L347 219 L224 667 L84 667 Z " />
<glyph glyph-name="afii10196" unicode="&#x475;" horiz-adv-x="504" d="M55 433 L223 0 L281 0 L555 433 L415 433 L271 189 L187 433 L55 433 Z " />
<glyph glyph-name="afii10050" unicode="&#x490;" horiz-adv-x="476" d="M76 0 L206 0 L274 555 L538 555 L570 817 L450 817 L432 667 L158 667 L76 0 Z " />
<glyph glyph-name="afii10098" unicode="&#x491;" horiz-adv-x="380" d="M58 0 L180 0 L220 329 L414 329 L443 559 L333 559 L317 433 L111 433 L58 0 Z " />
<glyph glyph-name="uni0492" unicode="&#x492;" horiz-adv-x="436" d="M76 0 L206 0 L244 308 L404 308 L416 408 L256 408 L274 555 L498 555 L512 667 L158 667 L126 408 L30 408 L18 308 L114 308 L76 0 Z " />
<glyph glyph-name="uni0493" unicode="&#x493;" horiz-adv-x="340" d="M58 0 L180 0 L199 158 L299 158 L310 244 L210 244 L220 329 L374 329 L387 433 L111 433 L88 244 L20 244 L9 158 L77 158 L58 0 Z " />
<glyph glyph-name="uni0494" unicode="&#x494;" horiz-adv-x="602" d="M494 555 L508 667 L158 667 L76 0 L206 0 L240 273 C288 291 332 296 364 296 C387 296 423 293 446 271 C465 253 469 230 469 208 C469 187 467 152 442 128 C419 106 389 105 369 105 C344 105 319 108 298 112 L284 1 C321 -5 354 -7 379 -7 C433 -7 493 1 540 43 C582 81 605 143 605 207 C605 280 577 331 546 359 C499 401 433 408 387 408 C336 408 293 399 253 385 L274 555 L494 555 Z " />
<glyph glyph-name="uni0495" unicode="&#x495;" horiz-adv-x="456" d="M58 0 L180 0 L196 132 L206 132 C222 132 254 130 275 110 C287 99 298 80 298 48 C298 4 279 -32 254 -57 C237 -74 207 -94 164 -100 L151 -208 C218 -204 273 -181 313 -154 C406 -91 426 1 426 60 C426 125 397 165 374 187 C326 232 261 236 222 236 L209 236 L220 329 L374 329 L387 433 L111 433 L58 0 Z " />
<glyph glyph-name="uni0496" unicode="&#x496;" horiz-adv-x="861" d="M450 667 L415 385 L228 667 L84 667 L301 359 L6 0 L156 0 L390 299 L403 284 L368 0 L492 0 L526 276 L546 292 L720 0 L750 0 L732 -150 L852 -150 L884 112 L795 112 L644 355 L928 667 L780 667 L539 385 L574 667 L450 667 Z " />
<glyph glyph-name="uni0497" unicode="&#x497;" horiz-adv-x="655" d="M323 433 L303 265 L193 433 L59 433 L200 236 L-2 0 L140 0 L275 170 L289 152 L270 0 L380 0 L399 152 L417 170 L513 0 L538 0 L523 -126 L633 -126 L661 104 L586 104 L507 233 L701 433 L559 433 L413 265 L433 433 L323 433 Z " />
<glyph glyph-name="uni0498" unicode="&#x498;" horiz-adv-x="600" d="M219 515 C235 529 253 542 277 552 C302 563 326 568 352 568 C361 568 401 567 425 545 C437 533 446 515 446 494 C446 466 431 441 412 428 C393 415 355 406 324 406 L264 406 L250 294 L312 294 C332 294 384 293 413 272 C442 251 445 221 445 203 C445 174 436 151 417 132 C402 117 369 93 305 93 C259 93 226 105 204 121 C183 136 162 160 149 192 L54 111 C73 74 97 50 130 28 C164 5 196 -8 238 -12 L218 -166 L338 -166 L358 -9 C437 -6 489 31 516 58 C550 92 580 146 580 220 C580 259 570 290 547 318 C530 339 505 357 475 367 C510 382 534 406 548 427 C567 455 576 488 576 521 C576 581 547 623 514 646 C471 677 419 681 374 681 C335 681 298 677 256 660 C227 648 191 627 162 604 L219 515 Z " />
<glyph glyph-name="uni0499" unicode="&#x499;" horiz-adv-x="439" d="M145 315 C158 326 174 335 187 341 C202 347 218 351 237 351 C252 351 270 348 283 340 C293 333 300 325 300 311 C300 295 291 282 278 275 C266 269 244 267 232 267 L183 267 L172 179 L223 179 C239 179 261 177 274 169 C287 161 293 150 293 138 C293 128 291 110 269 98 C248 86 216 86 214 86 C195 86 174 90 153 100 C135 108 118 120 102 135 L33 61 C51 42 70 28 91 16 C117 1 140 -6 168 -9 L152 -136 L262 -136 L277 -10 C325 -8 358 14 376 31 C412 65 418 105 418 131 C418 170 401 194 388 206 C370 224 345 232 341 233 C366 240 381 255 391 267 C405 285 413 309 413 331 C413 358 403 395 364 420 C357 424 321 447 255 447 C225 447 189 441 161 431 C140 423 113 408 92 393 L145 315 Z " />
<glyph glyph-name="uni049A" unicode="&#x49a;" horiz-adv-x="617" d="M288 667 L158 667 L76 0 L206 0 L239 265 L264 289 L456 0 L493 0 L475 -150 L595 -150 L627 112 L534 112 L359 356 L678 667 L527 667 L254 401 L288 667 Z " />
<glyph glyph-name="uni049B" unicode="&#x49b;" horiz-adv-x="489" d="M111 433 L58 0 L180 0 L199 156 L224 175 L348 0 L373 0 L358 -126 L468 -126 L496 104 L411 104 L314 233 L536 433 L389 433 L213 265 L233 433 L111 433 Z " />
<glyph glyph-name="uni049C" unicode="&#x49c;" horiz-adv-x="723" d="M158 667 L76 0 L206 0 L243 299 L312 299 L291 129 L387 129 L408 303 L562 0 L706 0 L522 350 L790 667 L643 667 L420 397 L440 559 L344 559 L324 399 L255 399 L288 667 L158 667 Z " />
<glyph glyph-name="uni049D" unicode="&#x49d;" horiz-adv-x="584" d="M111 433 L58 0 L180 0 L203 190 L251 190 L237 70 L317 70 L331 190 L428 0 L566 0 L440 233 L631 433 L485 433 L341 268 L353 368 L272 368 L261 268 L213 268 L233 433 L111 433 Z " />
<glyph glyph-name="uni04A0" unicode="&#x4a0;" horiz-adv-x="687" d="M748 667 L597 667 L324 401 L358 667 L88 667 L74 555 L214 555 L146 0 L276 0 L309 265 L334 289 L526 0 L682 0 L429 356 L748 667 Z " />
<glyph glyph-name="uni04A1" unicode="&#x4a1;" horiz-adv-x="573" d="M112 0 L234 0 L253 156 L278 175 L402 0 L542 0 L368 233 L590 433 L443 433 L267 265 L287 433 L59 433 L46 329 L152 329 L112 0 Z " />
<glyph glyph-name="uni04A2" unicode="&#x4a2;" horiz-adv-x="708" d="M76 0 L206 0 L242 297 L524 297 L488 0 L578 0 L560 -150 L680 -150 L712 112 L632 112 L700 667 L570 667 L538 409 L256 409 L288 667 L158 667 L76 0 Z " />
<glyph glyph-name="uni04A3" unicode="&#x4a3;" horiz-adv-x="550" d="M58 0 L180 0 L202 176 L372 176 L350 0 L432 0 L417 -126 L527 -126 L555 104 L485 104 L525 433 L403 433 L384 280 L214 280 L233 433 L111 433 L58 0 Z " />
<glyph glyph-name="uni04A4" unicode="&#x4a4;" horiz-adv-x="848" d="M76 0 L206 0 L242 297 L524 297 L488 0 L618 0 L686 555 L910 555 L924 667 L570 667 L538 409 L256 409 L288 667 L158 667 L76 0 Z " />
<glyph glyph-name="uni04A5" unicode="&#x4a5;" horiz-adv-x="632" d="M58 0 L180 0 L202 176 L372 176 L350 0 L472 0 L512 329 L666 329 L679 433 L403 433 L384 280 L214 280 L233 433 L111 433 L58 0 Z " />
<glyph glyph-name="uni04AA" unicode="&#x4aa;" horiz-adv-x="607" d="M585 176 C568 153 521 102 420 102 C363 102 314 120 276 160 C248 189 220 237 220 311 C220 377 243 448 287 495 C319 529 370 564 454 564 C496 564 568 556 624 491 L642 641 C570 678 509 682 466 682 C387 682 279 667 192 580 C128 516 85 416 85 298 C85 194 119 119 174 67 C213 30 272 -4 350 -12 L330 -166 L450 -166 L470 -9 C502 -6 534 4 566 24 L585 176 Z " />
<glyph glyph-name="uni04AB" unicode="&#x4ab;" horiz-adv-x="420" d="M438 421 C394 442 356 447 318 447 C245 447 184 428 132 375 C98 340 62 281 62 193 C62 146 73 92 116 47 C137 25 169 2 215 -7 L199 -136 L309 -136 L325 -10 C347 -7 368 0 388 13 L402 132 C369 102 328 94 302 94 C269 94 239 107 220 127 C201 146 190 175 190 206 C190 239 203 279 230 305 C258 333 292 339 320 339 C373 339 405 318 423 301 L438 421 Z " />
<glyph glyph-name="uni04AE" unicode="&#x4ae;" horiz-adv-x="590" d="M227 0 L357 0 L394 305 L674 667 L514 667 L342 435 L228 667 L80 667 L264 305 L227 0 Z " />
<glyph glyph-name="uni04AF" unicode="&#x4af;" horiz-adv-x="504" d="M55 433 L198 57 L163 -229 L285 -229 L320 57 L555 433 L415 433 L271 189 L187 433 L55 433 Z " />
<glyph glyph-name="uni04B0" unicode="&#x4b0;" horiz-adv-x="590" d="M227 0 L357 0 L382 205 L562 205 L574 305 L394 305 L674 667 L514 667 L342 435 L228 667 L80 667 L264 305 L84 305 L72 205 L252 205 L227 0 Z " />
<glyph glyph-name="uni04B1" unicode="&#x4b1;" horiz-adv-x="504" d="M55 433 L198 57 L193 20 L53 20 L42 -76 L182 -76 L163 -229 L285 -229 L304 -76 L444 -76 L455 20 L315 20 L320 57 L555 433 L415 433 L271 189 L187 433 L55 433 Z " />
<glyph glyph-name="uni04B2" unicode="&#x4b2;" horiz-adv-x="634" d="M8 0 L164 0 L348 244 L464 0 L493 0 L475 -150 L595 -150 L627 112 L554 112 L429 352 L673 667 L517 667 L368 460 L277 667 L127 667 L287 352 L8 0 Z " />
<glyph glyph-name="uni04B3" unicode="&#x4b3;" horiz-adv-x="556" d="M2 0 L163 0 L302 151 L407 0 L444 0 L429 -126 L539 -126 L567 104 L478 104 L380 236 L573 433 L414 433 L310 321 L233 433 L86 433 L231 236 L2 0 Z " />
<glyph glyph-name="uni04B6" unicode="&#x4b6;" horiz-adv-x="635" d="M505 0 L487 -150 L607 -150 L639 112 L559 112 L628 667 L498 667 L462 382 C434 375 405 371 372 371 C321 371 293 380 277 390 C251 405 240 426 240 459 C240 479 244 501 247 526 L264 667 L134 667 L116 519 C112 482 107 451 107 426 C107 374 125 331 171 299 C219 266 284 259 337 259 C374 259 409 262 449 270 L416 0 L505 0 Z " />
<glyph glyph-name="uni04B7" unicode="&#x4b7;" horiz-adv-x="503" d="M385 0 L370 -126 L480 -126 L508 104 L438 104 L478 433 L356 433 L333 253 C311 245 291 242 273 242 C256 242 235 244 222 252 C204 262 200 277 200 295 C200 305 201 316 203 328 L216 433 L96 433 L81 312 C78 286 76 272 76 258 C76 226 86 200 111 177 C148 143 197 138 233 138 C264 138 291 142 321 153 L303 0 L385 0 Z " />
<glyph glyph-name="uni04B8" unicode="&#x4b8;" horiz-adv-x="664" d="M458 0 L588 0 L670 667 L540 667 L504 376 C478 371 451 369 422 370 L444 553 L348 553 L326 373 C304 372 276 380 261 394 C241 412 241 440 241 454 C241 473 245 495 248 518 L266 667 L136 667 L117 515 C109 455 107 442 107 427 C107 355 146 318 177 300 C212 280 267 269 313 271 L295 123 L391 123 L409 268 C436 268 464 271 492 275 L458 0 Z " />
<glyph glyph-name="uni04B9" unicode="&#x4b9;" horiz-adv-x="540" d="M360 0 L482 0 L535 433 L413 433 L390 246 C371 243 353 241 336 241 L349 348 L269 348 L256 242 C246 242 230 245 220 251 C213 256 201 267 201 293 C201 298 202 308 217 433 L95 433 L81 324 C78 303 76 286 76 268 C76 246 80 217 103 194 C134 163 200 152 245 152 L234 64 L314 64 L325 153 C344 153 362 155 380 159 L360 0 Z " />
<glyph glyph-name="uni04BA" unicode="&#x4ba;" horiz-adv-x="623" d="M288 667 L158 667 L76 0 L206 0 L243 303 C273 312 304 316 342 316 C395 316 419 305 431 297 C448 286 467 263 467 226 C467 211 464 193 460 162 L440 0 L570 0 L593 185 C598 229 601 248 601 267 C601 333 570 370 540 391 C499 419 435 428 385 428 C368 428 319 428 257 415 L288 667 Z " />
<glyph glyph-name="uni04BB" unicode="&#x4bb;" horiz-adv-x="536" d="M58 0 L180 0 L207 221 C211 253 221 294 244 317 C252 325 274 343 313 343 C335 343 353 336 365 325 C374 317 385 300 385 270 C385 254 380 210 379 201 L354 0 L476 0 L505 238 C509 268 513 288 513 312 C513 342 507 378 479 407 C457 429 421 447 363 447 C329 447 304 441 279 427 C255 413 238 396 226 377 L270 729 L148 729 L58 0 Z " />
<glyph glyph-name="uni04C0" unicode="&#x4c0;" horiz-adv-x="282" d="M158 667 L76 0 L206 0 L288 667 L158 667 Z " />
<glyph glyph-name="uni04C1" unicode="&#x4c1;" horiz-adv-x="861" d="M450 667 L415 385 L228 667 L84 667 L301 359 L6 0 L156 0 L390 299 L403 284 L368 0 L492 0 L526 276 L546 292 L720 0 L864 0 L644 355 L928 667 L780 667 L539 385 L574 667 L450 667 Z M354 844 C357 836 371 791 410 763 C446 736 493 732 523 732 C558 732 601 736 640 760 C657 770 691 795 714 844 L624 880 C617 865 605 848 590 838 C569 824 545 822 528 822 C515 822 489 823 470 839 C468 840 452 854 444 880 L354 844 Z " />
<glyph glyph-name="uni04C2" unicode="&#x4c2;" horiz-adv-x="655" d="M323 433 L303 265 L193 433 L59 433 L200 236 L-2 0 L140 0 L275 170 L289 152 L270 0 L380 0 L399 152 L417 170 L513 0 L649 0 L507 233 L701 433 L559 433 L413 265 L433 433 L323 433 Z M496 650 C490 632 478 614 465 604 C452 594 434 587 411 587 C392 587 367 592 351 606 C339 617 331 634 328 650 L245 612 C256 578 276 555 296 541 C316 526 352 509 407 509 C448 509 485 518 513 537 C551 563 570 604 573 612 L496 650 Z " />
<glyph glyph-name="uni04C3" unicode="&#x4c3;" horiz-adv-x="647" d="M288 667 L158 667 L76 0 L206 0 L239 279 C275 292 311 296 348 296 C376 296 413 293 441 273 C468 254 479 229 479 198 C479 170 469 143 452 126 C431 104 405 101 386 101 C368 101 353 105 345 107 L331 -4 C354 -9 373 -11 397 -11 C447 -11 503 -5 554 47 C594 87 615 141 615 211 C615 263 600 310 552 348 C515 378 458 396 403 396 L678 667 L527 667 L254 390 L288 667 Z " />
<glyph glyph-name="uni04C4" unicode="&#x4c4;" horiz-adv-x="485" d="M111 433 L58 0 L180 0 L197 143 L221 143 C247 143 280 137 299 120 C313 108 327 84 327 48 C327 4 309 -32 283 -57 C266 -74 236 -94 193 -100 L180 -208 C247 -204 302 -181 342 -154 C435 -91 455 1 455 60 C455 119 432 157 412 179 C391 201 358 221 324 230 L536 433 L389 433 L211 253 L233 433 L111 433 Z " />
<glyph glyph-name="uni04C7" unicode="&#x4c7;" horiz-adv-x="686" d="M76 0 L206 0 L242 297 L524 297 L486 -19 C482 -51 476 -76 462 -90 C453 -99 437 -108 409 -108 C393 -108 381 -106 367 -99 L353 -221 C378 -227 406 -230 436 -230 C469 -230 524 -226 561 -189 C596 -154 607 -92 612 -52 L700 667 L570 667 L538 409 L256 409 L288 667 L158 667 L76 0 Z " />
<glyph glyph-name="uni04C8" unicode="&#x4c8;" horiz-adv-x="530" d="M58 0 L180 0 L202 176 L371 176 L346 -31 C342 -68 336 -88 327 -100 C321 -108 306 -122 276 -122 C256 -122 240 -116 233 -113 L220 -221 C246 -227 273 -230 297 -230 C334 -230 381 -226 415 -192 C452 -155 458 -103 463 -64 L525 433 L403 433 L384 280 L214 280 L233 433 L111 433 L58 0 Z " />
<glyph glyph-name="uni04D0" unicode="&#x4d0;" horiz-adv-x="672" d="M533 0 L670 0 L473 667 L375 667 L2 0 L146 0 L222 140 L491 140 L533 0 Z M276 246 L402 486 L466 246 L276 246 Z M250 844 C253 836 267 791 306 763 C342 736 389 732 419 732 C454 732 497 736 536 760 C553 770 587 795 610 844 L520 880 C513 865 501 848 486 838 C465 824 441 822 424 822 C411 822 385 823 366 839 C364 840 348 854 340 880 L250 844 Z " />
<glyph glyph-name="uni04D1" unicode="&#x4d1;" horiz-adv-x="572" d="M438 377 C426 397 411 413 387 426 C359 441 332 447 301 447 C221 447 165 415 130 379 C89 336 63 272 63 194 C63 136 79 83 121 41 C162 0 211 -14 263 -14 C293 -14 318 -8 344 7 C352 12 377 27 399 56 L392 0 L514 0 L567 433 L445 433 L438 377 Z M318 339 C362 339 388 321 402 306 C420 287 432 260 432 229 C432 192 418 151 389 125 C360 99 327 94 303 94 C267 94 241 105 223 122 C204 140 190 170 190 208 C190 244 205 282 233 308 C258 330 287 339 318 339 L318 339 Z M474 650 C468 632 456 614 443 604 C430 594 412 587 389 587 C370 587 345 592 329 606 C317 617 309 634 306 650 L223 612 C234 578 254 555 274 541 C294 526 330 509 385 509 C426 509 463 518 491 537 C529 563 548 604 551 612 L474 650 Z " />
<glyph glyph-name="uni04D2" unicode="&#x4d2;" horiz-adv-x="672" d="M533 0 L670 0 L473 667 L375 667 L2 0 L146 0 L222 140 L491 140 L533 0 Z M276 246 L402 486 L466 246 L276 246 Z M470 800 C470 781 477 767 487 757 C495 749 511 739 535 739 C558 739 576 748 590 762 C607 779 614 801 614 820 C614 838 607 854 596 865 C585 876 569 883 550 883 C531 883 508 875 493 859 C478 844 470 822 470 800 L470 800 Z M246 800 C246 781 253 767 263 757 C271 749 287 739 311 739 C334 739 352 748 366 762 C383 779 390 801 390 820 C390 838 383 854 372 865 C361 876 345 883 326 883 C307 883 284 875 269 859 C254 844 246 822 246 800 L246 800 Z " />
<glyph glyph-name="uni04D3" unicode="&#x4d3;" horiz-adv-x="572" d="M438 377 C426 397 411 413 387 426 C359 441 332 447 301 447 C221 447 165 415 130 379 C89 336 63 272 63 194 C63 136 79 83 121 41 C162 0 211 -14 263 -14 C293 -14 318 -8 344 7 C352 12 377 27 399 56 L392 0 L514 0 L567 433 L445 433 L438 377 Z M318 339 C362 339 388 321 402 306 C420 287 432 260 432 229 C432 192 418 151 389 125 C360 99 327 94 303 94 C267 94 241 105 223 122 C204 140 190 170 190 208 C190 244 205 282 233 308 C258 330 287 339 318 339 L318 339 Z M394 578 C394 561 401 543 413 531 C423 521 438 514 457 514 C478 514 499 521 516 540 C529 554 538 572 538 594 C538 614 531 628 522 638 C512 649 497 658 476 658 C459 658 437 653 418 634 C400 616 394 595 394 578 L394 578 Z M186 578 C186 561 193 543 205 531 C215 521 230 514 249 514 C270 514 291 521 308 540 C321 554 330 572 330 594 C330 614 323 628 314 638 C304 649 289 658 268 658 C251 658 229 653 210 634 C192 616 186 595 186 578 L186 578 Z " />
<glyph glyph-name="uni04D4" unicode="&#x4d4;" horiz-adv-x="920" d="M533 0 L914 0 L884 112 L638 112 L587 294 L829 294 L797 406 L556 406 L514 555 L759 555 L729 667 L377 667 L6 0 L146 0 L222 140 L491 140 L533 0 Z M276 246 L404 486 L466 246 L276 246 Z " />
<glyph glyph-name="uni04D5" unicode="&#x4d5;" horiz-adv-x="810" d="M435 374 C421 400 402 416 376 428 C346 442 317 447 284 447 C243 447 197 440 153 425 L141 328 C181 343 219 351 259 351 C303 351 324 340 333 333 C362 312 364 283 364 262 L364 241 C323 264 282 271 240 271 C206 271 153 267 112 241 C68 213 51 172 51 125 C51 90 60 58 88 31 C129 -9 188 -14 229 -14 C262 -14 306 -9 337 4 C351 10 380 24 405 57 C422 38 443 20 466 9 C475 4 514 -14 578 -14 C631 -14 680 0 713 24 C747 48 773 88 786 121 L676 139 C670 122 660 111 646 101 C626 86 609 82 585 82 C566 82 531 84 507 108 C486 128 475 166 475 196 L797 196 C805 273 796 347 745 396 C721 420 675 447 600 447 C562 447 526 440 494 423 C476 413 454 398 435 374 L435 374 Z M171 126 C171 138 174 157 197 171 C218 184 241 185 262 185 C291 185 309 180 322 173 C341 163 348 148 348 133 C348 122 345 101 318 86 C300 76 276 72 255 72 C233 72 207 78 191 89 C175 100 171 115 171 126 L171 126 Z M487 274 C493 295 505 318 521 334 C544 356 569 361 596 361 C634 361 653 347 659 342 C678 326 690 296 692 274 L487 274 Z " />
<glyph glyph-name="uni04D6" unicode="&#x4d6;" horiz-adv-x="496" d="M528 667 L158 667 L76 0 L206 0 L446 0 L460 112 L220 112 L242 294 L472 294 L486 406 L256 406 L274 555 L514 555 L528 667 Z M184 844 C187 836 201 791 240 763 C276 736 323 732 353 732 C388 732 431 736 470 760 C487 770 521 795 544 844 L454 880 C447 865 435 848 420 838 C399 824 375 822 358 822 C345 822 319 823 300 839 C298 840 282 854 274 880 L184 844 Z " />
<glyph glyph-name="uni04D7" unicode="&#x4d7;" horiz-adv-x="526" d="M393 141 C384 125 369 107 351 96 C328 83 300 82 285 82 C263 82 236 86 214 109 C196 127 184 156 189 196 L513 196 C515 209 515 222 515 240 C515 293 506 352 459 397 C417 437 363 447 311 447 C258 447 193 438 138 383 C90 336 63 261 63 186 C63 115 91 71 115 46 C161 -3 218 -14 276 -14 C315 -14 363 -9 406 15 C441 35 476 71 498 116 L393 141 Z M203 274 C210 298 224 319 239 333 C256 348 280 361 313 361 C338 361 364 353 381 337 C396 323 407 299 408 274 L203 274 Z M414 650 C408 632 396 614 383 604 C370 594 352 587 329 587 C310 587 285 592 269 606 C257 617 249 634 246 650 L163 612 C174 578 194 555 214 541 C234 526 270 509 325 509 C366 509 403 518 431 537 C469 563 488 604 491 612 L414 650 Z " />
<glyph glyph-name="uni04D8" unicode="&#x4d8;" horiz-adv-x="763" d="M88 377 C76 275 101 165 156 93 C223 5 305 -15 408 -15 C494 -15 569 -1 646 72 C705 129 760 220 760 362 C760 468 725 545 672 598 C601 669 513 682 440 682 C384 682 317 673 255 637 C211 612 167 570 138 535 L252 474 C280 509 310 528 321 535 C358 557 394 564 434 564 C482 564 531 552 570 513 C602 481 625 433 626 377 L88 377 Z M613 277 C605 235 584 193 554 162 C511 118 458 103 403 103 C342 103 302 123 277 147 C244 179 225 232 223 277 L613 277 Z " />
<glyph glyph-name="afii10846" unicode="&#x4d9;" horiz-adv-x="525" d="M201 297 C210 316 224 328 236 336 C254 347 274 351 296 351 C326 351 351 341 365 326 C383 308 392 275 390 247 L66 247 C58 178 73 92 124 40 C166 -3 219 -14 274 -14 C347 -14 397 4 445 53 C499 108 516 174 516 244 C516 289 507 346 459 392 C415 434 361 447 305 447 C259 447 212 439 167 409 C133 386 105 353 86 316 L201 297 Z M381 169 C374 127 350 103 346 99 C320 75 289 72 269 72 C247 72 224 77 204 96 C186 113 174 142 172 169 L381 169 Z " />
<glyph glyph-name="uni04DA" unicode="&#x4da;" horiz-adv-x="763" d="M88 377 C76 275 101 165 156 93 C223 5 305 -15 408 -15 C494 -15 569 -1 646 72 C705 129 760 220 760 362 C760 468 725 545 672 598 C601 669 513 682 440 682 C384 682 317 673 255 637 C211 612 167 570 138 535 L252 474 C280 509 310 528 321 535 C358 557 394 564 434 564 C482 564 531 552 570 513 C602 481 625 433 626 377 L88 377 Z M613 277 C605 235 584 193 554 162 C511 118 458 103 403 103 C342 103 302 123 277 147 C244 179 225 232 223 277 L613 277 Z M502 800 C502 781 509 767 519 757 C527 749 543 739 567 739 C590 739 608 748 622 762 C639 779 646 801 646 820 C646 838 639 854 628 865 C617 876 601 883 582 883 C563 883 540 875 525 859 C510 844 502 822 502 800 L502 800 Z M278 800 C278 781 285 767 295 757 C303 749 319 739 343 739 C366 739 384 748 398 762 C415 779 422 801 422 820 C422 838 415 854 404 865 C393 876 377 883 358 883 C339 883 316 875 301 859 C286 844 278 822 278 800 L278 800 Z " />
<glyph glyph-name="uni04DB" unicode="&#x4db;" horiz-adv-x="525" d="M201 297 C210 316 224 328 236 336 C254 347 274 351 296 351 C326 351 351 341 365 326 C383 308 392 275 390 247 L66 247 C58 178 73 92 124 40 C166 -3 219 -14 274 -14 C347 -14 397 4 445 53 C499 108 516 174 516 244 C516 289 507 346 459 392 C415 434 361 447 305 447 C259 447 212 439 167 409 C133 386 105 353 86 316 L201 297 Z M381 169 C374 127 350 103 346 99 C320 75 289 72 269 72 C247 72 224 77 204 96 C186 113 174 142 172 169 L381 169 Z M344 578 C344 561 351 543 363 531 C373 521 388 514 407 514 C428 514 449 521 466 540 C479 554 488 572 488 594 C488 614 481 628 472 638 C462 649 447 658 426 658 C409 658 387 653 368 634 C350 616 344 595 344 578 L344 578 Z M136 578 C136 561 143 543 155 531 C165 521 180 514 199 514 C220 514 241 521 258 540 C271 554 280 572 280 594 C280 614 273 628 264 638 C254 649 239 658 218 658 C201 658 179 653 160 634 C142 616 136 595 136 578 L136 578 Z " />
<glyph glyph-name="uni04DC" unicode="&#x4dc;" horiz-adv-x="861" d="M450 667 L415 385 L228 667 L84 667 L301 359 L6 0 L156 0 L390 299 L403 284 L368 0 L492 0 L526 276 L546 292 L720 0 L864 0 L644 355 L928 667 L780 667 L539 385 L574 667 L450 667 Z M560 800 C560 781 567 767 577 757 C585 749 601 739 625 739 C648 739 666 748 680 762 C697 779 704 801 704 820 C704 838 697 854 686 865 C675 876 659 883 640 883 C621 883 598 875 583 859 C568 844 560 822 560 800 L560 800 Z M336 800 C336 781 343 767 353 757 C361 749 377 739 401 739 C424 739 442 748 456 762 C473 779 480 801 480 820 C480 838 473 854 462 865 C451 876 435 883 416 883 C397 883 374 875 359 859 C344 844 336 822 336 800 L336 800 Z " />
</font>
</svg>
